<svg width="19" height="19" viewBox="0 0 19 19" fill="none" xmlns="http://www.w3.org/2000/svg">
<g clip-path="url(#clip0_1_616)">
<g clip-path="url(#clip1_1_616)">
<g clip-path="url(#clip2_1_616)">
<path d="M7.39557 6.89636C7.39557 8.17451 8.43171 9.78926 9.70986 9.78926C10.988 9.78926 12.0242 8.17451 12.0242 6.89636C12.0242 5.61822 10.988 4.58208 9.70986 4.58208C8.43171 4.58208 7.39557 5.61822 7.39557 6.89636Z" fill="#202124"/>
<path fill-rule="evenodd" clip-rule="evenodd" d="M18.4528 9.49994C18.4528 14.3285 14.5385 18.2428 9.70993 18.2428C4.88138 18.2428 0.967072 14.3285 0.967072 9.49994C0.967072 4.67139 4.88138 0.75708 9.70993 0.75708C14.5385 0.75708 18.4528 4.67139 18.4528 9.49994ZM9.70993 16.4428C13.5444 16.4428 16.6528 13.3344 16.6528 9.49994C16.6528 5.6655 13.5444 2.55708 9.70993 2.55708C5.8755 2.55708 2.76707 5.6655 2.76707 9.49994C2.76707 13.3344 5.8755 16.4428 9.70993 16.4428Z" fill="#202124"/>
<path fill-rule="evenodd" clip-rule="evenodd" d="M8.67592 13.0606C8.68363 12.9818 8.68959 12.9194 8.69321 12.8785C8.72429 12.5423 8.8001 11.7064 8.81378 11.4826C8.8262 11.2749 8.93434 11.014 9.00767 10.8582C8.9948 10.8595 8.98206 10.8606 8.96958 10.8619C8.89657 10.869 8.83285 10.8751 8.80632 10.8804C8.19439 10.9516 7.84005 10.9499 7.78722 10.9497C7.785 10.9496 7.78216 10.9496 7.78216 10.9496C7.74677 10.9557 7.74429 10.8824 7.73856 10.7137C7.73726 10.675 7.73577 10.6313 7.73369 10.5824C7.73095 10.518 7.72828 10.4622 7.72599 10.414C7.7189 10.2655 7.7153 10.19 7.72375 10.1584C7.73494 10.1151 7.77097 10.0903 7.96735 10.0965C8.16373 10.1026 8.79762 10.1274 8.96666 10.1657C9.1879 10.2177 9.24258 10.2721 9.24258 10.2721C9.24258 10.2721 9.29354 10.1435 9.41162 10.1435C9.48469 10.1435 9.52059 10.1528 9.54791 10.1598C9.56054 10.163 9.57134 10.1658 9.58314 10.167H9.61545H9.64777C9.65957 10.1658 9.67037 10.163 9.683 10.1598C9.71027 10.1528 9.74618 10.1435 9.81926 10.1435C9.93734 10.1435 9.98828 10.2721 9.98828 10.2721C9.98828 10.2721 10.043 10.2177 10.2642 10.1657C10.4332 10.1262 11.0001 10.0854 11.1964 10.0792C11.3928 10.0743 11.4288 10.0978 11.4401 10.141C11.448 10.1717 11.4453 10.2241 11.4391 10.3455C11.4365 10.3952 11.4333 10.4567 11.4301 10.5329C11.4262 10.6228 11.4263 10.7026 11.4264 10.7685C11.4265 10.8712 11.4266 10.94 11.4115 10.9595C11.4078 10.9645 11.4003 10.9731 11.3828 10.9793C11.3456 10.9917 11.1728 10.9942 10.3575 10.8804C10.3339 10.8718 10.2766 10.8668 10.1972 10.8606C10.2693 11.009 10.3936 11.2934 10.406 11.516C10.4167 11.6922 10.4668 12.2482 10.5022 12.6406C10.5117 12.7466 10.5202 12.8405 10.5265 12.9119C10.528 12.9283 10.5297 12.9482 10.5316 12.9714C10.3099 13.0347 10.0804 13.0797 9.84482 13.1046C9.81341 12.6113 9.75464 11.6491 9.75464 11.3626V11.3416C9.75464 11.3157 9.7658 11.2526 9.77084 11.234L9.77453 11.2217C9.79037 11.1633 9.81224 11.0969 9.83384 11.0314C9.836 11.0248 9.83825 11.0181 9.84041 11.0115C9.75716 11.0276 9.65896 11.0214 9.62539 11.0189C9.59557 11.0239 9.47625 11.0387 9.38676 10.9892C9.41534 11.077 9.44393 11.1722 9.45885 11.2687C9.46133 11.2835 9.46506 11.3478 9.46258 11.3923C9.4514 11.6287 9.40004 12.3334 9.33793 13.1266C9.11229 13.1225 8.89115 13.1 8.67592 13.0606Z" fill="#202124"/>
<path fill-rule="evenodd" clip-rule="evenodd" d="M9.7101 17.0214C6.83424 17.0214 4.50293 16.1535 4.50293 12.9714C4.50293 12.0462 5.45668 10.8844 6.89663 10.1671L7.64374 16.4428H11.7764L12.5235 10.1671C13.9635 10.8844 14.9172 12.0462 14.9172 12.9714C14.9172 16.1535 12.5859 17.0214 9.7101 17.0214Z" fill="#202124"/>
</g>
</g>
</g>
<defs>
<clipPath id="clip0_1_616">
<rect width="18" height="18" fill="white" transform="translate(0.709991 0.5)"/>
</clipPath>
<clipPath id="clip1_1_616">
<rect width="18" height="18" fill="white" transform="translate(0.709991 0.5)"/>
</clipPath>
<clipPath id="clip2_1_616">
<rect width="18" height="18" fill="white" transform="translate(0.709991 0.5)"/>
</clipPath>
</defs>
</svg>
