<svg width="51" height="50" viewBox="0 0 51 50" fill="none" xmlns="http://www.w3.org/2000/svg">
<g clip-path="url(#clip0_1_628)">
<path d="M13.7726 35.6579L10.4832 13.8158L11.2726 11.579L18.1147 10.1316H30.8779L38.3779 11.579L39.9568 14.6053L35.8779 37.8947L31.0095 39.4737L23.641 40.2632L17.0621 39.4737L13.7726 38.0263V35.6579Z" fill="white"/>
<path d="M17.8515 37.8947L14.8252 36.9737L11.2726 15.3947L16.141 15.5263L17.8515 37.8947Z" fill="#E4002B"/>
<path d="M32.5884 37.8947L35.6147 36.9737L39.1673 15.2632L34.2989 15.3947L32.5884 37.8947Z" fill="#E4002B"/>
<path d="M25.22 35.2632C18.5095 35.2632 14.5621 33.6842 12.9832 33.1579L13.7726 37.1053C14.2989 38.1579 17.3253 40.1316 25.22 40.1316C33.1147 40.1316 36.141 38.1579 36.6674 37.1053V33.1579C34.4305 33.6842 31.9305 35.2632 25.22 35.2632Z" fill="white"/>
<path d="M25.22 40.9211C22.3252 40.9211 19.4305 40.6579 17.1937 40C14.6937 39.3421 13.2463 38.5526 12.9831 37.5C12.9831 37.3684 12.9831 37.3684 12.9831 37.2369L9.69366 13.8158C9.69366 13.6842 9.69366 13.5526 9.69366 13.4211C9.69366 13.2895 9.69366 13.1579 9.69366 13.0263C9.95682 12.1053 10.8779 11.4474 12.5884 10.7895C15.3516 9.86843 20.0884 9.34212 25.22 9.34212C30.3516 9.34212 34.9568 9.86843 37.8516 10.7895C39.5621 11.3158 40.4831 11.9737 40.7463 12.8947V13.0263V13.1579C40.7463 13.2895 40.7463 13.2895 40.7463 13.4211C40.7463 13.5526 40.7463 13.6842 40.7463 13.8158L37.4568 37.3684C37.3252 38.4211 35.8779 39.3421 33.2463 40C31.0095 40.6579 28.1147 40.9211 25.22 40.9211ZM14.9568 37.1053C15.3516 37.6316 19.0358 39.079 25.22 39.079C27.8516 39.079 30.3516 38.8158 32.4568 38.2895C34.5621 37.7632 35.3516 37.2369 35.4831 37.1053L38.7726 13.5526V13.4211C38.7726 13.4211 38.5095 13.0263 37.1937 12.6316C34.5621 11.7105 30.22 11.1842 25.3516 11.1842C20.4831 11.1842 16.0095 11.7105 13.5095 12.5C12.1937 12.8947 11.9305 13.2895 11.9305 13.2895V13.4211L14.9568 37.1053Z" fill="#202124"/>
<path d="M38.7726 13.5526V13.4211C38.7726 13.4211 38.5094 13.0263 37.1936 12.6316C34.5621 11.7105 30.22 11.1842 25.3515 11.1842C20.4831 11.1842 16.0094 11.7105 13.5094 12.5C12.1936 12.8947 11.9305 13.2895 11.9305 13.2895V13.4211" stroke="white" stroke-width="1.31579"/>
<path d="M25.22 17.3684C21.2726 17.3684 17.5884 16.9737 14.6937 16.4474C11.2726 15.6579 9.69366 14.7368 9.69366 13.2895C9.69366 11.9737 11.4042 10.9211 14.6937 10.1316C17.4568 9.47368 21.2726 9.21053 25.22 9.21053C29.1673 9.21053 32.8516 9.60526 35.7463 10.1316C39.1673 10.9211 40.7463 11.8421 40.7463 13.2895C40.7463 14.6053 39.0358 15.6579 35.7463 16.4474C32.8516 17.1053 29.1673 17.3684 25.22 17.3684ZM11.7989 13.4211C11.9305 13.6842 12.9831 14.3421 15.7463 14.8684C18.3779 15.3947 21.7989 15.6579 25.3516 15.6579C28.9042 15.6579 32.3252 15.3947 34.9568 14.8684C37.72 14.3421 38.641 13.6842 38.9042 13.4211C38.7726 13.1579 37.72 12.5 34.9568 11.9737C32.3252 11.4474 28.9042 11.1842 25.3516 11.1842C21.7989 11.1842 18.3779 11.4474 15.7463 11.9737C12.8516 12.5 11.9305 13.1579 11.7989 13.4211Z" fill="#202124"/>
<path d="M23.7726 11.0526L28.9042 9.34212H30.0884L31.2726 11.0526L29.6936 13.1579L28.9042 15.1316H22.1936L21.4042 14.079L22.1936 12.6316L23.7726 11.0526Z" fill="white"/>
<path fill-rule="evenodd" clip-rule="evenodd" d="M30.8779 3.94737C31.2726 3.42106 31.9305 3.1579 32.5884 3.02632C33.3779 3.02632 33.9042 3.42106 34.2989 3.94737C34.4305 4.21053 34.5621 4.47369 34.6937 4.73685C34.9568 4.86843 35.22 4.86843 35.4832 5.13158C36.0095 5.39474 36.4042 6.05264 36.4042 6.71053C36.4042 8.02632 35.4832 9.07895 34.0358 9.07895C33.9042 9.07895 33.9042 9.07895 33.7726 9.07895L31.7989 11.4474L30.4832 10.3947L33.1147 7.10527L33.6411 7.23685H33.7726C33.9042 7.23685 34.0358 7.23685 34.0358 7.23685C34.2989 7.23685 34.5621 6.97369 34.5621 6.71053C34.5621 6.71053 34.5621 6.71053 34.5621 6.57895C34.5621 6.57895 34.5621 6.57895 34.4305 6.44737C34.4305 6.57895 34.2989 6.57895 34.0358 6.57895H33.1147V5.6579C33.1147 5.39474 32.9832 5.13158 32.9832 5.00001C32.8516 4.86843 32.8516 4.86843 32.8516 4.86843C32.72 4.86843 32.5884 5.00001 32.4568 5.13158C32.3253 5.26316 32.3253 5.39474 32.3253 5.52632C32.3253 5.6579 32.3253 5.78948 32.4568 5.92106C32.4568 6.05264 32.4568 6.05264 32.5884 6.05264L33.1147 6.71053L29.8253 9.73685L28.6411 8.42106L30.4832 6.44737C30.4832 6.3158 30.3516 6.05264 30.3516 5.92106C30.22 5.13158 30.4832 4.34211 30.8779 3.94737Z" fill="#202124"/>
<path d="M20.3516 14.8684C20.7463 12.8947 22.3252 11.3158 24.1674 10.3947C25.22 9.86843 26.2726 9.34211 27.3252 8.68421C27.4568 8.55264 29.0358 7.63158 29.1674 7.76316L32.3252 10.6579L29.8252 16.9737L28.1147 16.579L30.22 11.1842L28.9042 10C28.1147 10.3947 27.3252 10.7895 26.5358 11.3158C25.22 11.8421 23.9042 12.5 22.9831 13.5526C22.1937 14.4737 21.9305 15.6579 22.4568 16.7105H20.6147C20.3516 16.0526 20.3516 15.3947 20.3516 14.8684Z" fill="#202124"/>
<path d="M24.9568 46.9737C32.0057 46.9737 37.72 46.09 37.72 45C37.72 43.91 32.0057 43.0263 24.9568 43.0263C17.9079 43.0263 12.1937 43.91 12.1937 45C12.1937 46.09 17.9079 46.9737 24.9568 46.9737Z" fill="#C4C4C4" fill-opacity="0.5"/>
</g>
<defs>
<clipPath id="clip0_1_628">
<rect width="50" height="50" fill="white" transform="translate(0.219971)"/>
</clipPath>
</defs>
</svg>
