<svg width="106" height="99" viewBox="0 0 106 99" fill="none" xmlns="http://www.w3.org/2000/svg">
<g clip-path="url(#clip0_1_592)">
<g clip-path="url(#clip1_1_592)">
<path d="M67.9463 41.5811L66.8385 46.5622C66.8137 46.6783 66.7499 46.7822 66.6576 46.8569C66.5653 46.9315 66.4502 46.9722 66.3314 46.9722H64.756C64.6849 46.9723 64.6145 46.9577 64.5492 46.9294C64.484 46.9012 64.4251 46.8598 64.3765 46.8079C64.3279 46.756 64.2905 46.6947 64.2665 46.6278C64.2426 46.5608 64.2327 46.4897 64.2374 46.4188C64.2374 46.354 64.2374 46.3269 64.2374 46.3269C64.3137 44.7018 63.2872 43.4883 60.9642 43.4883C57.1019 43.4883 54.2932 46.6557 53.9248 50.8153C53.5448 55.1108 56.5505 57.6075 60.7091 57.6068C62.325 57.6114 63.9323 57.3717 65.4764 56.8959C65.5623 56.8688 65.6539 56.8644 65.7421 56.8832C65.8302 56.9019 65.9119 56.9433 65.9794 57.0031C66.0467 57.0629 66.0974 57.1391 66.1265 57.2244C66.1556 57.3097 66.162 57.401 66.1452 57.4895L65.6528 60.0633C65.6328 60.1706 65.5841 60.2706 65.5119 60.3525C65.4397 60.4346 65.3466 60.4955 65.2426 60.5289C64.3901 60.8003 61.9964 61.4383 58.3327 61.4383C49.6291 61.4383 46.0983 56.4367 46.644 51.3376C47.1338 46.7967 50.1412 40.1053 61.9982 40.1053C63.8631 40.1043 65.7195 40.3584 67.5155 40.8604C67.6665 40.9019 67.7955 41 67.8758 41.1343C67.9561 41.2686 67.9813 41.4287 67.9463 41.5811ZM18.4605 40.8719L18.1725 42.1707C18.1415 42.3105 18.1644 42.4569 18.2367 42.5806C18.3089 42.7044 18.4252 42.7963 18.5623 42.8381C19.0637 43.0316 19.1752 43.5121 18.7379 43.872L11.4555 49.9198L12.706 44.2205C12.9194 43.3465 13.6143 42.9906 14.0542 42.8438L14.1255 42.8217C14.2205 42.7924 14.3059 42.7385 14.3732 42.6654C14.4405 42.5924 14.4873 42.5029 14.5088 42.406L14.8075 41.0556C14.8239 40.9805 14.8234 40.9027 14.8057 40.8278C14.7879 40.753 14.7537 40.6832 14.7052 40.6234C14.6569 40.5636 14.5956 40.5155 14.5262 40.4826C14.4567 40.4497 14.3806 40.4328 14.3037 40.4332H4.91492C4.78621 40.4333 4.66138 40.4772 4.56099 40.5577C4.46061 40.6382 4.39066 40.7505 4.36269 40.876L4.05908 42.2437C4.02974 42.3785 4.05131 42.5193 4.11962 42.6392C4.18793 42.7591 4.29817 42.8495 4.42915 42.893L4.52187 42.925C5.11102 43.1554 5.79373 43.6744 5.50653 45.0388L3.26314 55.2781C2.67727 58.075 1.72872 58.6464 0.823652 58.7505H0.794933C0.677166 58.7645 0.566617 58.8146 0.478466 58.8939C0.390314 58.9732 0.328882 59.0777 0.302603 59.1933L0.0121279 60.5051C-0.00488305 60.5842 -0.00398858 60.666 0.0147458 60.7446C0.0334802 60.8233 0.0695801 60.8968 0.120401 60.9597C0.171223 61.0225 0.235479 61.0733 0.308462 61.1081C0.381446 61.143 0.46131 61.1611 0.542204 61.1611H10.4118C10.5272 61.161 10.6392 61.1222 10.7298 61.0508C10.8205 60.9794 10.8844 60.8796 10.9115 60.7676L11.2528 59.2326C11.2796 59.1116 11.2622 58.9849 11.2039 58.8755C11.1455 58.7661 11.05 58.6811 10.9344 58.6357L10.8705 58.6103C10.3707 58.4078 9.68883 57.9765 9.86286 57.1631L11.0116 51.9271C14.9462 59.1023 16.2451 61.1693 20.9657 61.1685H25.2252C25.3419 61.1686 25.4551 61.1289 25.5463 61.0559C25.6374 60.9831 25.701 60.8813 25.7265 60.7676L26.0253 59.4376C26.0434 59.3579 26.0437 59.275 26.026 59.195C26.0084 59.1152 25.9731 59.0401 25.9228 58.9755C25.8726 58.9108 25.8086 58.8581 25.7355 58.8212C25.6624 58.7843 25.582 58.7641 25.5 58.762C24.4334 58.7456 23.9106 58.4988 22.8505 57.1361L17.3816 49.7394L24.4891 43.836C25.4426 43.0906 26.6062 42.8816 27.2503 42.7955L27.3151 42.7889C27.425 42.7786 27.5288 42.7338 27.6117 42.6609C27.6945 42.5879 27.7521 42.4907 27.7763 42.383L28.0667 41.0712C28.0845 40.9947 28.0845 40.9153 28.0672 40.8388C28.0499 40.7623 28.0155 40.6908 27.9666 40.6294C27.9176 40.5681 27.8555 40.5186 27.7847 40.4846C27.714 40.4506 27.6364 40.4331 27.558 40.4332H19.0071C18.8797 40.4338 18.7564 40.4775 18.6571 40.5572C18.5579 40.6369 18.4886 40.7478 18.4605 40.8719ZM44.7576 46.5598H46.42C46.5378 46.5598 46.652 46.5197 46.7439 46.446C46.8358 46.3724 46.8998 46.2696 46.9254 46.1547L48.0561 41.0621C48.0726 40.9864 48.0718 40.9081 48.0539 40.8327C48.0361 40.7573 48.0016 40.6869 47.9529 40.6266C47.9043 40.5663 47.8429 40.5177 47.7729 40.4842C47.703 40.4507 47.6266 40.4333 47.5491 40.4332H30.064C29.935 40.4332 29.8099 40.4771 29.7093 40.5578C29.6088 40.6385 29.5388 40.751 29.5109 40.8768L29.2097 42.2371C29.1812 42.3658 29.2006 42.5006 29.2644 42.616C29.3282 42.7315 29.4318 42.8198 29.556 42.8643L29.6151 42.8848C30.1895 43.1046 30.992 43.6613 30.6424 45.0298L27.2151 60.5412C27.1983 60.6166 27.1988 60.6948 27.2163 60.7699C27.2338 60.8452 27.2681 60.9154 27.3164 60.9756C27.3647 61.0358 27.426 61.0844 27.4957 61.1178C27.5653 61.1512 27.6416 61.1685 27.7189 61.1685H35.5838C35.7014 61.1685 35.8155 61.1285 35.9072 61.055C35.999 60.9815 36.0629 60.879 36.0884 60.7642L36.4306 59.2154C36.4552 59.1047 36.4408 58.989 36.3898 58.8877C36.3389 58.7863 36.2544 58.7058 36.1508 58.6595L36.0745 58.6242C35.5756 58.3783 34.833 57.8175 35.0816 56.7319C35.1096 56.5859 35.8562 53.2241 35.8562 53.2241H42.5437C42.6623 53.224 42.7772 53.1832 42.8694 53.1086C42.9615 53.034 43.0252 52.9301 43.05 52.8142L43.6794 49.9822C43.6961 49.9062 43.6958 49.8274 43.678 49.7517C43.6603 49.6759 43.6258 49.6051 43.5771 49.5444C43.5284 49.4837 43.4666 49.4348 43.3964 49.4011C43.3262 49.3675 43.2493 49.35 43.1714 49.35H36.7137L37.9191 43.8565L42.4322 43.8507C43.8903 43.8507 44.3349 44.6116 44.2504 45.9096C44.2504 45.9096 44.2504 45.926 44.2431 45.9785C44.2348 46.0511 44.2419 46.1248 44.2639 46.1945C44.2859 46.2643 44.3223 46.3287 44.3709 46.3835C44.4194 46.4383 44.4788 46.4823 44.5454 46.5127C44.612 46.5431 44.6843 46.5591 44.7576 46.5598Z" fill="#E4002B"/>
<path d="M71.9996 43.1859C71.9899 43.6241 71.8089 44.041 71.4954 44.3475C71.1818 44.654 70.7606 44.8256 70.322 44.8256C69.8834 44.8256 69.4623 44.654 69.1487 44.3475C68.8351 44.041 68.6541 43.6241 68.6444 43.1859C68.6541 42.7477 68.8351 42.3308 69.1487 42.0243C69.4623 41.7178 69.8834 41.5462 70.322 41.5462C70.7606 41.5462 71.1818 41.7178 71.4954 42.0243C71.8089 42.3308 71.9899 42.7477 71.9996 43.1859ZM71.7535 43.1859C71.758 42.9954 71.7244 42.8059 71.6547 42.6286C71.5848 42.4512 71.4803 42.2896 71.3471 42.1533C71.2138 42.0169 71.0546 41.9086 70.8789 41.8346C70.7031 41.7606 70.5144 41.7225 70.3237 41.7225C70.133 41.7225 69.9442 41.7606 69.7685 41.8346C69.5927 41.9086 69.4336 42.0169 69.3003 42.1533C69.1671 42.2896 69.0625 42.4512 68.9927 42.6286C68.9229 42.8059 68.8893 42.9954 68.8938 43.1859C68.8893 43.3764 68.9229 43.5659 68.9927 43.7432C69.0625 43.9206 69.1671 44.0822 69.3003 44.2185C69.4336 44.3549 69.5927 44.4632 69.7685 44.5372C69.9442 44.6112 70.133 44.6493 70.3237 44.6493C70.5144 44.6493 70.7031 44.6112 70.8789 44.5372C71.0546 44.4632 71.2138 44.3549 71.3471 44.2185C71.4803 44.0822 71.5848 43.9206 71.6547 43.7432C71.7244 43.5659 71.758 43.3764 71.7535 43.1859ZM70.7688 43.9993C70.7252 43.9479 70.6968 43.8855 70.6867 43.8189L70.6285 43.5557C70.5793 43.3753 70.4882 43.3261 70.3003 43.3261H69.9581V43.9993H69.6775V42.3233H70.4012C70.782 42.3233 70.9797 42.4873 70.9797 42.7997C70.9815 42.9058 70.9426 43.0085 70.8711 43.0868C70.7995 43.1652 70.7007 43.2132 70.5949 43.2212C70.6687 43.227 70.7383 43.2575 70.7925 43.3078C70.8467 43.3581 70.8823 43.4252 70.8936 43.4983L70.9682 43.8025C70.9827 43.8759 71.0171 43.944 71.0675 43.9993H70.7688ZM70.3635 42.5447H69.9581V43.1039H70.3635C70.5866 43.1039 70.6917 43.0047 70.6917 42.8161C70.6917 42.6275 70.5866 42.5447 70.3635 42.5447Z" fill="#E4002B"/>
</g>
</g>
<defs>
<clipPath id="clip0_1_592">
<rect width="72" height="23" fill="white" transform="translate(0 39.5)"/>
</clipPath>
<clipPath id="clip1_1_592">
<rect width="72" height="21.7895" fill="white" transform="translate(0 40.1053)"/>
</clipPath>
</defs>
</svg>
