<svg width="24" height="33" viewBox="0 0 24 33" fill="none" xmlns="http://www.w3.org/2000/svg">
<g clip-path="url(#clip0_1_5)">
<g clip-path="url(#clip1_1_5)">
<g clip-path="url(#clip2_1_5)">
<path fill-rule="evenodd" clip-rule="evenodd" d="M7.26488 17.8636C10.6388 15.1128 14.3086 10.5893 13.7167 6.0047C13.3024 2.64263 10.5204 0.13636 7.26488 0.13636C3.89099 0.13636 1.10901 2.76489 0.81306 6.24921C0.398723 10.7727 3.95018 15.1739 7.26488 17.8636ZM7.26488 4.59874C8.56707 4.59874 9.63252 5.69906 9.63252 7.04389C9.63252 8.38871 8.56707 9.48902 7.26488 9.48902C5.96268 9.48902 4.89723 8.38871 4.89723 7.04389C4.89723 5.69906 5.96268 4.59874 7.26488 4.59874Z" fill="#E4002B"/>
</g>
</g>
</g>
<defs>
<clipPath id="clip0_1_5">
<rect width="13" height="33" fill="white" transform="translate(0.779968)"/>
</clipPath>
<clipPath id="clip1_1_5">
<rect width="13" height="18" fill="white" transform="translate(0.779968)"/>
</clipPath>
<clipPath id="clip2_1_5">
<rect width="13" height="17.7273" fill="white" transform="translate(0.779968 0.13636)"/>
</clipPath>
</defs>
</svg>
