<svg width="61" height="61" viewBox="0 0 61 61" fill="none" xmlns="http://www.w3.org/2000/svg">
<g clip-path="url(#clip0_1_363)">
<g clip-path="url(#clip1_1_363)">
<g clip-path="url(#clip2_1_363)">
<path d="M7.68511 59.3335C6.43988 59.3335 5.38967 58.361 5.29057 57.1209L1.04976 3.53616C0.997013 2.87126 1.2256 2.20796 1.67797 1.71769C2.13194 1.22583 2.77454 0.943848 3.44431 0.943848H56.8948C57.5629 0.943848 58.2071 1.22583 58.6595 1.71769C59.1119 2.20796 59.3405 2.87126 59.2877 3.53616L55.0469 57.1193C54.9478 58.361 53.8976 59.3319 52.6524 59.3319H7.68511V59.3335Z" fill="white"/>
<path d="M56.8933 0.583496H3.44118C2.67231 0.583496 1.9322 0.907135 1.4111 1.4727C0.891587 2.03667 0.627835 2.79931 0.688578 3.56515L4.92938 57.1483C5.04287 58.5758 6.25134 59.6941 7.68199 59.6941H52.6509C54.0815 59.6941 55.29 58.5758 55.4035 57.1483L59.6443 3.56515C59.705 2.79931 59.4413 2.03667 58.9217 1.4727C58.4006 0.907135 57.6621 0.583496 56.8933 0.583496ZM56.8933 1.30447C58.0841 1.30447 59.0225 2.32026 58.9297 3.50747L54.6889 57.0906C54.6042 58.1528 53.7186 58.9715 52.6525 58.9715H7.68359C6.61899 58.9715 5.73183 58.1528 5.64711 57.0906L1.4063 3.50747C1.31199 2.32026 2.2503 1.30447 3.44118 1.30447H56.8933Z" fill="#0F1822"/>
<path d="M23.3391 27.3525C23.3567 28.0912 23.7835 30.0442 26.258 31.8963C27.289 32.6686 27.7621 33.0162 27.898 33.1108V33.1172C27.9667 33.1652 27.532 33.154 27.4137 33.1652C27.2203 33.1845 26.5601 33.1236 26.0326 33.2213C25.5562 33.3094 25.6202 33.4248 25.5738 33.7693C25.537 34.0432 25.5722 34.4774 25.5578 34.8475C25.5434 35.2176 25.5227 35.4804 25.6793 35.6582C25.8328 35.8345 25.9303 35.8617 26.5841 35.8216C27.2059 35.7832 28.9274 35.7816 29.1352 35.7399C29.4022 35.6855 29.359 35.7816 29.2056 36.1116C28.9418 36.6772 28.085 39.2711 26.7519 41.7353C26.5649 42.0813 27.0908 41.9179 27.5384 42.1342C28.3488 42.5267 28.3216 42.6357 28.5358 42.2271C28.766 41.7833 29.9361 39.0244 30.1167 38.1736C30.1407 38.0631 30.1871 37.967 30.2062 38.1336C30.219 38.2537 30.2366 41.7401 30.1391 42.8392C30.1343 42.8968 30.1487 42.9577 30.1887 42.9994C30.2478 43.0603 30.3357 43.0843 30.4108 43.1019H30.4124C30.8153 42.9673 31.3028 42.868 31.7168 42.9369C31.7536 42.9321 31.7888 42.9241 31.8223 42.9145C31.8447 42.8952 31.8639 42.8744 31.8783 42.8472C31.9102 42.7895 31.9278 42.7222 31.9422 42.6581C31.9438 42.6533 31.9438 42.6485 31.9454 42.6437C31.9662 42.5508 31.9822 42.4578 31.9918 42.3633C31.9982 42.3072 32.0014 42.2512 32.0045 42.1951C32.0093 42.123 32.0125 42.0493 32.0141 41.9772C32.0173 41.8891 32.0189 41.8026 32.0205 41.7144C32.0221 41.6135 32.0221 41.5126 32.0221 41.41C32.0221 41.2979 32.0205 41.1841 32.0189 41.0704C32.0173 40.947 32.0141 40.9887 32.0109 40.8653C32.0077 40.7339 32.0029 40.6009 31.9966 40.4696C31.9902 40.3302 31.9838 40.1908 31.9758 40.0514C31.9678 39.9072 31.9582 39.7614 31.9486 39.6172C31.9374 39.4682 31.9262 39.3192 31.9134 39.1718C31.9006 39.0212 31.8863 38.8706 31.8703 38.7184C31.8543 38.5662 31.8367 38.4156 31.8175 38.2634C31.7983 38.1128 31.7776 37.9621 31.7568 37.8115C31.7344 37.6625 31.712 37.5151 31.6848 37.3661C31.6593 37.2219 31.6321 37.1595 31.6033 37.0153C31.5746 36.8759 31.5442 36.7381 31.5106 36.6003C31.4786 36.4689 31.4435 36.3375 31.4067 36.2062C31.3763 36.102 31.3444 35.9995 31.3108 35.8969C31.3044 35.8809 31.2772 35.7399 31.2804 35.7207C31.2916 35.6694 31.3556 35.7063 31.4243 35.6935C31.4243 35.6935 31.4579 35.6871 31.4754 35.6839C31.9182 35.6246 32.6887 35.6646 32.8629 35.671C33.034 35.6758 33.91 35.7592 34.1577 35.7832C34.4023 35.8072 34.6996 35.8633 34.6868 35.1183C34.6836 34.9196 34.682 34.8011 34.6836 34.6152C34.6836 34.5896 34.6836 34.5639 34.6836 34.5399C34.6836 34.4934 34.6852 34.447 34.6852 34.4021C34.6852 34.3749 34.6852 34.3492 34.6868 34.3236C34.6868 34.298 34.6868 34.2723 34.6884 34.2483C34.6884 34.2259 34.69 34.2018 34.69 34.181C34.6916 34.141 34.6916 34.1025 34.6932 34.0673C34.6932 34.056 34.6932 34.0464 34.6948 34.0352C34.6948 34.008 34.6964 33.9839 34.698 33.9615C34.698 33.9503 34.6996 33.9391 34.6996 33.9279C34.7012 33.907 34.7012 33.8894 34.7028 33.8734C34.7028 33.8686 34.7028 33.8606 34.7044 33.8574C34.706 33.8349 34.7076 33.8109 34.7092 33.7837C34.7156 33.6026 34.6916 33.2694 34.3479 33.1797C33.9515 33.0803 33.2562 33.0563 32.6312 33.1108C32.5432 33.1188 32.5241 33.1108 32.5512 33.0867V33.0803C32.6855 32.9842 33.5903 32.4827 34.6229 31.5567C35.7594 30.5345 36.3029 29.9913 36.6498 29.2511C36.6498 29.2511 37.895 26.8318 37.8311 24.7827C37.8183 24.3693 37.8854 24.4029 38.1412 24.411C38.2179 24.4126 38.512 24.3917 38.6703 24.2876C39.1978 24.1674 39.6645 22.3602 39.6645 22.3602C39.6645 22.3602 40.4574 19.6173 40.6492 18.4957C40.8202 17.4976 40.7803 16.9144 40.1729 16.618L40.0706 16.5603C40.0242 16.5347 40.0018 16.4802 40.0162 16.4305C40.0274 16.3889 40.0402 16.3376 40.0466 16.3008C40.3439 15.2673 40.8746 13.9584 40.7531 13.4281C40.7323 13.2758 40.6029 13.2262 40.5581 13.1957C40.4958 13.1541 40.2608 12.8913 40.1952 12.7055C40.1856 12.6782 40.1824 12.651 40.1793 12.6222C40.0114 10.6707 39.3193 8.22102 37.2588 6.08852C37.2556 6.08692 37.1165 5.95875 37.0318 5.88184C36.856 5.72323 36.629 5.52456 36.37 5.32909C35.8218 4.91733 35.3838 4.60171 34.4806 4.14989C34.4103 4.11625 33.7325 3.80703 32.7319 3.56029C32.6376 3.53466 32.5432 3.51062 32.4489 3.48819C32.3019 3.45295 32.0717 3.41129 31.8095 3.37444C31.1925 3.27671 30.5068 3.22544 29.7938 3.2703C29.7091 3.27511 29.61 3.27991 29.5828 3.27991C29.5397 3.27991 29.4949 3.28312 29.4518 3.28472C29.4038 3.28632 29.3558 3.28792 29.3063 3.28952C29.156 3.29754 28.9562 3.31997 28.7484 3.34881C28.4111 3.39847 28.0499 3.46576 27.8277 3.51703C27.5783 3.57792 27.2426 3.64841 26.8222 3.76857C26.6496 3.81984 26.4754 3.87272 26.3027 3.92879C26.2548 3.94481 26.2052 3.95923 26.1573 3.97526C25.9702 4.03614 25.7832 4.10022 25.593 4.16912C25.4555 4.21718 24.8721 4.47033 24.7442 4.52961C24.6834 4.55845 24.5987 4.59369 24.5092 4.63054C24.0968 4.76192 24.0105 5.00065 23.9961 5.13042C23.9865 5.21534 23.9673 5.29865 23.9321 5.37556C23.3391 6.63967 21.9436 6.76144 21.3889 6.79028C21.2435 6.79668 21.1156 6.81911 21.162 6.96011C21.2802 7.3222 21.9324 7.99992 22.3321 8.12329C22.3257 8.18096 21.99 8.25466 21.9196 8.27229C21.7582 8.31394 21.098 8.25626 21.0644 8.26267C21.0613 8.26267 21.0597 8.26267 21.0565 8.26428C20.3068 8.32676 20.0766 8.83946 20.0094 9.08138C19.9887 9.15669 19.9999 9.2384 20.043 9.30248C20.2077 9.55563 20.3835 9.76071 20.5146 10.0956C20.5162 10.0988 20.5178 10.1036 20.5194 10.1068C20.5529 10.1949 20.5849 10.291 20.6121 10.4C20.6281 10.5426 20.7416 10.6915 20.5977 10.9719C20.3419 11.4686 19.7025 11.624 19.6066 12.1175C19.4708 12.8192 19.7121 13.2791 19.9775 14.439C20.1597 15.2337 20.3547 16.0556 20.4954 16.4289C20.5034 16.4482 20.4906 16.469 20.4714 16.4722C20.4155 16.4834 20.318 16.5026 20.2844 16.5138C19.9135 16.6612 19.7968 16.9544 19.7553 17.5248C19.6626 18.7889 20.5929 20.7388 20.8822 22.4082C20.9797 22.9722 21.2387 23.8758 21.6703 24.2443C21.7694 24.3292 21.9772 24.3837 22.1067 24.4062C22.444 24.4654 22.5894 24.2507 22.6086 24.5904C22.6134 24.6609 22.6374 24.8516 22.639 24.9589C22.6981 26.1621 23.3391 27.3525 23.3391 27.3525ZM23.9194 7.27573C23.9929 7.16198 24.1703 6.99535 24.3494 6.86718C24.5364 6.7342 25.4523 6.04526 26.3043 5.78411C26.4626 5.73765 26.5025 5.71361 26.6032 5.68958C26.7311 5.65594 26.8398 5.38036 26.5729 5.34031C26.2931 5.30025 26.1796 5.31788 26.031 5.32268C25.8823 5.32589 25.8104 5.24578 25.9191 5.12882C26.0294 5.01026 26.226 4.8901 26.5729 4.75071C27.3305 4.4479 28.6749 4.28608 29.3015 4.23C30.1199 4.15951 30.219 4.16271 30.7497 4.20276C31.2485 4.24122 31.6385 4.33414 31.8239 4.36619C32.7622 4.53602 33.8444 4.97181 34.8051 5.50053C35.3118 5.80173 35.7994 6.13659 36.2533 6.49227C37.6313 7.56893 39.2122 9.61491 38.982 13.9263C38.9548 14.4358 38.8941 14.7178 38.8605 14.8412C38.8253 14.9661 38.6607 15.1792 38.5744 14.8972C38.2898 13.9744 37.9238 12.3482 37.091 11.0648C36.9759 10.8854 36.7968 10.903 36.8144 11.0905C36.8208 11.169 36.8592 11.9909 36.84 12.1511C36.7057 13.2102 37.0286 12.7984 37.505 13.9343C37.652 14.2852 37.8423 14.9806 37.8902 15.4292C37.903 15.5413 37.9174 15.6727 37.9206 15.7977C37.9238 15.9563 37.8454 15.9659 37.8454 15.9659C37.5194 15.9643 36.9503 15.8089 36.6434 15.7993C36.2949 15.7881 33.8716 15.764 32.962 15.8361C32.0509 15.9066 31.5554 16.2351 31.0391 16.658C30.9527 16.7285 30.8313 16.7942 30.7625 16.8279C30.7273 16.8455 30.689 16.8503 30.6522 16.8439C30.6107 16.8359 30.5419 16.8231 30.4348 16.8006C30.2126 16.7542 29.9441 16.7365 29.7267 16.8038C29.5093 16.8695 29.407 16.9256 29.172 16.7894C28.8379 16.594 28.3248 15.8121 26.5377 15.7977C25.5243 15.7897 24.1959 15.7752 23.4126 15.8105C23.1601 15.8217 23.0274 15.8505 22.9635 15.8489C22.9587 15.8185 22.9571 15.7784 22.9571 15.7704C22.9443 14.3397 23.8762 14.6569 23.9817 14.2852C24.2487 13.3576 24.311 11.1289 25.9255 9.7591C26.6975 9.10542 27.0988 9.07818 27.8165 9.07818C28.5886 9.07818 29.3415 9.28005 29.7267 9.47071C30.032 9.62292 30.1839 9.72386 30.3038 9.63414C30.4236 9.54281 30.7449 9.25122 30.8776 9.15028C31.0103 9.04774 30.9607 8.88912 30.8345 8.78498C30.713 8.68725 29.5684 7.24209 27.8117 6.95049C27.4089 6.8832 27.1116 6.82232 26.7471 6.82072C26.5489 6.81271 26.3747 6.81271 25.9143 6.86878C25.2413 6.95049 24.3637 7.3254 23.7979 7.55131C23.7659 7.51766 23.8842 7.327 23.9194 7.27573ZM37.7559 16.5747C37.684 16.6532 37.6185 16.6068 37.4698 16.6436C37.3531 16.6725 37.2748 16.7381 37.1677 16.7285C36.9982 16.7125 36.9135 16.509 37.0046 16.3761C37.1453 16.171 37.3435 16.3488 37.5034 16.3777C37.5817 16.3921 37.6376 16.368 37.716 16.3969C37.7943 16.4241 37.8055 16.4978 37.7559 16.5747ZM35.3502 17.2957C35.3502 17.2957 35.0305 17.0762 34.9282 16.8984C34.877 16.8102 34.8898 16.7365 35.0241 16.7349C35.5037 16.7301 35.9432 16.7189 36.1574 16.8984C36.3125 17.0297 36.3173 17.3037 36.2406 17.4816C36.1526 17.6834 35.9768 17.6258 35.8761 17.6113C35.777 17.5969 35.3502 17.2957 35.3502 17.2957ZM35.5612 18.1545C35.4701 18.2009 35.128 18.0856 35.0337 18.0327C34.8451 17.927 34.7092 17.8517 34.455 17.6338C34.2856 17.4912 33.9787 17.4239 33.6862 17.4367C33.4624 17.4479 33.2402 17.496 33.0691 17.536C32.8997 17.5777 32.8869 17.4223 32.9381 17.3646C32.9892 17.3069 33.2258 17.089 33.7437 16.9528C33.8188 16.9336 33.9643 16.94 34.0378 16.948C34.2536 16.9721 34.5126 17.1163 34.698 17.2973C34.8834 17.48 35.2591 17.8004 35.4637 17.9254C35.5612 17.9814 35.777 18.0439 35.5612 18.1545ZM28.165 21.7594C28.2193 21.8587 28.2369 22.0253 28.2209 22.0942C28.2049 22.1791 27.9092 22.2897 27.6614 21.9196C27.4153 21.5527 27.5304 21.1009 27.6774 20.923C27.9092 20.6378 28.2641 20.8445 28.2129 20.9503C28.0355 21.3172 28.1154 21.66 28.165 21.7594ZM24.749 17.653C24.8081 17.6049 24.8337 17.6049 25.0319 17.496C25.1726 17.4175 25.334 17.3213 25.4971 17.2156C25.7912 17.0233 26.3491 16.8247 26.5872 16.8279C26.7583 16.8295 27.0572 16.9048 27.2171 17.0778C27.3833 17.2589 27.4281 17.4703 27.2123 17.4335C26.9981 17.3966 26.7695 17.339 26.3555 17.4335C25.8935 17.5392 25.5786 17.7171 25.3548 17.8164C25.1262 17.9222 24.896 17.9478 24.8193 17.9446C24.7458 17.9382 24.5348 17.826 24.749 17.653ZM24.4453 17.238C24.2247 17.3774 24.0105 17.5392 23.8458 17.6466C23.646 17.7796 23.3647 17.653 23.4462 17.371C23.4862 17.2348 23.6796 16.8839 24.0057 16.8215C24.0488 16.8134 24.2103 16.7814 24.3446 16.7654C24.5028 16.7478 24.6707 16.7349 24.7554 16.7301C24.9856 16.7205 25.0111 16.9048 24.8545 17.0009C24.7522 17.0666 24.5907 17.1451 24.4453 17.238ZM20.7655 12.627C20.9574 12.1047 21.3074 11.6609 21.5472 11.3452C21.7662 11.0584 21.6623 10.6787 21.5504 10.3391C21.4785 10.0267 21.277 9.70303 21.2467 9.61651C21.2243 9.55723 21.2243 9.50756 21.2435 9.46591C21.2579 9.45629 21.2691 9.44828 21.285 9.43867L21.7086 9.40182C22.9187 9.24641 23.9865 8.82023 24.3078 8.63918C24.466 8.54946 24.6355 8.48057 24.8065 8.42129C25.0079 8.3524 25.2173 8.2835 25.4267 8.25626C25.585 8.23063 25.772 8.205 25.9335 8.18737C26.1732 8.16013 26.5505 8.32836 26.4674 8.37803C26.2644 8.4998 25.3244 8.71769 24.498 9.70783C23.9913 10.3135 23.873 10.6883 23.702 10.9671C23.5293 11.2475 23.3903 11.3132 23.1473 11.5247C23.029 11.6272 22.786 11.8387 22.6677 12.1784C22.5479 12.5212 22.0859 13.7148 22.0251 15.6102C22.0188 15.8297 21.9804 16.062 21.7726 16.1421H21.771C21.5999 16.211 21.4625 16.3248 21.4321 16.2014C21.3218 15.7849 21.0676 14.8876 20.9621 14.3189C20.9286 14.1394 20.8886 13.9616 20.8471 13.7853C20.7272 13.3031 20.6744 12.8721 20.7655 12.627ZM21.7822 21.6023C21.4369 21.3716 21.4561 21.0704 21.3682 20.774C21.1811 20.1444 20.9813 19.3865 20.8087 18.7409C20.7032 18.3515 20.6776 17.4367 21.2051 17.4367C21.4705 17.4367 21.6703 17.52 21.755 17.7715C21.9436 18.3307 21.5872 18.233 21.6799 18.8931C21.7454 19.3609 21.8333 19.8207 21.9804 20.6138C22.0475 20.9791 22.1674 21.8587 21.8461 21.6456L21.7822 21.6023ZM23.1089 16.7189C23.0018 16.7301 22.9107 16.6644 22.7924 16.6388C22.6566 16.6084 22.5734 16.65 22.5175 16.5763C22.4679 16.4994 22.4775 16.4257 22.5542 16.3969C22.6326 16.368 22.6885 16.3889 22.7668 16.3745C22.9267 16.344 23.1217 16.1614 23.2656 16.3648C23.3583 16.4946 23.2784 16.6997 23.1089 16.7189ZM23.3583 20.5673C23.3103 20.3607 23.4014 20.0514 23.889 20.3639C23.9673 20.4135 24.1959 20.5177 24.4485 20.5914C24.6019 20.6362 24.7026 20.5705 24.7458 20.4584C24.7905 20.3478 24.9168 20.1251 24.701 20.0194C24.4852 19.9121 23.9529 19.8191 23.6492 19.0677C23.5949 18.9331 23.6876 18.7793 23.7723 18.7393C23.8586 18.7008 23.9657 18.72 24.0648 18.8146C24.1639 18.9075 24.3765 19.1126 24.5668 19.1206C24.7426 19.1286 24.7714 19.0581 24.8065 19.0164C24.9536 18.8514 25.3756 18.2314 26.2516 18.3387C26.6128 18.3836 26.9453 18.4637 27.0668 18.4733C27.1531 18.4797 27.3945 18.4893 27.6231 18.4461C27.8852 18.3964 28.2769 18.3147 28.085 18.5374C27.93 18.7168 27.7989 18.7921 27.9364 18.9876C27.9428 18.9972 27.9508 19.0068 27.9572 19.0164C28.0802 19.1895 28.0834 19.4218 27.9588 19.5932L27.9444 19.6157C27.751 19.8672 27.3513 20.1572 26.5233 20.2101C26.1461 20.2341 26.1221 20.2197 26.1141 20.436C26.1109 20.5193 26.1125 20.5625 26.1237 20.6218C26.1461 20.7308 26.2164 20.7756 26.477 20.7916C26.6672 20.8029 27.014 20.766 27.014 20.766C27.0988 20.7404 27.1995 20.7949 27.1451 20.8653C27.1371 20.8766 27.102 20.9278 27.0956 20.9358C26.9085 21.1794 26.8494 21.4005 26.8318 21.5335C26.8174 21.6456 26.7519 21.7465 26.6528 21.7978L26.6496 21.7994C26.5281 21.8619 26.0406 21.9676 25.6569 22.2849C25.2749 22.6021 24.4756 22.8649 24.132 22.4739C23.7867 22.0878 23.507 21.2162 23.3583 20.5673ZM26.9549 29.7382C26.2707 29.759 24.4804 28.6759 23.7004 25.6046C23.4974 24.8147 23.9945 24.1722 24.303 24.0633C24.4852 23.996 24.5811 23.9752 24.6419 23.9672C24.7058 23.9591 25.0175 23.9607 25.0063 24.3132C24.9951 24.5984 25.2317 26.9824 25.8535 27.8444C26.007 28.0575 26.1493 28.0655 26.2212 27.8781C26.2867 27.7018 26.3938 27.4759 26.429 27.3894C26.4546 27.3269 26.68 26.9808 26.7471 27.2436C26.8894 27.8012 27.2235 28.9499 27.3625 29.2463C27.5943 29.7382 27.2123 29.7302 26.9549 29.7382ZM27.3849 24.7586C26.4913 24.7474 26.0773 24.4142 26.0134 24.3132C25.9526 24.2171 26.055 24.1418 26.1477 24.1114C26.3587 24.0441 26.7343 23.855 26.8862 23.738C27.0396 23.6243 27.46 23.3615 27.6726 23.2237C27.7733 23.1581 28.3472 22.9081 28.6829 23.142C29.1864 23.4945 29.658 23.73 30.5211 23.6772C31.0758 23.6435 31.063 23.1949 31.5154 23.0523C31.923 22.9241 32.0014 22.8232 32.1292 22.7479C32.2939 22.7143 32.4154 22.6726 32.5944 22.8408C32.8214 23.0523 32.9029 23.2189 33.1651 23.5153C33.5247 23.9207 33.9195 24.1114 34.0426 24.1354C34.1641 24.161 34.252 24.2604 34.2536 24.3004C34.2552 24.3405 34.2041 24.467 33.8428 24.5712C32.6344 24.9188 31.3268 24.6961 30.6538 24.4254C30.3117 24.2892 29.9793 24.2507 29.6052 24.435C29.2264 24.6224 28.2193 24.7682 27.3849 24.7586ZM31.9006 25.5052C31.6944 25.5805 31.0998 25.7199 30.8121 25.7376C30.5211 25.7536 29.6004 25.8161 29.447 25.8097C29.2567 25.7984 29.001 25.7055 28.7932 25.5149C28.7516 25.4764 28.7053 25.3434 28.8763 25.3402C29.1928 25.3338 29.7251 25.1656 31.5618 25.321C31.7584 25.337 31.8511 25.345 31.8974 25.3498C31.9438 25.3546 32.1053 25.4331 31.9006 25.5052ZM39.7477 18.3884C39.5063 19.6781 39.2361 20.3238 39.0619 21.1201C38.8813 21.9468 38.5264 23.1565 38.1827 23.1869C37.8343 23.291 37.6952 22.8889 37.4714 23.1869C37.3387 23.3647 37.2348 23.5987 37.1165 23.7509C37.0414 23.8502 36.9663 24.0713 36.9647 24.1915C36.9647 24.4238 36.9519 25.1752 36.7441 26.1621C36.4308 27.649 35.8617 28.7336 35.2703 29.4178C34.1369 30.7267 33.0755 30.9382 32.9493 31.0055C32.7862 31.092 32.5416 31.0408 32.4601 31.0023C32.3786 30.9655 32.3163 30.8677 32.1756 30.7299C32.0317 30.5954 31.9806 30.8004 31.9758 30.8533C31.9694 30.903 32.0493 31.5214 31.8911 31.8018C31.5522 32.4042 31.2245 32.4571 31.0423 33.2085C30.9815 33.4616 31.0231 33.8446 30.721 33.6715C29.9825 33.2486 28.9242 32.103 28.7037 30.9927C28.6365 30.6546 28.6989 30.2781 28.9051 29.634C29.0234 29.2559 29.1081 28.8362 29.1081 28.5942C29.1081 28.1649 28.9402 27.8012 29.1081 27.7643C29.4182 27.6954 29.5589 28.4997 29.7043 28.4164C29.9553 28.2722 29.7683 27.4214 29.7683 27.4214C29.7683 27.4214 29.666 27.1795 29.2264 27.077C28.9738 27.0177 28.8939 26.8286 29.164 26.6957C29.3654 26.5963 29.5988 26.4665 29.8722 26.5066C31.6944 26.7662 32.2187 26.3977 32.9541 26.199C33.0995 26.1605 33.1842 26.1429 33.2977 26.1974C33.4096 26.2503 33.7133 26.4153 33.7741 26.5707C33.8364 26.7245 33.7725 27.3317 33.8684 27.7867C33.9675 28.245 34.2872 27.8284 34.3671 27.6473C34.4486 27.4679 34.5302 27.0241 34.5478 26.912C34.5653 26.7998 34.6596 26.3288 34.8275 26.1878C35.1616 25.9106 35.2783 25.5453 35.3326 25.4027C35.3886 25.2601 35.4749 24.8195 35.4589 24.1754C35.4429 23.533 35.3278 23.4641 35.1728 23.3247C35.0193 23.1869 34.8355 23.2141 34.4454 22.8552C34.097 22.5348 33.8108 22.0173 33.5599 21.6921C33.3073 21.3668 32.8885 21.0192 32.4106 20.9022C31.9342 20.7868 32.1324 21.2274 32.158 21.3508C32.1772 21.4373 32.2907 21.8283 32.1308 21.9564C31.9758 22.0846 31.0119 22.7335 30.1535 22.5092C29.1305 22.2416 28.7772 21.6696 28.7548 21.1185C28.7404 20.7276 28.9274 20.351 29.1592 19.9024C29.2951 19.6413 29.351 19.2039 29.4054 18.7841C29.4486 18.4493 29.5381 17.9638 29.6116 17.7908C29.6644 17.6658 29.7874 17.5312 30.0656 17.5472C30.3405 17.5633 30.5195 17.6994 30.5707 17.9366C30.7481 18.7617 31.0391 18.97 31.1366 19.0373C31.2357 19.1046 31.4211 18.97 31.4946 18.9219C31.5682 18.8738 31.7536 18.6848 31.696 18.5839C31.6065 18.4268 31.5586 18.3323 31.5378 18.241C31.5042 18.084 31.6992 18.1032 31.7392 18.1352C32.0605 18.3884 32.3626 18.4108 32.9173 18.5037C33.8876 18.6656 34.0266 18.3083 34.6916 18.4236C34.7779 18.4381 34.9426 18.5118 34.9953 18.6111C35.0401 18.6976 35.12 18.8947 35.2015 18.9283C35.2831 18.9604 35.4797 18.9716 35.582 18.9908C35.7226 19.0148 35.9752 18.9988 35.9336 19.26C35.825 19.9601 35.0193 20.1524 34.6421 20.2181C34.487 20.2453 34.4151 20.2581 34.3895 20.2806C34.308 20.3527 34.3048 20.5721 34.3991 20.7131C34.4662 20.8125 34.7699 20.8189 35.1872 20.7388C35.6219 20.6555 36.0391 20.4456 36.37 19.9297C36.7201 19.3833 36.9119 18.1817 36.9519 17.9574C36.9919 17.7331 37.0814 17.3582 37.2045 17.2813C37.3259 17.2044 37.8934 17.0313 37.9733 17.0458C38.0692 17.0618 38.138 17.1082 38.1827 17.3277C38.2275 17.5504 38.1444 18.8738 38.1428 19.0741C38.1396 19.2872 38.2499 19.2856 38.3106 19.2568C38.4433 19.1959 38.7966 18.9604 38.8765 18.6864C38.9356 18.4845 38.7662 18.1897 38.8509 17.9093C38.9836 17.4735 39.1147 17.3566 39.2058 17.3662C39.7588 17.4191 39.8723 17.6626 39.7413 18.3676L39.7477 18.3884ZM47.4604 45.4315C47.6218 45.4763 47.7194 45.6398 47.6826 45.8032L47.1119 48.3795C47.0847 48.5029 46.976 48.5894 46.8514 48.5894H46.0393C45.8859 48.5894 45.7644 48.4596 45.7724 48.3074C45.774 48.2737 45.774 48.2593 45.774 48.2593C45.8123 47.4198 45.2832 46.7917 44.086 46.7917C42.0942 46.7917 40.646 48.4292 40.4574 50.5809C40.2608 52.8031 41.8097 54.0928 43.9549 54.0928C45.0547 54.0928 45.9242 53.8798 46.4134 53.7259C46.6068 53.6651 46.7954 53.8333 46.7587 54.0336L46.5061 55.365C46.4853 55.4787 46.4022 55.5716 46.2935 55.6069C45.8539 55.7479 44.6199 56.0763 42.7304 56.0763C38.2435 56.0763 36.4228 53.4904 36.7041 50.8516C36.9551 48.5029 38.5056 45.0438 44.6183 45.0422C45.7868 45.0406 46.7235 45.228 47.4604 45.4315ZM22.1674 45.4363C22.1962 45.3033 22.3145 45.2088 22.4503 45.2088H26.859C27.03 45.2088 27.1579 45.3674 27.1211 45.5356L26.9709 46.2149C26.9453 46.3303 26.8494 46.412 26.7327 46.4248C26.7119 46.4264 26.6991 46.428 26.6991 46.428C26.3667 46.4729 25.7672 46.5802 25.2749 46.9664L21.6095 50.0201V50.0217L24.4293 53.8477C24.976 54.5527 25.2461 54.6792 25.7944 54.6888C25.975 54.6921 26.1045 54.8619 26.0645 55.0381L25.9111 55.7255C25.8839 55.8472 25.7768 55.9337 25.6521 55.9337H23.4606C21.0293 55.9337 20.3563 54.8651 18.331 51.1529H18.3294L17.738 53.8605C17.6485 54.2819 18.0001 54.5046 18.2575 54.6087C18.2687 54.6135 18.2799 54.6184 18.2911 54.6216C18.4141 54.6696 18.4845 54.801 18.4557 54.9308L18.2799 55.7239C18.2527 55.8456 18.1456 55.9321 18.0209 55.9321H12.9297C12.7507 55.9321 12.618 55.7655 12.6564 55.5909L12.8066 54.9116C12.8338 54.7882 12.9361 54.6969 13.0608 54.6824C13.0656 54.6824 13.0704 54.6808 13.0752 54.6808C13.5419 54.6264 14.0311 54.3316 14.3332 52.8848L15.4873 47.5896C15.636 46.8847 15.2843 46.6155 14.9806 46.4969C14.9774 46.4953 14.9598 46.4889 14.9326 46.4809C14.7936 46.4328 14.712 46.2886 14.744 46.1445L14.9007 45.4363C14.9294 45.3033 15.0493 45.2072 15.1852 45.2072H20.0254C20.1949 45.2072 20.3211 45.3642 20.2844 45.5308L20.1309 46.2294C20.1085 46.3319 20.0334 46.4136 19.9327 46.4441C19.9199 46.4473 19.9087 46.4521 19.8959 46.4553C19.669 46.529 19.3109 46.7148 19.2006 47.1682L18.5564 50.1146L18.558 50.1162L22.3129 46.9888C22.5383 46.8029 22.4807 46.5546 22.2218 46.4537H22.2202C22.0731 46.4088 21.9852 46.2582 22.0188 46.1092L22.1674 45.4363ZM35.7274 48.3779C35.5676 48.3779 35.4429 48.2385 35.4605 48.0783C35.4637 48.051 35.4637 48.043 35.4637 48.043C35.5069 47.3717 35.2783 46.9792 34.527 46.9792L32.2012 46.9824L31.5793 49.823H34.909C35.0801 49.823 35.2079 49.9817 35.1712 50.1499L34.8467 51.6143C34.8195 51.7376 34.7108 51.8242 34.5861 51.8242H31.1382C31.1382 51.8242 30.7545 53.5641 30.7417 53.6394C30.6139 54.2018 30.9959 54.4934 31.2533 54.6184C31.266 54.6248 31.2788 54.6312 31.2932 54.636C31.4035 54.6856 31.4643 54.8058 31.4371 54.9228L31.2596 55.7239C31.2325 55.8456 31.1238 55.9337 30.9991 55.9337H26.9437C26.7743 55.9337 26.6464 55.7751 26.6832 55.6101L28.4495 47.5896C28.6301 46.8815 28.2161 46.5947 27.9188 46.4809C27.9092 46.4777 27.898 46.4729 27.8884 46.4697C27.7557 46.4232 27.679 46.2838 27.7094 46.1461L27.866 45.4395C27.8964 45.3049 28.0147 45.2104 28.1506 45.2104H37.1661C37.3371 45.2104 37.465 45.369 37.4266 45.5372L36.8432 48.1712C36.816 48.293 36.7073 48.3811 36.5826 48.3811H35.7274" fill="#0F1822"/>
<path d="M15.7825 2.83008H3.94728C3.36863 2.83008 2.91466 3.32355 2.95941 3.90193L5.98856 42.1459H15.7825V2.83008Z" fill="#EA0029"/>
<path d="M56.3854 2.82959H44.5501V42.1453H54.3441L57.3733 3.90145C57.418 3.32466 56.9624 2.82959 56.3854 2.82959Z" fill="#EA0029"/>
<path d="M57.684 57.7782V55.8764H57.0814V55.6377H58.5456V55.8764H57.9525V57.7782H57.684ZM59.8276 57.1197L59.34 56.0975V57.7798H59.0907V55.6393H59.3592L59.8851 56.748L60.411 55.6393H60.6796V57.7798H60.4398V56.0975L59.9331 57.1197H59.8276Z" fill="white"/>
</g>
</g>
</g>
<defs>
<clipPath id="clip0_1_363">
<rect x="0.679993" y="0.583496" width="60" height="60" rx="3" fill="white"/>
</clipPath>
<clipPath id="clip1_1_363">
<rect width="60" height="60" fill="white" transform="translate(0.679993 0.583496)"/>
</clipPath>
<clipPath id="clip2_1_363">
<rect width="60" height="60" fill="white" transform="translate(0.679993 0.583496)"/>
</clipPath>
</defs>
</svg>
