<svg width="31" height="31" viewBox="0 0 31 31" fill="none" xmlns="http://www.w3.org/2000/svg">
<g clip-path="url(#clip0_1_570)">
<g clip-path="url(#clip1_1_570)">
<g clip-path="url(#clip2_1_570)">
<path d="M15.0341 29.9502C22.9041 29.9502 29.2841 23.5703 29.2841 15.7002C29.2841 7.83014 22.9041 1.4502 15.0341 1.4502C7.164 1.4502 0.784058 7.83014 0.784058 15.7002C0.784058 23.5703 7.164 29.9502 15.0341 29.9502Z" fill="#202124" stroke="#494949" stroke-width="1.5"/>
<path d="M21.0059 18.9589C18.8763 17.928 18.5369 16.3363 18.5218 16.2183C18.5035 16.0753 18.4828 15.9628 18.6406 15.8174C18.7927 15.6768 19.4677 15.2591 19.6549 15.1284C19.9645 14.9119 20.1008 14.6958 20.0003 14.4302C19.93 14.2464 19.7589 14.1772 19.5787 14.1772C19.5218 14.1774 19.4652 14.1838 19.4097 14.1962C19.0696 14.27 18.7393 14.4404 18.5481 14.4864C18.5252 14.4923 18.5016 14.4955 18.4779 14.4959C18.376 14.4959 18.3373 14.4506 18.3472 14.328C18.3711 13.9562 18.4217 13.2307 18.363 12.5529C18.2825 11.6204 17.9818 11.1583 17.6251 10.7497C17.4526 10.5515 16.6515 9.7002 15.1055 9.7002C13.5595 9.7002 12.7595 10.5515 12.588 10.7473C12.2303 11.1559 11.9299 11.6179 11.8502 12.5504C11.7915 13.2282 11.8442 13.9534 11.866 14.3255C11.873 14.4422 11.8372 14.4935 11.7353 14.4935C11.7116 14.493 11.688 14.4899 11.665 14.484C11.4742 14.4379 11.1439 14.2675 10.8038 14.1937C10.7483 14.1813 10.6917 14.1749 10.6348 14.1748C10.4539 14.1748 10.2835 14.245 10.2132 14.4277C10.1127 14.6934 10.2483 14.9095 10.5589 15.1259C10.7462 15.2566 11.4212 15.674 11.5733 15.8149C11.7307 15.9604 11.7103 16.0728 11.6921 16.2158C11.6769 16.3356 11.3372 17.9273 9.2079 18.9564C9.08317 19.0169 8.87095 19.1448 9.24515 19.3514C9.83262 19.676 10.2237 19.6412 10.5276 19.8369C10.7855 20.0031 10.6331 20.3615 10.8207 20.4908C11.0512 20.65 11.7325 20.4796 12.6126 20.7701C13.3505 21.0133 13.7988 21.7002 15.1073 21.7002C16.4157 21.7002 16.8771 21.0101 17.6019 20.7701C18.4803 20.4796 19.163 20.65 19.3939 20.4908C19.5811 20.3615 19.429 20.0031 19.6869 19.8369C19.9908 19.6412 20.3815 19.676 20.9694 19.3514C21.3429 19.1472 21.1306 19.0193 21.0059 18.9589Z" fill="white"/>
</g>
</g>
</g>
<defs>
<clipPath id="clip0_1_570">
<rect width="30" height="30" fill="white" transform="translate(0.0340576 0.700195)"/>
</clipPath>
<clipPath id="clip1_1_570">
<rect width="30" height="30" fill="white" transform="translate(0.0340576 0.700195)"/>
</clipPath>
<clipPath id="clip2_1_570">
<rect width="30" height="30" fill="white" transform="translate(0.0340576 0.700195)"/>
</clipPath>
</defs>
</svg>
