<svg width="31" height="31" viewBox="0 0 31 31" fill="none" xmlns="http://www.w3.org/2000/svg">
<g clip-path="url(#clip0_1_553)">
<g clip-path="url(#clip1_1_553)">
<g clip-path="url(#clip2_1_553)">
<path d="M15.0341 29.9502C22.9041 29.9502 29.2841 23.5703 29.2841 15.7002C29.2841 7.83014 22.9041 1.4502 15.0341 1.4502C7.164 1.4502 0.784058 7.83014 0.784058 15.7002C0.784058 23.5703 7.164 29.9502 15.0341 29.9502Z" fill="#202124" stroke="#494949" stroke-width="1.5"/>
<path d="M21.6341 12.1076C21.1706 12.3127 20.6724 12.4506 20.1493 12.5139C20.682 12.1939 21.0936 11.6899 21.286 11.0882C20.7859 11.3833 20.232 11.5979 19.6434 11.7129C19.1722 11.2128 18.5009 10.9004 17.7566 10.9004C16.3294 10.9004 15.1716 12.054 15.1716 13.4758C15.1716 13.677 15.1947 13.8744 15.2389 14.0622C13.0905 13.9549 11.1864 12.9278 9.91112 11.3699C9.68801 11.7512 9.56106 12.1939 9.56106 12.6672C9.56106 13.5601 10.0169 14.3477 10.7113 14.8095C10.2862 14.7961 9.88804 14.6811 9.53991 14.4876C9.53991 14.4991 9.53991 14.5086 9.53991 14.5201C9.53991 15.7676 10.4305 16.8081 11.6133 17.0457C11.396 17.1051 11.169 17.1358 10.9325 17.1358C10.7651 17.1358 10.6036 17.1204 10.4459 17.0898C10.7748 18.1111 11.7287 18.8584 12.8597 18.8776C11.9769 19.5694 10.8613 19.9794 9.64954 19.9794C9.43989 19.9794 9.23601 19.9679 9.03406 19.9449C10.1766 20.675 11.5364 21.1004 12.9962 21.1004C17.7508 21.1004 20.3512 17.176 20.3512 13.7747C20.3512 13.6617 20.3493 13.5505 20.3435 13.4394C20.8494 13.0791 21.2879 12.625 21.6341 12.1076Z" fill="white"/>
</g>
</g>
</g>
<defs>
<clipPath id="clip0_1_553">
<rect width="30" height="30" fill="white" transform="translate(0.0340576 0.700195)"/>
</clipPath>
<clipPath id="clip1_1_553">
<rect width="30" height="30" fill="white" transform="translate(0.0340576 0.700195)"/>
</clipPath>
<clipPath id="clip2_1_553">
<rect width="30" height="30" fill="white" transform="translate(0.0340576 0.700195)"/>
</clipPath>
</defs>
</svg>
