<svg width="31" height="31" viewBox="0 0 31 31" fill="none" xmlns="http://www.w3.org/2000/svg">
<g clip-path="url(#clip0_1_578)">
<g clip-path="url(#clip1_1_578)">
<g clip-path="url(#clip2_1_578)">
<path d="M15.0341 29.9502C22.9041 29.9502 29.2841 23.5703 29.2841 15.7002C29.2841 7.83014 22.9041 1.4502 15.0341 1.4502C7.164 1.4502 0.784058 7.83014 0.784058 15.7002C0.784058 23.5703 7.164 29.9502 15.0341 29.9502Z" fill="#202124" stroke="#494949" stroke-width="1.5"/>
<mask id="mask0_1_578" style="mask-type:luminance" maskUnits="userSpaceOnUse" x="9" y="9" width="13" height="13">
<path d="M21.0341 9.7002H9.03406V21.7002H21.0341V9.7002Z" fill="white"/>
</mask>
<g mask="url(#mask0_1_578)">
<path d="M20.1474 9.70022H9.92073C9.68557 9.70022 9.46004 9.79363 9.29376 9.95991C9.12748 10.1262 9.03406 10.3517 9.03406 10.5869V20.8136C9.0358 21.0482 9.12978 21.2727 9.29569 21.4386C9.46159 21.6045 9.68611 21.6985 9.92073 21.7002H20.1474C20.3826 21.7002 20.6081 21.6068 20.7744 21.4405C20.9407 21.2742 21.0341 21.0487 21.0341 20.8136V10.5869C21.035 10.4702 21.0127 10.3545 20.9684 10.2465C20.9242 10.1385 20.8589 10.0405 20.7764 9.95794C20.6939 9.87542 20.5958 9.81014 20.4878 9.7659C20.3798 9.72165 20.2641 9.69933 20.1474 9.70022ZM12.6341 19.9202H10.8074V14.1936H12.6341V19.9202ZM11.7274 13.4002C11.5904 13.402 11.4543 13.3763 11.3273 13.3247C11.2003 13.2731 11.085 13.1965 10.9881 13.0996C10.8911 13.0027 10.8146 12.8873 10.7629 12.7603C10.7113 12.6333 10.6856 12.4973 10.6874 12.3602C10.6856 12.2235 10.7113 12.0877 10.763 11.9611C10.8147 11.8345 10.8914 11.7195 10.9884 11.6231C11.0854 11.5267 11.2009 11.4508 11.3278 11.3999C11.4548 11.349 11.5907 11.3242 11.7274 11.3269C11.8642 11.3242 12.0001 11.349 12.127 11.3999C12.254 11.4508 12.3694 11.5267 12.4665 11.6231C12.5635 11.7195 12.6401 11.8345 12.6918 11.9611C12.7435 12.0877 12.7692 12.2235 12.7674 12.3602C12.7703 12.4993 12.7446 12.6374 12.6921 12.7662C12.6396 12.895 12.5613 13.0117 12.462 13.1091C12.3627 13.2065 12.2446 13.2826 12.1148 13.3326C11.985 13.3827 11.8464 13.4057 11.7074 13.4002H11.7274ZM19.2808 19.9269H17.4808V16.8002C17.4808 15.8736 17.0874 15.5869 16.5808 15.5869C16.4278 15.5913 16.2774 15.6276 16.1392 15.6935C16.001 15.7594 15.8781 15.8534 15.7784 15.9694C15.6786 16.0855 15.6042 16.2212 15.5598 16.3677C15.5154 16.5142 15.5022 16.6683 15.5208 16.8202V19.9269H13.6941V14.1936H15.4274V14.9869C15.6071 14.6943 15.8592 14.4528 16.1593 14.2859C16.4593 14.1189 16.7974 14.032 17.1408 14.0336C18.1474 14.0336 19.2341 14.6336 19.2341 16.3802L19.2808 19.9269Z" fill="white"/>
</g>
</g>
</g>
</g>
<defs>
<clipPath id="clip0_1_578">
<rect width="30" height="30" fill="white" transform="translate(0.0340576 0.700195)"/>
</clipPath>
<clipPath id="clip1_1_578">
<rect width="30" height="30" fill="white" transform="translate(0.0340576 0.700195)"/>
</clipPath>
<clipPath id="clip2_1_578">
<rect width="30" height="30" fill="white" transform="translate(0.0340576 0.700195)"/>
</clipPath>
</defs>
</svg>
