<svg width="31" height="31" viewBox="0 0 31 31" fill="none" xmlns="http://www.w3.org/2000/svg">
<g clip-path="url(#clip0_1_561)">
<g clip-path="url(#clip1_1_561)">
<g clip-path="url(#clip2_1_561)">
<path d="M15.0341 29.9502C22.9041 29.9502 29.2841 23.5703 29.2841 15.7002C29.2841 7.83014 22.9041 1.4502 15.0341 1.4502C7.164 1.4502 0.784058 7.83014 0.784058 15.7002C0.784058 23.5703 7.164 29.9502 15.0341 29.9502Z" fill="#202124" stroke="#494949" stroke-width="1.5"/>
<path d="M22.0222 12.2649C21.8576 11.6531 21.3752 11.1708 20.7635 11.0061C19.6458 10.7002 15.1752 10.7002 15.1752 10.7002C15.1752 10.7002 10.7046 10.7002 9.58693 10.9944C8.98697 11.1591 8.49281 11.6532 8.32816 12.2649C8.03406 13.3825 8.03406 15.7002 8.03406 15.7002C8.03406 15.7002 8.03406 18.0296 8.32816 19.1355C8.49291 19.7472 8.9752 20.2296 9.58704 20.3943C10.7164 20.7002 15.1753 20.7002 15.1753 20.7002C15.1753 20.7002 19.6458 20.7002 20.7635 20.406C21.3753 20.2413 21.8576 19.759 22.0224 19.1472C22.3165 18.0296 22.3165 15.712 22.3165 15.712C22.3165 15.712 22.3282 13.3825 22.0222 12.2649Z" fill="white"/>
<path d="M13.7513 17.8419L17.4689 15.7008L13.7513 13.5596V17.8419Z" fill="#202124"/>
</g>
</g>
</g>
<defs>
<clipPath id="clip0_1_561">
<rect width="30" height="30" fill="white" transform="translate(0.0340576 0.700195)"/>
</clipPath>
<clipPath id="clip1_1_561">
<rect width="30" height="30" fill="white" transform="translate(0.0340576 0.700195)"/>
</clipPath>
<clipPath id="clip2_1_561">
<rect width="30" height="30" fill="white" transform="translate(0.0340576 0.700195)"/>
</clipPath>
</defs>
</svg>
