<svg width="31" height="31" viewBox="0 0 31 31" fill="none" xmlns="http://www.w3.org/2000/svg">
<g clip-path="url(#clip0_1_536)">
<g clip-path="url(#clip1_1_536)">
<g clip-path="url(#clip2_1_536)">
<path d="M15.0341 29.9502C22.9041 29.9502 29.2841 23.5703 29.2841 15.7002C29.2841 7.83014 22.9041 1.4502 15.0341 1.4502C7.164 1.4502 0.784058 7.83014 0.784058 15.7002C0.784058 23.5703 7.164 29.9502 15.0341 29.9502Z" fill="#202124" stroke="#494949" stroke-width="1.5"/>
<path d="M12.9427 10.3003C11.1204 10.3003 9.63367 11.787 9.63367 13.6093V18.3913C9.63367 20.2136 11.1204 21.7003 12.9427 21.7003H17.7247C19.5471 21.7003 21.0337 20.2136 21.0337 18.3913V13.6093C21.0337 11.787 19.5471 10.3003 17.7247 10.3003H12.9427ZM12.9427 11.1772H17.7247C19.0726 11.1772 20.1568 12.2597 20.1568 13.6093V18.3913C20.1568 19.7392 19.0743 20.8234 17.7247 20.8234H12.9427C11.5948 20.8234 10.5106 19.7409 10.5106 18.3913V13.6093C10.5106 12.2614 11.5931 11.1772 12.9427 11.1772ZM18.6222 12.0542C18.2591 12.0542 17.9645 12.3487 17.9645 12.7118C17.9645 13.0749 18.2591 13.3695 18.6222 13.3695C18.9853 13.3695 19.2799 13.0749 19.2799 12.7118C19.2799 12.3487 18.9853 12.0542 18.6222 12.0542ZM15.3337 12.9311C13.6432 12.9311 12.2645 14.3098 12.2645 16.0003C12.2645 17.6908 13.6432 19.0695 15.3337 19.0695C17.0242 19.0695 18.4029 17.6908 18.4029 16.0003C18.4029 14.3098 17.0242 12.9311 15.3337 12.9311ZM15.3337 13.808C16.5498 13.808 17.526 14.7843 17.526 16.0003C17.526 17.2164 16.5498 18.1926 15.3337 18.1926C14.1177 18.1926 13.1414 17.2164 13.1414 16.0003C13.1414 14.7843 14.1177 13.808 15.3337 13.808Z" fill="white"/>
</g>
</g>
</g>
<defs>
<clipPath id="clip0_1_536">
<rect width="30" height="30" fill="white" transform="translate(0.0340576 0.700195)"/>
</clipPath>
<clipPath id="clip1_1_536">
<rect width="30" height="30" fill="white" transform="translate(0.0340576 0.700195)"/>
</clipPath>
<clipPath id="clip2_1_536">
<rect width="30" height="30" fill="white" transform="translate(0.0340576 0.700195)"/>
</clipPath>
</defs>
</svg>
