<svg width="134" height="46" viewBox="0 0 134 46" fill="none" xmlns="http://www.w3.org/2000/svg">
<g clip-path="url(#clip0_1_475)">
<g clip-path="url(#clip1_1_475)">
<g clip-path="url(#clip2_1_475)">
<mask id="mask0_1_475" style="mask-type:luminance" maskUnits="userSpaceOnUse" x="0" y="0" width="133" height="46">
<path d="M132.894 0.310059H0.278442V45.3048H132.894V0.310059Z" fill="white"/>
</mask>
<g mask="url(#mask0_1_475)">
<path d="M1.00006 3.19659C1.00006 2.00098 1.9693 1.03174 3.16492 1.03174H130.007C131.203 1.03174 132.172 2.00097 132.172 3.19659V42.4183C132.172 43.6139 131.203 44.5831 130.007 44.5831H3.16491C1.96929 44.5831 1.00006 43.6139 1.00006 42.4183V3.19659Z" stroke="#494949" stroke-width="1.44323" stroke-linecap="square"/>
<path d="M45.7214 13.6951C45.7409 14.0613 45.6853 14.4276 45.5581 14.7716C45.4308 15.1155 45.2346 15.4298 44.9814 15.6951C44.6959 15.99 44.3517 16.2216 43.971 16.3749C43.5902 16.5282 43.1816 16.5998 42.7714 16.5851C42.3448 16.6092 41.9178 16.546 41.5165 16.3993C41.1152 16.2527 40.748 16.0257 40.4375 15.7322C40.127 15.4387 39.8796 15.0849 39.7105 14.6925C39.5415 14.3001 39.4543 13.8774 39.4543 13.4501C39.4543 13.0228 39.5415 12.6001 39.7105 12.2077C39.8796 11.8153 40.127 11.4615 40.4375 11.168C40.748 10.8745 41.1152 10.6475 41.5165 10.5009C41.9178 10.3542 42.3448 10.291 42.7714 10.3151C43.1976 10.312 43.6197 10.3972 44.0114 10.5651C44.3704 10.7111 44.6893 10.9408 44.9414 11.2351L44.4214 11.7651C44.2178 11.5298 43.9636 11.3438 43.6779 11.2208C43.3921 11.0978 43.0822 11.0412 42.7714 11.0551C42.4695 11.0512 42.1698 11.1075 41.8899 11.2208C41.61 11.3342 41.3555 11.5022 41.1414 11.7151C40.6923 12.181 40.4413 12.803 40.4413 13.4501C40.4413 14.0972 40.6923 14.7192 41.1414 15.1851C41.5865 15.6123 42.1795 15.8508 42.7964 15.8508C43.4133 15.8508 44.0063 15.6123 44.4514 15.1851C44.7608 14.8567 44.9387 14.4261 44.9514 13.9751H42.7714V13.2551H45.6814C45.709 13.4001 45.7224 13.5475 45.7214 13.6951Z" fill="white" stroke="white" stroke-width="0.2" stroke-miterlimit="10"/>
<path d="M50.3322 11.1868H47.6023V13.0868H50.0623V13.8168H47.6023V15.7168H50.3322V16.4468H46.8723V10.4468H50.3723L50.3322 11.1868Z" fill="white" stroke="white" stroke-width="0.2" stroke-miterlimit="10"/>
<path d="M53.5818 16.4468H52.8118V11.1868H51.1418V10.4468H55.2618V11.1868H53.5818V16.4468Z" fill="white" stroke="white" stroke-width="0.2" stroke-miterlimit="10"/>
<path d="M58.2413 16.4468V10.4468H59.0113V16.4468H58.2413Z" fill="white" stroke="white" stroke-width="0.2" stroke-miterlimit="10"/>
<path d="M62.4313 16.4468H61.6613V11.1868H59.9913V10.4468H64.1113V11.1868H62.4313V16.4468Z" fill="white" stroke="white" stroke-width="0.2" stroke-miterlimit="10"/>
<path d="M71.8715 15.6749C71.5836 15.9636 71.2414 16.1927 70.8648 16.349C70.4881 16.5054 70.0843 16.5858 69.6765 16.5858C69.2687 16.5858 68.8649 16.5054 68.4883 16.349C68.1116 16.1927 67.7695 15.9636 67.4815 15.6749C66.911 15.0746 66.593 14.278 66.593 13.4499C66.593 12.6217 66.911 11.8252 67.4815 11.2249C67.7622 10.928 68.1023 10.6935 68.4796 10.5367C68.8569 10.3799 69.2631 10.3044 69.6715 10.3149C70.0809 10.3084 70.4873 10.3858 70.8657 10.5423C71.244 10.6988 71.5863 10.9311 71.8715 11.2249C72.442 11.8252 72.7601 12.6217 72.7601 13.4499C72.7601 14.278 72.442 15.0746 71.8715 15.6749ZM68.0415 15.1749C68.2527 15.3924 68.5064 15.5641 68.7869 15.6794C69.0673 15.7947 69.3684 15.851 69.6715 15.8449C69.9749 15.8528 70.2766 15.7973 70.5572 15.6819C70.8379 15.5666 71.0914 15.3939 71.3015 15.1749C71.7316 14.7033 71.97 14.0881 71.97 13.4499C71.97 12.8117 71.7316 12.1965 71.3015 11.7249C71.0914 11.5059 70.8379 11.3332 70.5572 11.2178C70.2766 11.1025 69.9749 11.047 69.6715 11.0549C69.3684 11.0488 69.0673 11.1051 68.7869 11.2204C68.5064 11.3356 68.2527 11.5074 68.0415 11.7249C67.6157 12.1985 67.3801 12.8129 67.3801 13.4499C67.3801 14.0868 67.6157 14.7012 68.0415 15.1749Z" fill="white" stroke="white" stroke-width="0.2" stroke-miterlimit="10"/>
<path d="M73.8723 16.4468V10.4468H74.8723L77.7922 15.1168V13.9668V10.4468H78.5622V16.4468H77.7522L74.7522 11.5568V12.7168V16.4468H73.8723Z" fill="white" stroke="white" stroke-width="0.2" stroke-miterlimit="10"/>
<path d="M66.4417 25.2065C65.602 25.2105 64.7823 25.4631 64.086 25.9325C63.3897 26.4019 62.8481 27.067 62.5295 27.8439C62.2109 28.6208 62.1296 29.4747 62.2958 30.2978C62.4621 31.1209 62.8684 31.8763 63.4636 32.4687C64.0587 33.0611 64.816 33.4639 65.6399 33.6262C66.4638 33.7886 67.3173 33.7033 68.0927 33.381C68.8681 33.0588 69.5307 32.5141 69.9968 31.8156C70.4629 31.1171 70.7117 30.2962 70.7117 29.4565C70.7199 28.8944 70.6148 28.3365 70.4029 27.8158C70.1909 27.2952 69.8764 26.8226 69.478 26.426C69.0795 26.0295 68.6054 25.7171 68.0838 25.5076C67.5622 25.2981 67.0037 25.1957 66.4417 25.2065ZM66.4417 32.0365C65.9226 32.0747 65.4041 31.9556 64.9537 31.6947C64.5033 31.4339 64.1419 31.0434 63.9167 30.5742C63.6915 30.1049 63.6129 29.5787 63.6911 29.0641C63.7694 28.5496 64.0008 28.0705 64.3553 27.6894C64.7098 27.3083 65.1709 27.0429 65.6785 26.9277C66.1861 26.8125 66.7166 26.8529 67.2009 27.0437C67.6851 27.2344 68.1007 27.5666 68.3934 27.997C68.6861 28.4274 68.8423 28.936 68.8417 29.4565C68.8578 29.7845 68.8081 30.1124 68.6954 30.4209C68.5828 30.7294 68.4095 31.0122 68.1858 31.2527C67.9622 31.4931 67.6926 31.6864 67.393 31.821C67.0935 31.9556 66.77 32.0289 66.4417 32.0365ZM57.1317 25.2065C56.292 25.2105 55.4723 25.4631 54.776 25.9325C54.0797 26.4019 53.5381 27.067 53.2195 27.8439C52.9009 28.6208 52.8196 29.4747 52.9858 30.2978C53.1521 31.1209 53.5584 31.8763 54.1536 32.4687C54.7487 33.0611 55.506 33.4639 56.3299 33.6262C57.1538 33.7886 58.0073 33.7033 58.7827 33.381C59.5581 33.0588 60.2207 32.5141 60.6868 31.8156C61.1529 31.1171 61.4017 30.2962 61.4017 29.4565C61.4099 28.8944 61.3048 28.3365 61.0929 27.8158C60.8809 27.2952 60.5664 26.8226 60.168 26.426C59.7695 26.0295 59.2954 25.7171 58.7738 25.5076C58.2522 25.2981 57.6937 25.1957 57.1317 25.2065ZM57.1317 32.0365C56.6126 32.0747 56.0941 31.9556 55.6437 31.6947C55.1933 31.4339 54.8319 31.0434 54.6067 30.5742C54.3815 30.1049 54.3029 29.5787 54.3811 29.0641C54.4594 28.5496 54.6908 28.0705 55.0453 27.6894C55.3998 27.3083 55.8609 27.0429 56.3685 26.9277C56.8761 26.8125 57.4066 26.8529 57.8909 27.0437C58.3751 27.2344 58.7907 27.5666 59.0834 27.997C59.3761 28.4274 59.5323 28.936 59.5317 29.4565C59.5478 29.7845 59.4981 30.1124 59.3854 30.4209C59.2728 30.7294 59.0995 31.0122 58.8758 31.2527C58.6522 31.4931 58.3826 31.6864 58.083 31.821C57.7835 31.9556 57.46 32.0289 57.1317 32.0365ZM46.0517 26.5065V28.3265H50.3717C50.304 29.1743 49.9515 29.9743 49.3717 30.5965C48.9406 31.0383 48.4213 31.3842 47.8475 31.6116C47.2737 31.839 46.6584 31.9429 46.0417 31.9165C44.7687 31.9165 43.5478 31.4108 42.6476 30.5106C41.7474 29.6104 41.2417 28.3895 41.2417 27.1165C41.2417 25.8435 41.7474 24.6226 42.6476 23.7224C43.5478 22.8222 44.7687 22.3165 46.0417 22.3165C47.2532 22.2987 48.4222 22.7627 49.2917 23.6065L50.5817 22.3265C49.9854 21.7375 49.2776 21.2731 48.4998 20.9607C47.7221 20.6482 46.8898 20.4938 46.0517 20.5065C45.1627 20.4719 44.2759 20.6171 43.4443 20.9335C42.6128 21.2498 41.8537 21.7308 41.2125 22.3475C40.5712 22.9643 40.0611 23.7041 39.7127 24.5227C39.3643 25.3413 39.1846 26.2218 39.1846 27.1115C39.1846 28.0012 39.3643 28.8817 39.7127 29.7003C40.0611 30.5189 40.5712 31.2588 41.2125 31.8755C41.8537 32.4922 42.6128 32.9732 43.4443 33.2895C44.2759 33.6059 45.1627 33.7511 46.0517 33.7165C46.9077 33.7552 47.762 33.6101 48.5571 33.291C49.3523 32.9719 50.0699 32.4862 50.6617 31.8665C51.7094 30.7154 52.2687 29.2023 52.2217 27.6465C52.2277 27.2674 52.1942 26.8887 52.1217 26.5165L46.0517 26.5065ZM91.3617 27.9065C91.0993 27.1411 90.6109 26.4733 89.961 25.9913C89.3111 25.5092 88.5303 25.2356 87.7217 25.2065C87.1747 25.2054 86.6333 25.3166 86.1309 25.533C85.6286 25.7495 85.176 26.0667 84.8011 26.465C84.4262 26.8634 84.137 27.3344 83.9513 27.8489C83.7657 28.3634 83.6875 28.9106 83.7217 29.4565C83.7095 30.0154 83.8102 30.571 84.0176 31.0902C84.2249 31.6094 84.5349 32.0814 84.9288 32.4781C85.3227 32.8748 85.7925 33.188 86.3101 33.3991C86.8278 33.6101 87.3827 33.7147 87.9417 33.7065C88.6412 33.7103 89.3307 33.5405 89.9485 33.2124C90.5663 32.8843 91.0931 32.4081 91.4817 31.8265L90.0317 30.8265C89.816 31.188 89.5098 31.4869 89.1433 31.6939C88.7768 31.9008 88.3626 32.0086 87.9417 32.0065C87.5076 32.021 87.0791 31.9061 86.7105 31.6764C86.3419 31.4467 86.0499 31.1125 85.8717 30.7165L91.5617 28.3665L91.3617 27.9065ZM85.5617 29.3265C85.5414 29.0172 85.5831 28.707 85.6842 28.4139C85.7853 28.1209 85.9439 27.8511 86.1507 27.6201C86.3574 27.3891 86.6082 27.2018 86.8882 27.0689C87.1683 26.9361 87.472 26.8605 87.7817 26.8465C88.1043 26.8252 88.426 26.8992 88.7069 27.0592C88.9878 27.2192 89.2155 27.4582 89.3617 27.7465L85.5617 29.3265ZM80.9317 33.4565H82.8017V20.9465H80.9317V33.4565ZM77.8717 26.1565H77.8117C77.5299 25.8414 77.1846 25.5894 76.7986 25.4171C76.4125 25.2448 75.9944 25.156 75.5717 25.1565C74.4445 25.1565 73.3635 25.6043 72.5665 26.4013C71.7695 27.1983 71.3217 28.2793 71.3217 29.4065C71.3217 30.5337 71.7695 31.6147 72.5665 32.4117C73.3635 33.2087 74.4445 33.6565 75.5717 33.6565C75.9952 33.6616 76.4147 33.5748 76.8014 33.4022C77.1881 33.2296 77.5328 32.9752 77.8117 32.6565H77.8717V33.3265C77.8717 34.9565 77.0017 35.8265 75.6017 35.8265C75.1346 35.8135 74.6819 35.6621 74.3009 35.3915C73.9199 35.1209 73.6278 34.7433 73.4617 34.3065L71.8317 34.9865C72.1385 35.7329 72.6613 36.3705 73.333 36.8178C74.0048 37.265 74.7947 37.5013 75.6017 37.4965C77.7917 37.4965 79.6017 36.2065 79.6017 33.0665V25.4265H77.8717V26.1565ZM75.7317 32.0365C75.0867 31.9797 74.4863 31.6832 74.049 31.2057C73.6116 30.7281 73.3691 30.1041 73.3691 29.4565C73.3691 28.809 73.6116 28.1849 74.049 27.7073C74.4863 27.2298 75.0867 26.9334 75.7317 26.8765C76.0534 26.8928 76.3684 26.9737 76.6582 27.1143C76.9479 27.2549 77.2064 27.4524 77.4182 27.695C77.63 27.9376 77.7909 28.2204 77.8911 28.5264C77.9913 28.8325 78.0289 29.1556 78.0017 29.4765C78.0261 29.7948 77.9863 30.1148 77.8846 30.4173C77.7828 30.7199 77.6212 30.9989 77.4094 31.2378C77.1976 31.4766 76.94 31.6704 76.6517 31.8076C76.3635 31.9449 76.0506 32.0227 75.7317 32.0365ZM100.112 20.9465H95.6417V33.4565H97.5117V28.7165H100.112C100.638 28.7432 101.165 28.6626 101.659 28.4794C102.154 28.2962 102.606 28.0144 102.989 27.651C103.371 27.2876 103.675 26.8503 103.883 26.3656C104.091 25.8809 104.198 25.3589 104.198 24.8315C104.198 24.3041 104.091 23.7821 103.883 23.2974C103.675 22.8127 103.371 22.3754 102.989 22.012C102.606 21.6486 102.154 21.3668 101.659 21.1836C101.165 21.0004 100.638 20.9198 100.112 20.9465ZM100.112 26.9465H97.4617V22.6565H100.112C100.405 22.6364 100.7 22.677 100.978 22.7757C101.256 22.8744 101.51 23.0291 101.725 23.2303C101.941 23.4314 102.112 23.6747 102.23 23.945C102.347 24.2153 102.408 24.5068 102.408 24.8015C102.408 25.0962 102.347 25.3877 102.23 25.658C102.112 25.9283 101.941 26.1716 101.725 26.3727C101.51 26.5739 101.256 26.7286 100.978 26.8273C100.7 26.926 100.405 26.9666 100.112 26.9465ZM111.641 25.1465C110.96 25.108 110.282 25.2691 109.69 25.6102C109.099 25.9512 108.619 26.4573 108.311 27.0665L109.971 27.7565C110.134 27.454 110.382 27.2057 110.684 27.0422C110.986 26.8788 111.329 26.8072 111.671 26.8365C111.909 26.8088 112.149 26.8286 112.379 26.8948C112.608 26.9611 112.823 27.0724 113.009 27.2222C113.195 27.3721 113.349 27.5575 113.463 27.7677C113.577 27.9779 113.648 28.2087 113.671 28.4465V28.5765C113.07 28.2616 112.401 28.0969 111.721 28.0965C109.931 28.0965 108.121 29.0965 108.121 30.9065C108.139 31.2924 108.234 31.6709 108.4 32.0196C108.567 32.3682 108.801 32.6799 109.09 32.9363C109.379 33.1927 109.717 33.3885 110.083 33.5122C110.449 33.6359 110.836 33.685 111.221 33.6565C111.691 33.6857 112.16 33.5877 112.579 33.3731C112.997 33.1584 113.351 32.8349 113.601 32.4365H113.671V33.4365H115.471V28.6465C115.491 26.4165 113.871 25.1765 111.691 25.1765L111.641 25.1465ZM111.421 31.9965C110.801 31.9965 109.951 31.6965 109.951 30.9365C109.951 29.9365 111.011 29.6065 111.951 29.6065C112.549 29.592 113.139 29.737 113.661 30.0265C113.597 30.5671 113.34 31.0665 112.938 31.4336C112.536 31.8007 112.016 32.0112 111.471 32.0265L111.421 31.9965ZM122.001 25.4265L119.871 30.8765L117.651 25.4565H115.651L118.971 33.0265L117.081 37.2465H119.021L124.151 25.4565L122.001 25.4265ZM105.191 33.4265H107.061V20.9465H105.191V33.4265Z" fill="white"/>
<path d="M8.7426 10.9855C8.41423 11.3792 8.24956 11.8839 8.2826 12.3955V34.5055C8.24956 35.0171 8.41423 35.5218 8.7426 35.9155L8.8126 35.9855L21.2026 23.5955V23.3255L8.8126 10.9155L8.7426 10.9855Z" fill="url(#paint0_linear_1_475)"/>
<path d="M25.3322 27.7268L21.2022 23.5968V23.3268L25.3322 19.1968L25.4322 19.2468L30.3222 22.0268C31.7222 22.8268 31.7222 24.1268 30.3222 24.9168L25.4322 27.6968L25.3322 27.7268Z" fill="url(#paint1_linear_1_475)"/>
<path d="M25.4313 27.6785L21.2013 23.4585L8.74133 35.9185C9.02579 36.1712 9.39011 36.3157 9.77043 36.3266C10.1507 36.3376 10.5227 36.2144 10.8213 35.9785L25.4313 27.6785Z" fill="url(#paint2_linear_1_475)"/>
<path d="M25.4321 19.2254L10.8721 10.9254C10.5727 10.6914 10.2011 10.5694 9.82129 10.5803C9.44151 10.5913 9.07747 10.7346 8.79211 10.9854L21.2521 23.4554L25.4321 19.2254Z" fill="url(#paint3_linear_1_475)"/>
<path opacity="0.25" d="M10.8708 11.0753L30.3708 22.1553C30.6253 22.2818 30.8476 22.4646 31.0209 22.6898C31.1942 22.9151 31.3138 23.1769 31.3708 23.4553C31.3461 23.1471 31.2408 22.8507 31.0652 22.5962C30.8897 22.3416 30.6501 22.1378 30.3708 22.0053L10.8708 10.9253C9.47081 10.1352 8.33081 10.7953 8.33081 12.3953V12.5353C8.28081 10.9353 9.42081 10.3253 10.8708 11.0753Z" fill="white"/>
</g>
</g>
</g>
</g>
<defs>
<linearGradient id="paint0_linear_1_475" x1="20.1126" y1="12.1555" x2="3.3226" y2="28.9455" gradientUnits="userSpaceOnUse">
<stop stop-color="#00A0FF"/>
<stop offset="0.01" stop-color="#00A1FF"/>
<stop offset="0.26" stop-color="#00BEFF"/>
<stop offset="0.51" stop-color="#00D2FF"/>
<stop offset="0.76" stop-color="#00DFFF"/>
<stop offset="1" stop-color="#00E3FF"/>
</linearGradient>
<linearGradient id="paint1_linear_1_475" x1="32.1422" y1="23.4568" x2="7.94227" y2="23.4568" gradientUnits="userSpaceOnUse">
<stop stop-color="#FFE000"/>
<stop offset="0.41" stop-color="#FFBD00"/>
<stop offset="0.78" stop-color="#FFA500"/>
<stop offset="1" stop-color="#FF9C00"/>
</linearGradient>
<linearGradient id="paint2_linear_1_475" x1="23.1313" y1="25.7485" x2="0.371335" y2="48.5085" gradientUnits="userSpaceOnUse">
<stop stop-color="#FF3A44"/>
<stop offset="1" stop-color="#C31162"/>
</linearGradient>
<linearGradient id="paint3_linear_1_475" x1="5.60211" y1="3.62536" x2="15.7721" y2="13.7854" gradientUnits="userSpaceOnUse">
<stop stop-color="#32A071"/>
<stop offset="0.07" stop-color="#2DA771"/>
<stop offset="0.48" stop-color="#15CF74"/>
<stop offset="0.8" stop-color="#06E775"/>
<stop offset="1" stop-color="#00F076"/>
</linearGradient>
<clipPath id="clip0_1_475">
<rect x="0.278442" y="0.310059" width="133" height="45" rx="3" fill="white"/>
</clipPath>
<clipPath id="clip1_1_475">
<rect width="133" height="45" fill="white" transform="translate(0.278442 0.310059)"/>
</clipPath>
<clipPath id="clip2_1_475">
<rect width="133" height="45" fill="white" transform="translate(0.278442 0.310059)"/>
</clipPath>
</defs>
</svg>
