<svg width="31" height="31" viewBox="0 0 31 31" fill="none" xmlns="http://www.w3.org/2000/svg">
<g clip-path="url(#clip0_1_544)">
<g clip-path="url(#clip1_1_544)">
<g clip-path="url(#clip2_1_544)">
<path d="M15.0341 29.9502C22.9041 29.9502 29.2841 23.5703 29.2841 15.7002C29.2841 7.83014 22.9041 1.4502 15.0341 1.4502C7.164 1.4502 0.784058 7.83014 0.784058 15.7002C0.784058 23.5703 7.164 29.9502 15.0341 29.9502Z" fill="#202124" stroke="#494949" stroke-width="1.5"/>
<path d="M21.0341 15.7002C21.0341 12.3865 18.3478 9.7002 15.0341 9.7002C11.7204 9.7002 9.03406 12.3865 9.03406 15.7002C9.03406 18.6949 11.2282 21.1772 14.0966 21.6273V17.4346H12.5732V15.7002H14.0966V14.3783C14.0966 12.8746 14.9924 12.044 16.3629 12.044C17.0191 12.044 17.706 12.1611 17.706 12.1611V13.6377H16.9494C16.2041 13.6377 15.9716 14.1002 15.9716 14.5752V15.7002H17.6357L17.3696 17.4346H15.9716V21.6273C18.84 21.1772 21.0341 18.6949 21.0341 15.7002Z" fill="white"/>
<path d="M17.3696 17.4345L17.6357 15.7001H15.9716V14.5751C15.9716 14.1006 16.2041 13.6376 16.9494 13.6376H17.706V12.161C17.706 12.161 17.0194 12.0439 16.3629 12.0439C14.9924 12.0439 14.0966 12.8745 14.0966 14.3782V15.7001H12.5732V17.4345H14.0966V21.6272C14.7178 21.7244 15.3504 21.7244 15.9716 21.6272V17.4345H17.3696Z" fill="#202124"/>
</g>
</g>
</g>
<defs>
<clipPath id="clip0_1_544">
<rect width="30" height="30" fill="white" transform="translate(0.0340576 0.700195)"/>
</clipPath>
<clipPath id="clip1_1_544">
<rect width="30" height="30" fill="white" transform="translate(0.0340576 0.700195)"/>
</clipPath>
<clipPath id="clip2_1_544">
<rect width="30" height="30" fill="white" transform="translate(0.0340576 0.700195)"/>
</clipPath>
</defs>
</svg>
