<svg width="130" height="46" viewBox="0 0 130 46" fill="none" xmlns="http://www.w3.org/2000/svg">
<g clip-path="url(#clip0_1_299)">
<g clip-path="url(#clip1_1_299)">
<g clip-path="url(#clip2_1_299)">
<mask id="mask0_1_299" style="mask-type:luminance" maskUnits="userSpaceOnUse" x="0" y="0" width="129" height="45">
<path d="M128.717 0.921387H0V44.5933H128.717V0.921387Z" fill="white"/>
</mask>
<g mask="url(#mask0_1_299)">
<path d="M0.700409 3.72304C0.700409 2.56257 1.64116 1.62183 2.80163 1.62183H125.915C127.076 1.62183 128.017 2.56257 128.017 3.72304V41.7917C128.017 42.9522 127.076 43.8929 125.915 43.8929H2.80162C1.64115 43.8929 0.700409 42.9522 0.700409 41.7917V3.72304Z" stroke="#494949" stroke-width="1.4008" stroke-linecap="square"/>
<path d="M44.107 13.9129C44.1259 14.2684 44.0719 14.6239 43.9485 14.9578C43.8249 15.2916 43.6345 15.5966 43.3887 15.8541C43.1116 16.1404 42.7775 16.3652 42.408 16.5139C42.0384 16.6627 41.6418 16.7322 41.2437 16.718C40.8296 16.7414 40.4152 16.68 40.0257 16.5376C39.6362 16.3953 39.2798 16.175 38.9784 15.8901C38.677 15.6053 38.4369 15.2619 38.2728 14.881C38.1087 14.5001 38.0241 14.0899 38.0241 13.6751C38.0241 13.2604 38.1087 12.8501 38.2728 12.4693C38.4369 12.0884 38.677 11.745 38.9784 11.4601C39.2798 11.1752 39.6362 10.9549 40.0257 10.8126C40.4152 10.6702 40.8296 10.6089 41.2437 10.6323C41.6574 10.6293 42.0671 10.712 42.4472 10.8749C42.7957 11.0167 43.1052 11.2396 43.3499 11.5252L42.8452 12.0397C42.6476 11.8113 42.4008 11.6308 42.1235 11.5114C41.8461 11.392 41.5454 11.337 41.2437 11.3505C40.9507 11.3468 40.6598 11.4014 40.3881 11.5114C40.1164 11.6214 39.8694 11.7845 39.6616 11.9911C39.2257 12.4433 38.9821 13.0471 38.9821 13.6751C38.9821 14.3032 39.2257 14.9069 39.6616 15.3591C40.0936 15.7738 40.6692 16.0053 41.268 16.0053C41.8667 16.0053 42.4423 15.7738 42.8743 15.3591C43.1746 15.0404 43.3473 14.6224 43.3596 14.1847H41.2437V13.4859H44.0681C44.0949 13.6266 44.1079 13.7697 44.107 13.9129Z" fill="white" stroke="white" stroke-width="0.19412" stroke-miterlimit="10"/>
<path d="M48.5822 11.4783H45.9326V13.3224H48.3202V14.0309H45.9326V15.8751H48.5822V16.5836H45.224V10.76H48.6211L48.5822 11.4783Z" fill="white" stroke="white" stroke-width="0.19412" stroke-miterlimit="10"/>
<path d="M51.7363 16.5836H50.9889V11.4783H49.368V10.76H53.3669V11.4783H51.7363V16.5836Z" fill="white" stroke="white" stroke-width="0.19412" stroke-miterlimit="10"/>
<path d="M56.2589 16.5836V10.76H57.0062V16.5836H56.2589Z" fill="white" stroke="white" stroke-width="0.19412" stroke-miterlimit="10"/>
<path d="M60.3257 16.5836H59.5783V11.4783H57.9574V10.76H61.9563V11.4783H60.3257V16.5836Z" fill="white" stroke="white" stroke-width="0.19412" stroke-miterlimit="10"/>
<path d="M69.4883 15.8347C69.2088 16.1149 68.8767 16.3373 68.5112 16.489C68.1456 16.6408 67.7536 16.7188 67.3578 16.7188C66.962 16.7188 66.5701 16.6408 66.2045 16.489C65.8389 16.3373 65.5069 16.1149 65.2273 15.8347C64.6736 15.2521 64.365 14.4789 64.365 13.6751C64.365 12.8713 64.6736 12.0982 65.2273 11.5155C65.4998 11.2274 65.8299 10.9998 66.1961 10.8476C66.5623 10.6954 66.9566 10.622 67.353 10.6323C67.7503 10.626 68.1448 10.7011 68.512 10.853C68.8792 11.0049 69.2115 11.2304 69.4883 11.5155C70.042 12.0982 70.3508 12.8713 70.3508 13.6751C70.3508 14.4789 70.042 15.2521 69.4883 15.8347ZM65.7709 15.3494C65.9759 15.5605 66.2221 15.7272 66.4944 15.8391C66.7665 15.951 67.0588 16.0056 67.353 15.9997C67.6474 16.0074 67.9403 15.9535 68.2126 15.8415C68.4851 15.7296 68.7311 15.562 68.935 15.3494C69.3525 14.8917 69.5839 14.2946 69.5839 13.6751C69.5839 13.0557 69.3525 12.4586 68.935 12.0008C68.7311 11.7883 68.4851 11.6207 68.2126 11.5087C67.9403 11.3967 67.6474 11.3429 67.353 11.3505C67.0588 11.3446 66.7665 11.3993 66.4944 11.5112C66.2221 11.623 65.9759 11.7897 65.7709 12.0008C65.3576 12.4605 65.1289 13.0569 65.1289 13.6751C65.1289 14.2933 65.3576 14.8896 65.7709 15.3494Z" fill="white" stroke="white" stroke-width="0.19412" stroke-miterlimit="10"/>
<path d="M71.4303 16.5836V10.76H72.4009L75.2349 15.2927V14.1765V10.76H75.9824V16.5836H75.1961L72.2843 11.8374V12.9633V16.5836H71.4303Z" fill="white" stroke="white" stroke-width="0.19412" stroke-miterlimit="10"/>
<path d="M64.2182 25.086C63.4032 25.0899 62.6076 25.335 61.9318 25.7906C61.2559 26.2462 60.7302 26.8918 60.421 27.6458C60.1118 28.3999 60.0329 29.2287 60.1942 30.0276C60.3556 30.8265 60.75 31.5597 61.3277 32.1347C61.9053 32.7097 62.6403 33.1006 63.44 33.2581C64.2397 33.4158 65.0681 33.333 65.8207 33.0202C66.5733 32.7074 67.2164 32.1787 67.6688 31.5008C68.1212 30.8228 68.3627 30.026 68.3627 29.211C68.3706 28.6655 68.2686 28.124 68.0629 27.6186C67.8572 27.1133 67.5519 26.6546 67.1652 26.2696C66.7785 25.8848 66.3183 25.5816 65.812 25.3782C65.3058 25.1749 64.7637 25.0755 64.2182 25.086ZM64.2182 31.7152C63.7144 31.7523 63.2111 31.6367 62.7739 31.3834C62.3368 31.1303 61.986 30.7513 61.7674 30.2959C61.5489 29.8404 61.4726 29.3296 61.5485 28.8302C61.6245 28.3308 61.8491 27.8658 62.1931 27.4959C62.5372 27.126 62.9848 26.8684 63.4774 26.7566C63.9701 26.6448 64.485 26.684 64.9551 26.8692C65.425 27.0543 65.8284 27.3767 66.1125 27.7944C66.3966 28.2122 66.5482 28.7058 66.5476 29.211C66.5633 29.5294 66.515 29.8476 66.4056 30.1471C66.2964 30.4465 66.1282 30.721 65.911 30.9544C65.694 31.1878 65.4323 31.3754 65.1415 31.506C64.8508 31.6367 64.5369 31.7078 64.2182 31.7152ZM55.1819 25.086C54.3669 25.0899 53.5713 25.335 52.8955 25.7906C52.2196 26.2462 51.6939 26.8918 51.3847 27.6458C51.0755 28.3999 50.9966 29.2287 51.1579 30.0276C51.3193 30.8265 51.7137 31.5597 52.2914 32.1347C52.869 32.7097 53.604 33.1006 54.4037 33.2581C55.2034 33.4158 56.0318 33.333 56.7844 33.0202C57.537 32.7074 58.1801 32.1787 58.6325 31.5008C59.0849 30.8228 59.3264 30.026 59.3264 29.211C59.3343 28.6655 59.2323 28.124 59.0266 27.6186C58.8209 27.1133 58.5156 26.6546 58.1289 26.2696C57.7422 25.8848 57.282 25.5816 56.7757 25.3782C56.2695 25.1749 55.7274 25.0755 55.1819 25.086ZM55.1819 31.7152C54.6781 31.7523 54.1748 31.6367 53.7376 31.3834C53.3005 31.1303 52.9497 30.7513 52.7311 30.2959C52.5126 29.8404 52.4363 29.3296 52.5122 28.8302C52.5882 28.3308 52.8128 27.8658 53.1568 27.4959C53.5009 27.126 53.9485 26.8684 54.4411 26.7566C54.9338 26.6448 55.4487 26.684 55.9188 26.8692C56.3887 27.0543 56.7921 27.3767 57.0762 27.7944C57.3603 28.2122 57.5119 28.7058 57.5113 29.211C57.527 29.5294 57.4787 29.8476 57.3693 30.1471C57.2601 30.4465 57.0919 30.721 56.8747 30.9544C56.6577 31.1878 56.396 31.3754 56.1052 31.506C55.8145 31.6367 55.5005 31.7078 55.1819 31.7152ZM44.4276 26.3478V28.1142H48.6206C48.5549 28.9371 48.2128 29.7136 47.65 30.3175C47.2316 30.7463 46.7276 31.0821 46.1706 31.3028C45.6137 31.5235 45.0165 31.6243 44.4179 31.5987C43.1824 31.5987 41.9974 31.1079 41.1236 30.2341C40.2499 29.3604 39.759 28.1754 39.759 26.9398C39.759 25.7042 40.2499 24.5192 41.1236 23.6455C41.9974 22.7718 43.1824 22.2809 44.4179 22.2809C45.5938 22.2637 46.7285 22.714 47.5724 23.533L48.8245 22.2906C48.2457 21.719 47.5587 21.2682 46.8038 20.965C46.0489 20.6617 45.2411 20.5118 44.4276 20.5241C43.5648 20.4906 42.704 20.6315 41.8969 20.9386C41.0898 21.2456 40.3531 21.7124 39.7307 22.311C39.1083 22.9097 38.6132 23.6277 38.275 24.4223C37.9368 25.2168 37.7624 26.0714 37.7624 26.935C37.7624 27.7985 37.9368 28.6531 38.275 29.4477C38.6132 30.2422 39.1083 30.9603 39.7307 31.5589C40.3531 32.1575 41.0898 32.6243 41.8969 32.9313C42.704 33.2384 43.5648 33.3794 44.4276 33.3458C45.2585 33.3833 46.0877 33.2425 46.8594 32.9328C47.6312 32.6231 48.3277 32.1517 48.9021 31.5502C49.919 30.4329 50.4619 28.9643 50.4162 27.4542C50.4221 27.0863 50.3896 26.7187 50.3192 26.3575L44.4276 26.3478ZM88.4056 27.7066C88.1509 26.9637 87.6769 26.3155 87.0461 25.8477C86.4153 25.3798 85.6574 25.1142 84.8726 25.086C84.3417 25.0849 83.8162 25.1928 83.3286 25.4029C82.841 25.613 82.4017 25.9209 82.0379 26.3075C81.674 26.6942 81.3933 27.1513 81.213 27.6507C81.0329 28.1501 80.957 28.6812 80.9902 29.211C80.9784 29.7535 81.0761 30.2928 81.2774 30.7967C81.4786 31.3006 81.7795 31.7588 82.1618 32.1438C82.5441 32.5288 83.0001 32.8328 83.5025 33.0377C84.005 33.2425 84.5436 33.344 85.0861 33.3361C85.7651 33.3398 86.4343 33.175 87.0339 32.8565C87.6336 32.5381 88.1449 32.0759 88.5221 31.5113L87.1147 30.5407C86.9053 30.8916 86.6081 31.1817 86.2524 31.3826C85.8967 31.5835 85.4947 31.6881 85.0861 31.6861C84.6648 31.7001 84.2489 31.5886 83.8911 31.3657C83.5334 31.1427 83.25 30.8183 83.077 30.434L88.5997 28.1531L88.4056 27.7066ZM82.7761 29.0848C82.7564 28.7846 82.7969 28.4836 82.895 28.1991C82.9931 27.9147 83.1471 27.6528 83.3478 27.4286C83.5484 27.2044 83.7918 27.0226 84.0636 26.8936C84.3355 26.7647 84.6302 26.6913 84.9308 26.6778C85.244 26.6571 85.5562 26.7289 85.8288 26.8842C86.1015 27.0395 86.3225 27.2715 86.4644 27.5513L82.7761 29.0848ZM78.2822 33.0934H80.0972V20.9512H78.2822V33.0934ZM75.3122 26.008H75.2539C74.9804 25.7022 74.6453 25.4576 74.2706 25.2904C73.8959 25.1231 73.4901 25.037 73.0798 25.0374C71.9857 25.0374 70.9365 25.4721 70.1629 26.2456C69.3894 27.0192 68.9547 28.0684 68.9547 29.1625C68.9547 30.2566 69.3894 31.3058 70.1629 32.0793C70.9365 32.8529 71.9857 33.2876 73.0798 33.2876C73.4908 33.2925 73.898 33.2083 74.2733 33.0407C74.6487 32.8732 74.9832 32.6263 75.2539 32.317H75.3122V32.9673C75.3122 34.5493 74.4678 35.3938 73.1089 35.3938C72.6555 35.3811 72.2162 35.2342 71.8464 34.9715C71.4766 34.7089 71.193 34.3424 71.0318 33.9184L69.4497 34.5785C69.7475 35.3029 70.255 35.9218 70.9069 36.3559C71.559 36.79 72.3256 37.0193 73.1089 37.0147C75.2345 37.0147 76.9913 35.7626 76.9913 32.7149V25.2995H75.3122V26.008ZM73.2351 31.7152C72.6091 31.66 72.0263 31.3723 71.6019 30.9088C71.1773 30.4452 70.9419 29.8396 70.9419 29.211C70.9419 28.5826 71.1773 27.9768 71.6019 27.5132C72.0263 27.0498 72.6091 26.7621 73.2351 26.7069C73.5473 26.7227 73.8531 26.8012 74.1344 26.9377C74.4155 27.0741 74.6664 27.2658 74.872 27.5013C75.0776 27.7368 75.2338 28.0113 75.331 28.3083C75.4283 28.6054 75.4648 28.919 75.4384 29.2304C75.462 29.5394 75.4234 29.85 75.3247 30.1436C75.2259 30.4373 75.069 30.7081 74.8635 30.94C74.6579 31.1717 74.4079 31.3598 74.128 31.493C73.8483 31.6263 73.5446 31.7018 73.2351 31.7152ZM96.8984 20.9512H92.5598V33.0934H94.3748V28.4928H96.8984C97.4096 28.5187 97.9211 28.4405 98.4006 28.2627C98.881 28.0848 99.3197 27.8113 99.6915 27.4586C100.062 27.1059 100.357 26.6814 100.559 26.211C100.761 25.7405 100.865 25.2339 100.865 24.722C100.865 24.2101 100.761 23.7034 100.559 23.233C100.357 22.7625 100.062 22.3381 99.6915 21.9854C99.3197 21.6327 98.881 21.3592 98.4006 21.1813C97.9211 21.0035 97.4096 20.9253 96.8984 20.9512ZM96.8984 26.7748H94.3263V22.6109H96.8984C97.1834 22.5914 97.4697 22.6308 97.7396 22.7266C98.0094 22.8224 98.2559 22.9726 98.4646 23.1679C98.6743 23.3631 98.8402 23.5992 98.9548 23.8616C99.0683 24.1239 99.1275 24.4068 99.1275 24.6929C99.1275 24.9789 99.0683 25.2618 98.9548 25.5242C98.8402 25.7865 98.6743 26.0227 98.4646 26.2179C98.2559 26.4132 98.0094 26.5633 97.7396 26.6591C97.4697 26.7549 97.1834 26.7943 96.8984 26.7748ZM108.089 25.0277C107.428 24.9904 106.77 25.1467 106.195 25.4778C105.622 25.8088 105.156 26.3 104.857 26.8913L106.468 27.561C106.626 27.2674 106.867 27.0264 107.16 26.8677C107.453 26.7091 107.786 26.6396 108.118 26.668C108.349 26.6412 108.582 26.6604 108.805 26.7246C109.028 26.789 109.236 26.897 109.417 27.0424C109.597 27.1879 109.747 27.3679 109.858 27.5719C109.968 27.7759 110.037 27.9999 110.059 28.2307V28.3569C109.476 28.0513 108.827 27.8914 108.167 27.891C106.429 27.891 104.673 28.8616 104.673 30.6184C104.69 30.993 104.782 31.3603 104.943 31.6988C105.105 32.0371 105.333 32.3397 105.613 32.5885C105.894 32.8374 106.222 33.0274 106.577 33.1475C106.932 33.2676 107.308 33.3152 107.681 33.2876C108.138 33.3159 108.593 33.2208 109 33.0125C109.405 32.8041 109.749 32.4901 109.991 32.1034H110.059V33.074H111.807V28.4248C111.826 26.2604 110.254 25.0569 108.138 25.0569L108.089 25.0277ZM107.876 31.6764C107.274 31.6764 106.449 31.3852 106.449 30.6475C106.449 29.6769 107.478 29.3566 108.39 29.3566C108.97 29.3425 109.543 29.4833 110.05 29.7643C109.988 30.289 109.738 30.7737 109.348 31.13C108.958 31.4863 108.453 31.6906 107.924 31.7055L107.876 31.6764ZM118.145 25.2995L116.077 30.5893L113.922 25.3286H111.981L115.204 32.6761L113.369 36.772H115.252L120.231 25.3286L118.145 25.2995ZM101.829 33.0643H103.644V20.9512H101.829V33.0643Z" fill="white"/>
<path d="M8.21535 11.283C7.89663 11.6652 7.7368 12.155 7.76887 12.6516V34.1116C7.7368 34.6081 7.89663 35.098 8.21535 35.4801L8.28329 35.5481L20.3091 23.5223V23.2603L8.28329 11.2151L8.21535 11.283Z" fill="url(#paint0_linear_1_299)"/>
<path d="M24.3173 27.5322L20.3087 23.5236V23.2615L24.3173 19.2529L24.4143 19.3015L29.1606 21.9997C30.5194 22.7762 30.5194 24.038 29.1606 24.8048L24.4143 27.503L24.3173 27.5322Z" fill="url(#paint1_linear_1_299)"/>
<path d="M24.4135 27.4853L20.3078 23.3894L8.21411 35.4831C8.49021 35.7284 8.84382 35.8686 9.21296 35.8792C9.58209 35.8899 9.94315 35.7703 10.233 35.5413L24.4135 27.4853Z" fill="url(#paint2_linear_1_299)"/>
<path d="M24.4142 19.2808L10.2823 11.2248C9.99168 10.9976 9.63095 10.8792 9.26232 10.8898C8.89371 10.9005 8.54037 11.0396 8.2634 11.283L20.3571 23.3864L24.4142 19.2808Z" fill="url(#paint3_linear_1_299)"/>
<path opacity="0.25" d="M10.281 11.3701L29.2077 22.1244C29.4548 22.2472 29.6705 22.4246 29.8387 22.6432C30.0069 22.8618 30.123 23.1159 30.1783 23.3862C30.1544 23.087 30.0522 22.7993 29.8817 22.5523C29.7114 22.3052 29.4788 22.1074 29.2077 21.9788L10.281 11.2245C8.92214 10.4577 7.81565 11.0983 7.81565 12.6513V12.7872C7.76712 11.2342 8.87361 10.6422 10.281 11.3701Z" fill="white"/>
</g>
</g>
</g>
</g>
<rect x="0.5" y="0.76001" width="128.09" height="44" rx="2.5" stroke="white"/>
<defs>
<linearGradient id="paint0_linear_1_299" x1="19.2511" y1="12.4186" x2="2.95469" y2="28.715" gradientUnits="userSpaceOnUse">
<stop stop-color="#00A0FF"/>
<stop offset="0.01" stop-color="#00A1FF"/>
<stop offset="0.26" stop-color="#00BEFF"/>
<stop offset="0.51" stop-color="#00D2FF"/>
<stop offset="0.76" stop-color="#00DFFF"/>
<stop offset="1" stop-color="#00E3FF"/>
</linearGradient>
<linearGradient id="paint1_linear_1_299" x1="30.9271" y1="23.3877" x2="7.43854" y2="23.3877" gradientUnits="userSpaceOnUse">
<stop stop-color="#FFE000"/>
<stop offset="0.41" stop-color="#FFBD00"/>
<stop offset="0.78" stop-color="#FFA500"/>
<stop offset="1" stop-color="#FF9C00"/>
</linearGradient>
<linearGradient id="paint2_linear_1_299" x1="22.1811" y1="25.6121" x2="0.0901777" y2="47.703" gradientUnits="userSpaceOnUse">
<stop stop-color="#FF3A44"/>
<stop offset="1" stop-color="#C31162"/>
</linearGradient>
<linearGradient id="paint3_linear_1_299" x1="5.16718" y1="4.13938" x2="15.0382" y2="14.0007" gradientUnits="userSpaceOnUse">
<stop stop-color="#32A071"/>
<stop offset="0.07" stop-color="#2DA771"/>
<stop offset="0.48" stop-color="#15CF74"/>
<stop offset="0.8" stop-color="#06E775"/>
<stop offset="1" stop-color="#00F076"/>
</linearGradient>
<clipPath id="clip0_1_299">
<rect y="0.26001" width="129.09" height="45" rx="3" fill="white"/>
</clipPath>
<clipPath id="clip1_1_299">
<rect width="129.09" height="45" fill="white" transform="translate(0 0.26001)"/>
</clipPath>
<clipPath id="clip2_1_299">
<rect width="129.09" height="43.6771" fill="white" transform="translate(0 0.921387)"/>
</clipPath>
</defs>
</svg>
