<svg width="130" height="46" viewBox="0 0 130 46" fill="none" xmlns="http://www.w3.org/2000/svg">
<g clip-path="url(#clip0_1_284)">
<g clip-path="url(#clip1_1_284)">
<g clip-path="url(#clip2_1_284)">
<mask id="mask0_1_284" style="mask-type:luminance" maskUnits="userSpaceOnUse" x="0" y="0" width="129" height="45">
<path d="M128.717 0.921387H0V44.5933H128.717V0.921387Z" fill="white"/>
</mask>
<g mask="url(#mask0_1_284)">
<path d="M0.700378 3.72304C0.700378 2.56257 1.64113 1.62183 2.8016 1.62183H125.915C127.076 1.62183 128.016 2.56257 128.016 3.72304V41.7917C128.016 42.9522 127.076 43.8929 125.915 43.8929H2.80159C1.64112 43.8929 0.700378 42.9522 0.700378 41.7917V3.72304Z" stroke="#494949" stroke-width="1.4008" stroke-linecap="square"/>
<path fill-rule="evenodd" clip-rule="evenodd" d="M81.893 31.9187C82.6542 31.2323 83.0335 30.3431 83.0335 29.2503C83.0335 28.3622 82.7739 27.6179 82.2539 27.0232C81.7319 26.4266 80.9205 25.9063 79.8158 25.4612C78.9127 25.105 78.2904 24.7749 77.9479 24.4698C77.5542 24.1396 77.3584 23.7197 77.3584 23.2119C77.3584 22.7533 77.5302 22.3662 77.8727 22.0487C78.2779 21.6934 78.8433 21.5147 79.5669 21.5147C80.4824 21.5147 81.3006 21.7117 82.0242 22.1056L82.5385 20.4277C81.7637 20.0214 80.7931 19.8176 79.6247 19.8176C78.3145 19.8176 77.2667 20.1545 76.4814 20.8294C75.6931 21.5032 75.2995 22.3691 75.2995 23.4253C75.2995 25.0413 76.4225 26.2702 78.6705 27.1092C79.4964 27.4152 80.0879 27.7463 80.442 28.1025C80.798 28.4587 80.9755 28.898 80.9755 29.4193C80.9755 30.0043 80.7603 30.4735 80.3291 30.823C79.8959 31.1724 79.2929 31.3481 78.5181 31.3481C77.4385 31.3481 76.4476 31.074 75.5446 30.5275L75.0679 32.243C75.9063 32.7769 77.014 33.0433 78.3955 33.0433C79.892 33.0433 81.0565 32.6688 81.893 31.9187ZM47.6583 32.8522H49.8495L45.696 20.005H43.143L39.0098 32.8522H41.143L42.2863 29.0785H46.4581L47.6583 32.8522ZM45.0116 24.1416L46.097 27.4962H42.6497L43.7159 24.1416C43.9956 23.0749 44.1992 22.2678 44.3256 21.7214H44.3642C44.6816 22.9918 44.8968 23.7988 45.0116 24.1416ZM59.2028 31.8408C60.0538 30.9265 60.4792 29.6813 60.4792 28.1058C60.4792 26.6953 60.1146 25.5582 59.3832 24.6932C58.6538 23.8291 57.7421 23.3976 56.6499 23.3976C55.2529 23.3976 54.2118 23.9498 53.5258 25.0562H53.4873L53.3725 23.5877H51.5635C51.6136 24.6304 51.6397 25.647 51.6397 26.6374V36.6262H53.6966V31.7462H53.7352C54.2687 32.6228 55.1448 33.061 56.3643 33.061C57.4941 33.061 58.4406 32.6546 59.2028 31.8408ZM58.3836 28.1807C58.3836 27.279 58.1809 26.5357 57.7738 25.9507C57.329 25.3405 56.7318 25.0355 55.9831 25.0355C55.4757 25.0355 55.0144 25.2054 54.6025 25.5404C54.1895 25.8783 53.9194 26.3195 53.793 26.8658C53.7294 27.1207 53.6974 27.3292 53.6974 27.4933V29.038C53.6974 29.7118 53.904 30.2804 54.3169 30.7448C54.7299 31.2091 55.2662 31.4408 55.9262 31.4408C56.701 31.4408 57.3039 31.1415 57.7352 30.5449C58.1674 29.9474 58.3836 29.1596 58.3836 28.1807ZM69.851 31.8408C70.7029 30.9265 71.1285 29.6813 71.1285 28.1058C71.1285 26.6953 70.7627 25.5582 70.0343 24.6932C69.303 23.8291 68.3913 23.3976 67.3 23.3976C65.9021 23.3976 64.861 23.9498 64.1759 25.0562H64.1374L64.0226 23.5877H62.2136C62.2638 24.6304 62.2898 25.647 62.2898 26.6374V36.6262H64.3468V31.7462H64.3854C64.918 32.6228 65.7939 33.061 67.0135 33.061C68.1433 33.061 69.0898 32.6546 69.851 31.8408ZM69.0319 28.1807C69.0319 27.279 68.8283 26.5357 68.4212 25.9507C67.9763 25.3405 67.3811 25.0355 66.6314 25.0355C66.123 25.0355 65.6627 25.2054 65.2498 25.5404C64.8368 25.8783 64.5677 26.3195 64.4413 26.8658C64.3786 27.1207 64.3458 27.3292 64.3458 27.4933V29.038C64.3458 29.7118 64.5522 30.2804 64.9633 30.7448C65.3762 31.2081 65.9126 31.4408 66.5745 31.4408C67.3492 31.4408 67.9523 31.1415 68.3835 30.5449C68.8157 29.9474 69.0319 29.1596 69.0319 28.1807ZM89.8352 25.1351H87.5679V29.6328C87.5679 30.7768 87.9673 31.3483 88.7682 31.3483C89.1357 31.3483 89.4406 31.3164 89.6818 31.2527L89.7388 32.8156C89.3335 32.9672 88.8 33.0435 88.1391 33.0435C87.3267 33.0435 86.6919 32.7953 86.2336 32.3001C85.7773 31.804 85.5476 30.9718 85.5476 29.8027V25.1331H84.1969V23.5886H85.5476V21.8924L87.5679 21.2823V23.5886H89.8352V25.1351ZM98.845 31.652C99.6574 30.7378 100.065 29.5687 100.065 28.1447C100.065 26.7594 99.671 25.6289 98.8819 24.7533C98.0569 23.8508 96.964 23.3999 95.6056 23.3999C94.196 23.3999 93.0748 23.8575 92.2441 24.7726C91.4115 25.6869 90.9967 26.8627 90.9967 28.2983C90.9967 29.67 91.4 30.8082 92.2065 31.7099C93.0131 32.6115 94.0946 33.0624 95.4531 33.0624C96.8627 33.0624 97.9938 32.5932 98.845 31.652ZM97.9298 28.2111C97.9298 27.3568 97.7473 26.624 97.3785 26.0129C96.9468 25.2735 96.3302 24.9046 95.5313 24.9046C94.7045 24.9046 94.0764 25.2744 93.6451 26.0129C93.2756 26.6249 93.0933 27.3693 93.0933 28.2497C93.0933 29.1041 93.2756 29.8368 93.6451 30.4469C94.0899 31.1864 94.7113 31.5552 95.513 31.5552C96.2984 31.5552 96.9149 31.1787 97.36 30.4276C97.7386 29.8049 97.9298 29.0644 97.9298 28.2111ZM106.102 25.3432C106.33 25.3432 106.547 25.3625 106.751 25.4001V23.4376C106.598 23.4134 106.426 23.3999 106.236 23.3999C105.702 23.3999 105.208 23.565 104.749 23.8961C104.28 24.264 103.938 24.7543 103.721 25.3634H103.664L103.589 23.591H101.798C101.848 24.4676 101.874 25.4397 101.874 26.5075L101.855 32.8539H103.912V27.9932C103.912 27.2566 104.082 26.6465 104.425 26.1638C104.819 25.6164 105.378 25.3432 106.102 25.3432ZM115.95 27.7828C115.95 28.1516 115.926 28.4625 115.875 28.7163H109.704C109.728 29.6315 110.026 30.3314 110.599 30.8142C111.119 31.2456 111.792 31.4618 112.618 31.4618C113.531 31.4618 114.365 31.3161 115.115 31.0236L115.437 32.4523C114.561 32.8347 113.526 33.0248 112.333 33.0248C110.898 33.0248 109.771 32.602 108.951 31.7573C108.133 30.9126 107.722 29.7782 107.722 28.3553C107.722 26.9583 108.104 25.7951 108.867 24.8674C109.665 23.8769 110.746 23.3817 112.103 23.3817C113.438 23.3817 114.448 23.8769 115.134 24.8674C115.677 25.6541 115.95 26.6273 115.95 27.7828ZM113.589 25.6662C113.868 26.1113 114.002 26.6383 113.988 27.2485L109.704 27.2475C109.767 26.6258 109.97 26.092 110.313 25.6469C110.731 25.087 111.277 24.808 111.95 24.808C112.687 24.808 113.233 25.0937 113.589 25.6662Z" fill="white"/>
<path fill-rule="evenodd" clip-rule="evenodd" d="M65.6705 8.77026H66.6806V15.4091H65.6705V8.77026ZM44.3967 14.6688C45.0768 14.0944 45.4174 13.2391 45.4174 12.1028C45.4174 11.0911 45.102 10.314 44.4729 9.77047C43.9113 9.28971 43.0788 9.04933 41.974 9.04933C41.3489 9.04933 40.7699 9.09374 40.2326 9.18062V15.3889C40.6445 15.4391 41.1366 15.4643 41.7116 15.4643C42.8713 15.4643 43.7666 15.1988 44.3967 14.6688ZM43.7674 10.4369C44.1572 10.8308 44.3521 11.3956 44.3521 12.1322C44.3521 12.9566 44.1398 13.5841 43.7192 14.0147C43.2985 14.4452 42.7013 14.6605 41.9275 14.6605C41.5966 14.6605 41.3689 14.6518 41.2444 14.6325V9.91274C41.4692 9.86833 41.7403 9.8471 42.0587 9.8471C42.8084 9.8471 43.3776 10.044 43.7674 10.4369ZM51.0714 13.0968C51.0714 13.7967 50.8717 14.3701 50.4723 14.82C50.0535 15.2824 49.4988 15.5132 48.8061 15.5132C48.1384 15.5132 47.6068 15.2921 47.2102 14.848C46.8147 14.4048 46.6169 13.846 46.6169 13.1721C46.6169 12.4673 46.8204 11.8891 47.2295 11.4402C47.6387 10.9913 48.1886 10.7664 48.8813 10.7664C49.549 10.7664 50.0853 10.9875 50.4915 11.4305C50.8775 11.8611 51.0714 12.4172 51.0714 13.0968ZM49.7508 12.0477C49.9312 12.3479 50.022 12.708 50.022 13.128C50.022 13.5479 49.9283 13.9109 49.7412 14.2169C49.5232 14.5866 49.2202 14.7711 48.8342 14.7711C48.4406 14.7711 48.1357 14.5896 47.9167 14.2265C47.7363 13.9263 47.6456 13.5662 47.6456 13.1464C47.6456 12.7139 47.7353 12.3479 47.9167 12.0477C48.129 11.6847 48.4377 11.5032 48.8439 11.5032C49.2366 11.5032 49.5386 11.6847 49.7508 12.0477ZM58.6503 10.8596H57.6578L57.106 12.9854C56.9689 13.5164 56.8657 14.0154 56.7973 14.4837H56.7692C56.6756 14.0029 56.5541 13.5038 56.4045 12.9854L55.7861 10.8596H54.9621L54.3167 13.0317C54.1411 13.6178 54.0167 14.1024 53.9414 14.4827H53.923C53.841 14.0213 53.7388 13.5337 53.6143 13.0221L53.1 10.8587H52.0609L53.3992 15.4095H54.336L54.9621 13.4334C55.1184 12.9526 55.24 12.4632 55.3278 11.9631H55.3461C55.4407 12.4497 55.5623 12.94 55.7118 13.4334L56.3013 15.4095H57.2275L58.6503 10.8596ZM62.8813 15.4084H63.8924V12.6821C63.8924 12.0142 63.7178 11.5112 63.3685 11.1742C63.0878 10.8991 62.7346 10.762 62.3102 10.762C61.9743 10.762 61.6675 10.848 61.3935 11.0178C61.163 11.1636 60.9873 11.3461 60.8697 11.5672H60.8417L60.7944 10.8556H59.9058C59.93 11.3248 59.9425 11.7583 59.9425 12.158V15.4075H60.9537V12.7082C60.9537 12.41 61.0482 12.1493 61.2344 11.9282C61.4226 11.7072 61.6647 11.5971 61.9647 11.5971C62.5764 11.5971 62.8813 11.9987 62.8813 12.8019V15.4084ZM72.0338 14.8193C72.4333 14.3694 72.6329 13.796 72.6329 13.0961C72.6329 12.4165 72.439 11.8604 72.0531 11.4299C71.6459 10.9868 71.1105 10.7657 70.4419 10.7657C69.7501 10.7657 69.2002 10.9907 68.7911 11.4395C68.382 11.8884 68.1784 12.4667 68.1784 13.1714C68.1784 13.8452 68.3762 14.4042 68.7718 14.8473C69.1674 15.2914 69.699 15.5124 70.3676 15.5124C71.0594 15.5124 71.615 15.2817 72.0338 14.8193ZM71.5834 13.1291C71.5834 12.7092 71.4927 12.3491 71.3123 12.0488C71.101 11.6859 70.7981 11.5044 70.4063 11.5044C69.9992 11.5044 69.6904 11.6859 69.4791 12.0488C69.2977 12.3491 69.208 12.7149 69.208 13.1474C69.208 13.5674 69.2987 13.9275 69.4791 14.2277C69.6982 14.5907 70.0031 14.7722 70.3967 14.7722C70.7826 14.7722 71.0846 14.5878 71.3027 14.2181C71.4908 13.9121 71.5834 13.5491 71.5834 13.1291ZM76.6195 15.4091H77.5273C77.4839 15.1408 77.4617 14.7787 77.4617 14.3241V12.6482C77.4617 11.3932 76.8654 10.7657 75.6768 10.7657C75.0613 10.7657 74.5393 10.897 74.1167 11.1586L74.3222 11.8228C74.6638 11.5988 75.0593 11.4859 75.5079 11.4859C76.1379 11.4859 76.4525 11.7851 76.4525 12.3846V12.4696C75.6102 12.4628 74.956 12.6066 74.491 12.9001C74.025 13.1936 73.7935 13.6174 73.7935 14.1735C73.7935 14.5413 73.9122 14.8511 74.1495 15.1002C74.4109 15.3744 74.7583 15.5124 75.1876 15.5124C75.7627 15.5124 76.2055 15.3029 76.5162 14.8849H76.5441L76.6195 15.4091ZM76.477 13.845V13.1432C75.3617 13.1238 74.8039 13.4299 74.8039 14.0603C74.8039 14.2978 74.8676 14.4754 74.9979 14.5941C75.1281 14.7128 75.2941 14.7717 75.4919 14.7717C75.7138 14.7717 75.9212 14.7013 76.1103 14.5613C76.3004 14.4204 76.4171 14.2418 76.4606 14.0226C76.4711 13.9734 76.477 13.9135 76.477 13.845ZM82.375 15.4091H83.2723C83.2482 15.0346 83.2366 14.6262 83.2366 14.1832V8.77026H82.2246V11.3826H82.2053C81.9621 10.9704 81.5347 10.7647 80.924 10.7647C80.3682 10.7647 79.9013 10.9771 79.5202 11.4019C79.1265 11.8575 78.9307 12.4541 78.9307 13.1907C78.9307 13.8771 79.1111 14.4361 79.4729 14.8667C79.8347 15.2972 80.291 15.5125 80.839 15.5125C81.5251 15.5125 82.0133 15.2344 82.2998 14.6784H82.3278L82.375 15.4091ZM82.2249 13.4903V12.7315C82.2249 12.6002 82.2153 12.494 82.1969 12.4129C82.1399 12.1697 82.0175 11.965 81.8312 11.7999C81.6431 11.6348 81.4164 11.5518 81.1549 11.5518C80.7776 11.5518 80.4825 11.7014 80.2653 12.0016C80.0501 12.3019 79.9411 12.6851 79.9411 13.1534C79.9411 13.6032 80.0444 13.9682 80.2518 14.2491C80.4708 14.5483 80.7661 14.698 81.1356 14.698C81.4675 14.698 81.7328 14.5734 81.9345 14.3234C82.1294 14.0927 82.2249 13.8146 82.2249 13.4903ZM91.3214 14.8193C91.7208 14.3694 91.9205 13.796 91.9205 13.0961C91.9205 12.4165 91.7266 11.8604 91.3406 11.4299C90.9353 10.9868 90.398 10.7657 89.7313 10.7657C89.0376 10.7657 88.4877 10.9907 88.0786 11.4395C87.6695 11.8884 87.4659 12.4667 87.4659 13.1714C87.4659 13.8452 87.6637 14.4042 88.0593 14.8473C88.4568 15.2914 88.9884 15.5124 89.6551 15.5124C90.3488 15.5124 90.9025 15.2817 91.3214 14.8193ZM90.8728 13.1291C90.8728 12.7092 90.7822 12.3491 90.6017 12.0488C90.3885 11.6859 90.0875 11.5044 89.6938 11.5044C89.2886 11.5044 88.9799 11.6859 88.7666 12.0488C88.5853 12.3491 88.4955 12.7149 88.4955 13.1474C88.4955 13.5674 88.5863 13.9275 88.7666 14.2277C88.9857 14.5907 89.2906 14.7722 89.6842 14.7722C90.0702 14.7722 90.374 14.5878 90.5921 14.2181C90.7783 13.9121 90.8728 13.5491 90.8728 13.1291ZM96.3464 15.4084H97.3562V12.6821C97.3562 12.0142 97.1834 11.5112 96.8327 11.1742C96.552 10.8991 96.1989 10.762 95.7753 10.762C95.4386 10.762 95.1327 10.848 94.8577 11.0178C94.6282 11.1636 94.4526 11.3461 94.3339 11.5672H94.3059L94.2587 10.8556H93.371C93.3951 11.3248 93.4067 11.7583 93.4067 12.158V15.4075H94.4188V12.7082C94.4188 12.41 94.5124 12.1493 94.6995 11.9282C94.8868 11.7072 95.1289 11.5971 95.4289 11.5971C96.0416 11.5971 96.3464 11.9987 96.3464 12.8019V15.4084ZM104.16 11.6153H103.048V13.8261C103.048 14.388 103.246 14.6689 103.637 14.6689C103.818 14.6689 103.969 14.6534 104.087 14.6216L104.113 15.389C103.914 15.4644 103.651 15.502 103.328 15.502C102.929 15.502 102.618 15.3803 102.394 15.1371C102.167 14.8938 102.056 14.4844 102.056 13.91V11.6153H101.391V10.8576H102.056V10.0235L103.047 9.72419V10.8566H104.16V11.6153ZM108.502 15.4091H109.514V12.7032C109.514 12.0294 109.342 11.5196 109 11.1769C108.725 10.9019 108.378 10.7647 107.96 10.7647C107.369 10.7647 106.912 11.0138 106.593 11.5129H106.574V8.77026H105.565V15.4082H106.574V12.6714C106.574 12.5285 106.591 12.4069 106.622 12.3074C106.797 11.8344 107.117 11.5979 107.586 11.5979C108.197 11.5979 108.502 12.0062 108.502 12.822V15.4091ZM115.036 12.9181C115.036 13.0995 115.022 13.2521 114.998 13.3766H111.966C111.979 13.8265 112.124 14.1692 112.404 14.4067C112.662 14.6191 112.993 14.7252 113.397 14.7252C113.847 14.7252 114.255 14.6538 114.624 14.51L114.782 15.2128C114.35 15.4 113.844 15.4937 113.256 15.4937C112.552 15.4937 111.997 15.2862 111.595 14.871C111.192 14.4559 110.992 13.8989 110.992 13.1999C110.992 12.5135 111.178 11.942 111.554 11.4863C111.945 10.9999 112.475 10.7566 113.144 10.7566C113.798 10.7566 114.295 10.9999 114.631 11.4863C114.902 11.8725 115.036 12.3504 115.036 12.9181ZM113.875 11.8807C114.012 12.0988 114.079 12.3576 114.071 12.6578H111.966C111.999 12.3517 112.098 12.0902 112.266 11.871C112.471 11.5958 112.74 11.4588 113.07 11.4588C113.432 11.4588 113.699 11.5997 113.875 11.8807Z" fill="white"/>
<path fill-rule="evenodd" clip-rule="evenodd" d="M25.045 8.73682C25.2065 10.2052 24.6246 11.6521 23.7742 12.7156C22.8868 13.7627 21.4671 14.5634 20.0843 14.4603C19.9034 13.0474 20.604 11.545 21.3883 10.6284C22.2747 9.58824 23.8141 8.79132 25.045 8.73682ZM29.5707 17.2071C29.4164 17.2992 26.8591 18.8255 26.8872 21.9382C26.9193 25.6971 30.1751 26.9397 30.215 26.9533C30.1956 27.0409 29.7051 28.7466 28.4839 30.4787C27.4642 32.0035 26.3958 33.4941 24.6988 33.5214C23.892 33.5399 23.3473 33.308 22.7796 33.0662C22.1875 32.814 21.5704 32.5513 20.6052 32.5513C19.5818 32.5513 18.9374 32.8225 18.3159 33.084C17.7786 33.3102 17.2583 33.5292 16.5252 33.5593C14.909 33.6187 13.6741 31.9315 12.6174 30.4203C10.5049 27.3348 8.86048 21.7251 11.0654 17.9078C12.1339 16.0357 14.0819 14.83 16.1642 14.798C17.0811 14.7792 17.9606 15.1326 18.7316 15.4424C19.3212 15.6793 19.8473 15.8907 20.2783 15.8907C20.6567 15.8907 21.1681 15.6878 21.7641 15.4512C22.7033 15.0784 23.8528 14.6222 25.0238 14.7454C25.8246 14.7688 28.1036 15.0616 29.5738 17.2053L29.5707 17.2071Z" fill="white"/>
</g>
</g>
</g>
</g>
<rect x="0.5" y="0.76001" width="128.09" height="44" rx="2.5" stroke="white"/>
<defs>
<clipPath id="clip0_1_284">
<rect y="0.26001" width="129.09" height="45" rx="3" fill="white"/>
</clipPath>
<clipPath id="clip1_1_284">
<rect width="129.09" height="45" fill="white" transform="translate(0 0.26001)"/>
</clipPath>
<clipPath id="clip2_1_284">
<rect width="129.09" height="43.6771" fill="white" transform="translate(0 0.921387)"/>
</clipPath>
</defs>
</svg>
