<svg width="134" height="46" viewBox="0 0 134 46" fill="none" xmlns="http://www.w3.org/2000/svg">
<g clip-path="url(#clip0_1_462)">
<g clip-path="url(#clip1_1_462)">
<g clip-path="url(#clip2_1_462)">
<mask id="mask0_1_462" style="mask-type:luminance" maskUnits="userSpaceOnUse" x="0" y="0" width="133" height="46">
<path d="M132.894 0.310059H0.278442V45.3048H132.894V0.310059Z" fill="white"/>
</mask>
<g mask="url(#mask0_1_462)">
<path d="M1.00006 3.19659C1.00006 2.00098 1.9693 1.03174 3.16492 1.03174H130.007C131.203 1.03174 132.172 2.00097 132.172 3.19659V42.4183C132.172 43.6139 131.203 44.5831 130.007 44.5831H3.16491C1.96929 44.5831 1.00006 43.6139 1.00006 42.4183V3.19659Z" stroke="#494949" stroke-width="1.44323" stroke-linecap="square"/>
<path fill-rule="evenodd" clip-rule="evenodd" d="M84.6519 32.2464C85.4362 31.5392 85.827 30.6231 85.827 29.4972C85.827 28.5822 85.5596 27.8153 85.0238 27.2026C84.486 26.588 83.6499 26.0519 82.5118 25.5933C81.5813 25.2263 80.9402 24.8862 80.5873 24.5719C80.1817 24.2317 79.9799 23.7991 79.9799 23.2759C79.9799 22.8034 80.1569 22.4046 80.5098 22.0774C80.9273 21.7114 81.5098 21.5273 82.2553 21.5273C83.1986 21.5273 84.0416 21.7302 84.7871 22.1361L85.3169 20.4074C84.5187 19.9887 83.5187 19.7788 82.3149 19.7788C80.965 19.7788 79.8855 20.1259 79.0764 20.8212C78.2642 21.5154 77.8587 22.4076 77.8587 23.4957C77.8587 25.1607 79.0157 26.4268 81.3318 27.2912C82.1827 27.6065 82.7922 27.9476 83.157 28.3146C83.5238 28.6816 83.7066 29.1342 83.7066 29.6713C83.7066 30.274 83.4849 30.7574 83.0406 31.1175C82.5943 31.4775 81.9731 31.6585 81.1749 31.6585C80.0626 31.6585 79.0417 31.3761 78.1113 30.8131L77.6201 32.5805C78.4839 33.1306 79.6252 33.4051 81.0486 33.4051C82.5904 33.4051 83.7901 33.0192 84.6519 32.2464ZM49.3803 33.2082H51.6379L47.3586 19.9718H44.7282L40.4698 33.2082H42.6676L43.8456 29.3202H48.1437L49.3803 33.2082ZM46.6535 24.2337L47.7718 27.69H44.2201L45.3185 24.2337C45.6067 23.1347 45.8165 22.3032 45.9467 21.7402H45.9865C46.3135 23.0491 46.5352 23.8806 46.6535 24.2337ZM61.2744 32.1661C62.1512 31.2242 62.5896 29.9412 62.5896 28.318C62.5896 26.8648 62.2139 25.6932 61.4604 24.802C60.7089 23.9118 59.7695 23.4672 58.6442 23.4672C57.2049 23.4672 56.1323 24.0361 55.4255 25.176H55.3858L55.2676 23.6631H53.4038C53.4555 24.7373 53.4823 25.7847 53.4823 26.8051V37.0965H55.6016V32.0687H55.6413C56.191 32.9718 57.0936 33.4233 58.3501 33.4233C59.5141 33.4233 60.4891 33.0046 61.2744 32.1661ZM60.4305 28.3952C60.4305 27.4662 60.2217 26.7004 59.8022 26.0976C59.344 25.469 58.7286 25.1547 57.9572 25.1547C57.4344 25.1547 56.9593 25.3298 56.5349 25.6749C56.1094 26.023 55.8311 26.4776 55.7009 27.0405C55.6353 27.3031 55.6023 27.5179 55.6023 27.687V29.2784C55.6023 29.9727 55.8152 30.5585 56.2406 31.0369C56.6661 31.5153 57.2187 31.754 57.8987 31.754C58.6969 31.754 59.3181 31.4457 59.7625 30.831C60.2078 30.2154 60.4305 29.4037 60.4305 28.3952ZM72.2452 32.1661C73.1229 31.2242 73.5613 29.9412 73.5613 28.318C73.5613 26.8648 73.1846 25.6932 72.4341 24.802C71.6806 23.9118 70.7413 23.4672 69.617 23.4672C68.1767 23.4672 67.104 24.0361 66.3982 25.176H66.3586L66.2402 23.6631H64.3764C64.4281 24.7373 64.4549 25.7847 64.4549 26.8051V37.0965H66.5742V32.0687H66.6141C67.1628 32.9718 68.0652 33.4233 69.3217 33.4233C70.4857 33.4233 71.4609 33.0046 72.2452 32.1661ZM71.4013 28.3952C71.4013 27.4662 71.1915 26.7004 70.772 26.0976C70.3137 25.469 69.7004 25.1547 68.928 25.1547C68.4042 25.1547 67.93 25.3298 67.5046 25.6749C67.0791 26.023 66.8019 26.4776 66.6717 27.0405C66.6071 27.3031 66.5732 27.5179 66.5732 27.687V29.2784C66.5732 29.9727 66.7859 30.5585 67.2094 31.0369C67.6348 31.5143 68.1876 31.754 68.8695 31.754C69.6677 31.754 70.289 31.4457 70.7333 30.831C71.1786 30.2154 71.4013 29.4037 71.4013 28.3952ZM92.8347 25.2573H90.4987V29.8913C90.4987 31.0699 90.9103 31.6587 91.7354 31.6587C92.1141 31.6587 92.4282 31.6259 92.6767 31.5602L92.7354 33.1705C92.3179 33.3267 91.7681 33.4053 91.0872 33.4053C90.2502 33.4053 89.5961 33.1496 89.124 32.6394C88.6538 32.1282 88.4173 31.2708 88.4173 30.0663V25.2553H87.0257V23.664H88.4173V21.9164L90.4987 21.2878V23.664H92.8347V25.2573ZM102.117 31.9716C102.954 31.0297 103.374 29.8252 103.374 28.3581C103.374 26.9308 102.968 25.7661 102.155 24.864C101.305 23.9341 100.179 23.4696 98.7799 23.4696C97.3276 23.4696 96.1725 23.941 95.3166 24.8839C94.4588 25.8258 94.0313 27.0373 94.0313 28.5163C94.0313 29.9296 94.4468 31.1023 95.2778 32.0313C96.1088 32.9602 97.2231 33.4247 98.6227 33.4247C100.075 33.4247 101.24 32.9413 102.117 31.9716ZM101.174 28.4265C101.174 27.5463 100.986 26.7913 100.606 26.1617C100.162 25.3999 99.5264 25.0199 98.7033 25.0199C97.8514 25.0199 97.2043 25.4009 96.76 26.1617C96.3793 26.7923 96.1915 27.5592 96.1915 28.4663C96.1915 29.3465 96.3793 30.1014 96.76 30.73C97.2182 31.4919 97.8584 31.8719 98.6844 31.8719C99.4936 31.8719 100.129 31.484 100.587 30.7101C100.977 30.0686 101.174 29.3057 101.174 28.4265ZM109.594 25.4717C109.829 25.4717 110.052 25.4916 110.262 25.5304V23.5084C110.105 23.4835 109.928 23.4696 109.732 23.4696C109.182 23.4696 108.673 23.6397 108.2 23.9808C107.717 24.3598 107.364 24.865 107.141 25.4926H107.082L107.005 23.6665H105.159C105.211 24.5696 105.238 25.5712 105.238 26.6713L105.218 33.2099H107.337V28.202C107.337 27.4431 107.513 26.8145 107.866 26.3172C108.272 25.7532 108.848 25.4717 109.594 25.4717ZM119.74 27.9852C119.74 28.3652 119.715 28.6855 119.663 28.947H113.305C113.33 29.8899 113.637 30.611 114.227 31.1084C114.763 31.5529 115.456 31.7757 116.307 31.7757C117.248 31.7757 118.107 31.6256 118.88 31.3242L119.212 32.7962C118.309 33.1901 117.243 33.386 116.014 33.386C114.535 33.386 113.374 32.9504 112.529 32.0801C111.686 31.2098 111.263 30.0411 111.263 28.5751C111.263 27.1358 111.656 25.9373 112.442 24.9815C113.265 23.961 114.378 23.4508 115.777 23.4508C117.152 23.4508 118.193 23.961 118.899 24.9815C119.459 25.7921 119.74 26.7947 119.74 27.9852ZM117.308 25.8045C117.595 26.2631 117.733 26.8061 117.719 27.4347L113.305 27.4337C113.37 26.7932 113.579 26.2432 113.932 25.7846C114.363 25.2078 114.926 24.9203 115.619 24.9203C116.378 24.9203 116.941 25.2147 117.308 25.8045Z" fill="white"/>
<path fill-rule="evenodd" clip-rule="evenodd" d="M67.938 8.39648H68.9787V15.2364H67.938V8.39648ZM46.0198 14.4736C46.7206 13.8818 47.0715 13.0006 47.0715 11.8299C47.0715 10.7876 46.7465 9.98695 46.0984 9.42698C45.5198 8.93166 44.662 8.684 43.5238 8.684C42.8797 8.684 42.2832 8.72975 41.7296 8.81927V15.2156C42.154 15.2673 42.661 15.2932 43.2534 15.2932C44.4483 15.2932 45.3707 15.0197 46.0198 14.4736ZM45.3715 10.1136C45.7731 10.5194 45.9739 11.1013 45.9739 11.8602C45.9739 12.7096 45.7552 13.3561 45.3218 13.7997C44.8884 14.2433 44.2731 14.4651 43.4759 14.4651C43.1349 14.4651 42.9003 14.4561 42.7721 14.4362V9.57356C43.0037 9.52781 43.283 9.50593 43.611 9.50593C44.3834 9.50593 44.9699 9.70883 45.3715 10.1136ZM52.8967 12.854C52.8967 13.5751 52.691 14.1659 52.2795 14.6294C51.848 15.1058 51.2765 15.3436 50.5628 15.3436C49.8749 15.3436 49.3272 15.1158 48.9186 14.6583C48.5111 14.2017 48.3073 13.6259 48.3073 12.9316C48.3073 12.2055 48.517 11.6098 48.9385 11.1473C49.36 10.6848 49.9266 10.453 50.6403 10.453C51.3282 10.453 51.8808 10.6808 52.2993 11.1373C52.6969 11.5809 52.8967 12.1538 52.8967 12.854ZM51.5361 11.7732C51.722 12.0825 51.8155 12.4535 51.8155 12.8862C51.8155 13.3188 51.719 13.6928 51.5262 14.0081C51.3016 14.389 50.9894 14.579 50.5918 14.579C50.1862 14.579 49.8721 14.392 49.6465 14.018C49.4606 13.7087 49.3672 13.3377 49.3672 12.9051C49.3672 12.4595 49.4596 12.0825 49.6465 11.7732C49.8652 11.3992 50.1833 11.2122 50.6018 11.2122C51.0063 11.2122 51.3175 11.3992 51.5361 11.7732ZM60.7052 10.5491H59.6826L59.1141 12.7393C58.9729 13.2863 58.8665 13.8005 58.796 14.2829H58.7671C58.6707 13.7876 58.5455 13.2734 58.3914 12.7393L57.7542 10.5491H56.9053L56.2403 12.787C56.0594 13.3908 55.9312 13.8901 55.8536 14.2819H55.8347C55.7502 13.8065 55.6449 13.3042 55.5166 12.7771L54.9868 10.5481H53.9162L55.295 15.2368H56.2602L56.9053 13.2008C57.0663 12.7055 57.1916 12.2012 57.282 11.686H57.3009C57.3984 12.1873 57.5236 12.6925 57.6777 13.2008L58.285 15.2368H59.2393L60.7052 10.5491ZM65.0643 15.2356H66.1061V12.4268C66.1061 11.7386 65.9262 11.2204 65.5663 10.8732C65.2771 10.5898 64.9132 10.4485 64.4759 10.4485C64.1299 10.4485 63.8138 10.5371 63.5315 10.7121C63.294 10.8623 63.113 11.0503 62.9918 11.2781H62.9629L62.9142 10.545H61.9987C62.0236 11.0284 62.0365 11.475 62.0365 11.8868V15.2347H63.0783V12.4537C63.0783 12.1464 63.1757 11.8778 63.3675 11.65C63.5614 11.4223 63.8109 11.3089 64.12 11.3089C64.7502 11.3089 65.0643 11.7227 65.0643 12.5502V15.2356ZM74.494 14.6287C74.9056 14.1652 75.1113 13.5744 75.1113 12.8533C75.1113 12.1531 74.9115 11.5802 74.5139 11.1366C74.0944 10.6801 73.5428 10.4523 72.8539 10.4523C72.1412 10.4523 71.5746 10.6841 71.1531 11.1465C70.7316 11.609 70.5219 12.2048 70.5219 12.9309C70.5219 13.6251 70.7257 14.201 71.1332 14.6576C71.5408 15.1151 72.0885 15.3428 72.7774 15.3428C73.4901 15.3428 74.0626 15.1051 74.494 14.6287ZM74.03 12.8873C74.03 12.4547 73.9366 12.0837 73.7507 11.7743C73.533 11.4004 73.2209 11.2134 72.8173 11.2134C72.3978 11.2134 72.0797 11.4004 71.862 11.7743C71.6751 12.0837 71.5827 12.4606 71.5827 12.9062C71.5827 13.3389 71.6761 13.7099 71.862 14.0192C72.0877 14.3932 72.4018 14.5802 72.8074 14.5802C73.205 14.5802 73.5161 14.3902 73.7408 14.0093C73.9346 13.694 74.03 13.32 74.03 12.8873ZM79.2186 15.2364H80.1539C80.1092 14.9599 80.0864 14.5869 80.0864 14.1185V12.3918C80.0864 11.0988 79.472 10.4523 78.2474 10.4523C77.6132 10.4523 77.0754 10.5876 76.64 10.8571L76.8518 11.5414C77.2037 11.3107 77.6112 11.1943 78.0734 11.1943C78.7225 11.1943 79.0466 11.5026 79.0466 12.1203V12.2078C78.1788 12.2008 77.5048 12.349 77.0257 12.6514C76.5456 12.9538 76.307 13.3904 76.307 13.9633C76.307 14.3423 76.4293 14.6615 76.6738 14.9181C76.9432 15.2006 77.3011 15.3428 77.7434 15.3428C78.3359 15.3428 78.7921 15.127 79.1122 14.6963H79.141L79.2186 15.2364ZM79.0718 13.6249V12.9018C77.9227 12.8819 77.3481 13.1972 77.3481 13.8467C77.3481 14.0914 77.4137 14.2744 77.5479 14.3967C77.6821 14.519 77.8531 14.5797 78.0569 14.5797C78.2855 14.5797 78.4992 14.5071 78.694 14.3629C78.8899 14.2177 79.0101 14.0337 79.0549 13.8079C79.0658 13.7572 79.0718 13.6955 79.0718 13.6249ZM85.1485 15.2364H86.073C86.0481 14.8505 86.0362 14.4298 86.0362 13.9733V8.39648H84.9935V11.0879H84.9736C84.7231 10.6632 84.2827 10.4513 83.6535 10.4513C83.0809 10.4513 82.5998 10.6701 82.2072 11.1078C81.8016 11.5772 81.5998 12.1919 81.5998 12.9508C81.5998 13.658 81.7857 14.2339 82.1585 14.6775C82.5312 15.1211 83.0014 15.3429 83.566 15.3429C84.2728 15.3429 84.7758 15.0564 85.071 14.4835H85.0998L85.1485 15.2364ZM84.9938 13.2594V12.4777C84.9938 12.3424 84.9839 12.233 84.965 12.1494C84.9063 11.8988 84.7801 11.6879 84.5882 11.5179C84.3944 11.3478 84.1608 11.2622 83.8914 11.2622C83.5027 11.2622 83.1986 11.4164 82.9749 11.7257C82.7532 12.0351 82.6409 12.4299 82.6409 12.9123C82.6409 13.3758 82.7473 13.7518 82.961 14.0412C83.1866 14.3495 83.4908 14.5037 83.8715 14.5037C84.2135 14.5037 84.4868 14.3754 84.6946 14.1178C84.8954 13.8801 84.9938 13.5936 84.9938 13.2594ZM94.3658 14.6287C94.7773 14.1652 94.9831 13.5744 94.9831 12.8533C94.9831 12.1531 94.7833 11.5802 94.3856 11.1366C93.9681 10.6801 93.4145 10.4523 92.7276 10.4523C92.0129 10.4523 91.4463 10.6841 91.0248 11.1465C90.6033 11.609 90.3936 12.2048 90.3936 12.9309C90.3936 13.6251 90.5974 14.201 91.0049 14.6576C91.4145 15.1151 91.9622 15.3428 92.6491 15.3428C93.3638 15.3428 93.9343 15.1051 94.3658 14.6287ZM93.9037 12.8873C93.9037 12.4547 93.8103 12.0837 93.6244 11.7743C93.4047 11.4004 93.0946 11.2134 92.689 11.2134C92.2715 11.2134 91.9534 11.4004 91.7337 11.7743C91.5469 12.0837 91.4544 12.4606 91.4544 12.9062C91.4544 13.3389 91.5479 13.7099 91.7337 14.0192C91.9594 14.3932 92.2735 14.5802 92.6791 14.5802C93.0767 14.5802 93.3898 14.3902 93.6145 14.0093C93.8063 13.694 93.9037 13.32 93.9037 12.8873ZM99.5431 15.2356H100.583V12.4268C100.583 11.7386 100.405 11.2204 100.044 10.8732C99.7549 10.5898 99.3911 10.4485 98.9547 10.4485C98.6078 10.4485 98.2926 10.5371 98.0093 10.7121C97.7728 10.8623 97.5919 11.0503 97.4696 11.2781H97.4408L97.3921 10.545H96.4775C96.5024 11.0284 96.5143 11.475 96.5143 11.8868V15.2347H97.5571V12.4537C97.5571 12.1464 97.6535 11.8778 97.8463 11.65C98.0392 11.4223 98.2887 11.3089 98.5978 11.3089C99.229 11.3089 99.5431 11.7227 99.5431 12.5502V15.2356ZM107.593 11.3277H106.447V13.6054C106.447 14.1843 106.651 14.4737 107.054 14.4737C107.241 14.4737 107.396 14.4578 107.518 14.425L107.545 15.2157C107.339 15.2933 107.069 15.3321 106.736 15.3321C106.325 15.3321 106.004 15.2067 105.773 14.9561C105.54 14.7055 105.425 14.2837 105.425 13.6919V11.3277H104.74V10.547H105.425V9.68764L106.446 9.3793V10.546H107.593V11.3277ZM112.066 15.2364H113.109V12.4485C113.109 11.7543 112.932 11.2291 112.579 10.876C112.296 10.5926 111.939 10.4513 111.508 10.4513C110.899 10.4513 110.428 10.7079 110.1 11.2222H110.08V8.39648H109.04V15.2354H110.08V12.4157C110.08 12.2685 110.098 12.1432 110.129 12.0407C110.31 11.5534 110.64 11.3097 111.123 11.3097C111.752 11.3097 112.066 11.7304 112.066 12.5709V15.2364ZM118.798 12.6699C118.798 12.8568 118.784 13.014 118.759 13.1423H115.635C115.649 13.6058 115.798 13.9589 116.087 14.2036C116.352 14.4224 116.693 14.5318 117.11 14.5318C117.573 14.5318 117.994 14.4582 118.374 14.31L118.537 15.0341C118.092 15.227 117.57 15.3235 116.964 15.3235C116.239 15.3235 115.667 15.1097 115.253 14.682C114.838 14.2543 114.632 13.6804 114.632 12.9603C114.632 12.2531 114.824 11.6643 115.211 11.1948C115.614 10.6936 116.16 10.4429 116.849 10.4429C117.523 10.4429 118.035 10.6936 118.381 11.1948C118.66 11.5927 118.798 12.085 118.798 12.6699ZM117.602 11.6011C117.743 11.8258 117.812 12.0924 117.804 12.4017H115.635C115.669 12.0864 115.771 11.8169 115.944 11.5911C116.156 11.3076 116.433 11.1664 116.773 11.1664C117.146 11.1664 117.421 11.3116 117.602 11.6011Z" fill="white"/>
<path fill-rule="evenodd" clip-rule="evenodd" d="M26.082 8.3623C26.2484 9.87511 25.6489 11.3659 24.7727 12.4616C23.8584 13.5404 22.3957 14.3654 20.9711 14.2592C20.7847 12.8035 21.5065 11.2556 22.3145 10.3112C23.2278 9.23951 24.8138 8.41845 26.082 8.3623ZM30.7448 17.0892C30.5858 17.1841 27.9511 18.7566 27.98 21.9636C28.0131 25.8363 31.3675 27.1165 31.4086 27.1306C31.3886 27.2208 30.8833 28.9782 29.6251 30.7627C28.5745 32.3337 27.4737 33.8695 25.7253 33.8976C24.8941 33.9167 24.3329 33.6777 23.748 33.4286C23.138 33.1688 22.5022 32.8981 21.5077 32.8981C20.4533 32.8981 19.7894 33.1775 19.1491 33.447C18.5955 33.68 18.0595 33.9056 17.3041 33.9367C15.639 33.9979 14.3667 32.2595 13.278 30.7026C11.1015 27.5236 9.40732 21.744 11.679 17.8111C12.7798 15.8823 14.7868 14.6401 16.9322 14.6071C17.8769 14.5877 18.783 14.9518 19.5774 15.271C20.1848 15.5151 20.7269 15.7329 21.1709 15.7329C21.5608 15.7329 22.0877 15.5238 22.7017 15.2801C23.6694 14.896 24.8537 14.426 26.0602 14.5529C26.8852 14.577 29.2332 14.8787 30.748 17.0873L30.7448 17.0892Z" fill="white"/>
</g>
</g>
</g>
</g>
<defs>
<clipPath id="clip0_1_462">
<rect x="0.278442" y="0.310059" width="133" height="45" rx="3" fill="white"/>
</clipPath>
<clipPath id="clip1_1_462">
<rect width="133" height="45" fill="white" transform="translate(0.278442 0.310059)"/>
</clipPath>
<clipPath id="clip2_1_462">
<rect width="133" height="45" fill="white" transform="translate(0.278442 0.310059)"/>
</clipPath>
</defs>
</svg>
