<svg width="59" height="86" viewBox="0 0 59 86" fill="none" xmlns="http://www.w3.org/2000/svg">
<g clip-path="url(#clip0_1_244)">
<g clip-path="url(#clip1_1_244)">
<path d="M39.8992 26.935H31.6342V23.0925H39.8992C40.9142 23.0925 41.7117 23.89 41.7117 24.905V25.1225C41.7117 26.065 40.9142 26.935 39.8992 26.935Z" fill="#D2D3D3"/>
<path d="M39.8992 27.6599H31.6342C31.1992 27.6599 30.9092 27.3699 30.9092 26.9349V23.0924C30.9092 22.6574 31.1992 22.3674 31.6342 22.3674H39.8992C41.2767 22.3674 42.4367 23.5274 42.4367 24.9049V25.1224C42.4367 26.4999 41.2767 27.6599 39.8992 27.6599ZM32.3592 26.2099H39.8992C40.4792 26.2099 40.9867 25.7024 40.9867 25.1224V24.9049C40.9867 24.3249 40.4792 23.8174 39.8992 23.8174H32.3592V26.2099Z" fill="#202124"/>
<path d="M27.0667 26.935H19.5992C18.5842 26.935 17.7867 26.1375 17.7867 25.1225V24.905C17.7867 23.89 18.5842 23.0925 19.5992 23.0925H27.0667V26.935Z" fill="#D2D3D3"/>
<path d="M27.1393 27.6599H19.5993C18.2218 27.6599 17.0618 26.4999 17.0618 25.1224V24.9049C17.0618 23.5274 18.2218 22.3674 19.5993 22.3674H27.0668C27.5018 22.3674 27.7918 22.6574 27.7918 23.0924V26.9349C27.8643 27.2974 27.5018 27.6599 27.1393 27.6599ZM19.5993 23.7449C19.0193 23.7449 18.5118 24.2524 18.5118 24.8324V25.0499C18.5118 25.6299 19.0193 26.1374 19.5993 26.1374H26.3418V23.7449H19.5993Z" fill="#202124"/>
<path d="M20.3242 55.645C19.3092 55.645 18.5117 54.8475 18.5117 53.8325V40.0575C18.5117 34.9825 21.1217 29.98 26.9943 29.98H31.7068C37.5793 29.98 40.2617 35.055 40.2617 40.0575V53.8325C40.2617 54.8475 39.4642 55.645 38.4492 55.645H20.3242Z" fill="#E4002B"/>
<path d="M38.4492 56.3701H20.3242C18.8742 56.3701 17.7867 55.2101 17.7867 53.8326V40.0576C17.7867 34.6926 20.6142 29.2551 26.9942 29.2551H31.7067C38.1592 29.2551 40.9867 34.6926 40.9867 40.0576V53.8326C40.9867 55.2101 39.8267 56.3701 38.4492 56.3701ZM26.9942 30.7051C21.6292 30.7051 19.2367 35.3451 19.2367 40.0576V53.8326C19.2367 54.4126 19.7442 54.9201 20.3242 54.9201H38.4492C39.0292 54.9201 39.5367 54.4126 39.5367 53.8326V40.0576C39.5367 35.3451 37.1442 30.7051 31.7792 30.7051H26.9942Z" fill="#202124"/>
<path d="M30.6917 61.155H28.1542C26.7042 61.155 25.5443 59.995 25.5443 58.545V51.005C25.5443 49.3375 26.9218 47.96 28.5893 47.96H30.2568C31.9243 47.96 33.3018 49.3375 33.3018 51.005V58.545C33.2293 59.995 32.1417 61.155 30.6917 61.155Z" fill="#4D4D50"/>
<path d="M30.6917 61.8801H28.1542C26.3417 61.8801 24.8192 60.3577 24.8192 58.5452V51.0051C24.8192 48.9026 26.4867 47.2351 28.5892 47.2351H30.2567C32.3592 47.2351 34.0267 48.9026 34.0267 51.0051V58.5452C34.0267 59.4152 33.6642 60.2851 33.0842 60.8651C32.5042 61.4451 31.5617 61.8801 30.6917 61.8801ZM28.5892 48.6851C27.2842 48.6851 26.2692 49.7001 26.2692 51.0051V58.5452C26.2692 59.5602 27.1392 60.4301 28.1542 60.4301H30.6917C31.1992 60.4301 31.6342 60.2127 31.9967 59.8502C32.3592 59.4877 32.5767 59.0527 32.5042 58.5452V51.0051C32.5042 49.7001 31.4892 48.6851 30.1842 48.6851H28.5892Z" fill="#202124"/>
<path d="M29.3867 31.575C32.8303 31.575 35.6217 28.7834 35.6217 25.34C35.6217 21.8965 32.8303 19.105 29.3867 19.105C25.9433 19.105 23.1517 21.8965 23.1517 25.34C23.1517 28.7834 25.9433 31.575 29.3867 31.575Z" fill="#E4002B"/>
<path d="M29.3867 32.3001C25.5442 32.3001 22.4267 29.1826 22.4267 25.3401C22.4267 21.4976 25.5442 18.3801 29.3867 18.3801C33.2292 18.3801 36.3467 21.4976 36.3467 25.3401C36.3467 29.1826 33.2292 32.3001 29.3867 32.3001ZM29.3867 19.8301C26.3417 19.8301 23.8767 22.2951 23.8767 25.3401C23.8767 28.3851 26.3417 30.8501 29.3867 30.8501C32.4317 30.8501 34.8967 28.3851 34.8967 25.3401C34.8967 22.2951 32.4317 19.8301 29.3867 19.8301Z" fill="#202124"/>
<path d="M29.3868 28.8201C31.3087 28.8201 32.8667 27.2621 32.8667 25.3401C32.8667 23.4182 31.3087 21.8601 29.3868 21.8601C27.4648 21.8601 25.9068 23.4182 25.9068 25.3401C25.9068 27.2621 27.4648 28.8201 29.3868 28.8201Z" fill="white"/>
<path d="M29.3867 29.545C27.0667 29.545 25.1817 27.66 25.1817 25.34C25.1817 23.02 27.0667 21.135 29.3867 21.135C31.7067 21.135 33.5917 23.02 33.5917 25.34C33.5917 27.66 31.7067 29.545 29.3867 29.545ZM29.3867 22.585C27.8642 22.585 26.6317 23.8175 26.6317 25.34C26.6317 26.8625 27.8642 28.095 29.3867 28.095C30.9092 28.095 32.1417 26.8625 32.1417 25.34C32.1417 23.8175 30.9092 22.585 29.3867 22.585Z" fill="#202124"/>
<path d="M23.5868 51.0051C23.1518 51.0051 22.8618 50.6426 22.8618 50.2801V47.6701C22.8618 44.3351 25.6168 41.5801 28.9518 41.5801H29.8218C33.1568 41.5801 35.9118 44.3351 35.9118 47.6701V50.2801C35.9118 50.7151 35.5493 51.0051 35.1868 51.0051H23.5868Z" fill="#E4002B"/>
<path d="M35.1867 51.73H23.5867C22.7892 51.73 22.1367 51.0775 22.1367 50.28V47.67C22.1367 43.9 25.1818 40.855 28.9518 40.855H29.8217C33.5917 40.855 36.6367 43.9 36.6367 47.67V50.28C36.6367 51.0775 35.9842 51.73 35.1867 51.73ZM28.9518 42.305C25.9793 42.305 23.5867 44.6975 23.5867 47.67V50.28H35.1867V47.67C35.1867 44.6975 32.7942 42.305 29.8217 42.305H28.9518Z" fill="#202124"/>
<path d="M29.8217 44.48C31.5617 44.48 33.0117 45.93 33.0117 47.67L29.8217 44.48Z" fill="#E4002B"/>
<path d="M33.0117 48.3951C32.5767 48.3951 32.2867 48.1051 32.2867 47.6701C32.2867 46.2926 31.1992 45.2051 29.8217 45.2051C29.3867 45.2051 29.0967 44.9151 29.0967 44.4801C29.0967 44.0451 29.3867 43.7551 29.8217 43.7551C31.9967 43.7551 33.7367 45.4951 33.7367 47.6701C33.7367 48.0326 33.4467 48.3951 33.0117 48.3951Z" fill="#202124"/>
<path opacity="0.8" d="M46.0617 67.68C46.0617 69.2816 38.5961 70.58 29.3867 70.58C20.1774 70.58 12.7117 69.2816 12.7117 67.68C12.7117 66.0784 20.1774 64.78 29.3867 64.78C38.5961 64.78 46.0617 66.0784 46.0617 67.68Z" fill="#D2D3D3"/>
</g>
</g>
<defs>
<clipPath id="clip0_1_244">
<rect width="58" height="85" fill="white" transform="translate(0.386749 0.530029)"/>
</clipPath>
<clipPath id="clip1_1_244">
<rect width="58" height="85" fill="white" transform="translate(0.386749 0.530029)"/>
</clipPath>
</defs>
</svg>
