<svg width="64" height="83" viewBox="0 0 64 83" fill="none" xmlns="http://www.w3.org/2000/svg">
<g clip-path="url(#clip0_1_210)">
<g clip-path="url(#clip1_1_210)">
<path d="M51.9336 32.2375V61.2175H11.7711V32.2375" fill="white"/>
<path d="M51.9336 62.005H11.7711C11.2986 62.005 10.9836 61.69 10.9836 61.2175V32.2375C10.9836 31.765 11.2986 31.45 11.7711 31.45C12.2436 31.45 12.5586 31.765 12.5586 32.2375V60.43H51.0673V32.2375C51.0673 31.765 51.3823 31.45 51.8548 31.45C52.3273 31.45 52.6423 31.765 52.6423 32.2375V61.2175C52.7211 61.69 52.3273 62.005 51.9336 62.005Z" fill="#202124"/>
<path d="M30.1198 62.0048H19.1736C18.7011 62.0048 18.3861 61.6898 18.3861 61.2173V42.0023C18.3861 41.5298 18.7011 41.2148 19.1736 41.2148H30.1198C30.5923 41.2148 30.9073 41.5298 30.9073 42.0023V61.2173C30.9073 61.6898 30.5923 62.0048 30.1198 62.0048ZM19.9611 60.4298H29.3323V42.7898H19.9611V60.4298Z" fill="#202124"/>
<path d="M46.8936 42.0024H34.9236V47.4362H46.8936V42.0024Z" fill="#D2D3D3"/>
<path d="M46.8936 48.2236H34.9236C34.4511 48.2236 34.1361 47.9086 34.1361 47.4361V42.0023C34.1361 41.5298 34.4511 41.2148 34.9236 41.2148H46.8936C47.3661 41.2148 47.6811 41.5298 47.6811 42.0023V47.4361C47.6811 47.9086 47.3661 48.2236 46.8936 48.2236ZM35.7111 46.6486H46.1061V42.7898H35.7111V46.6486Z" fill="#202124"/>
<path d="M17.3624 17.1174H15.5512L9.09367 28.0637H18.3074L22.9537 17.1174H17.3624Z" fill="#E4002B"/>
<path d="M18.3073 28.8513H9.09359C8.77859 28.8513 8.54234 28.6938 8.38484 28.4576C8.22734 28.2213 8.22734 27.9063 8.38484 27.6701L14.8423 16.7238C14.9998 16.4876 15.3148 16.3301 15.5511 16.3301H22.9537C23.1899 16.3301 23.4261 16.4876 23.5836 16.6451C23.7411 16.8026 23.7411 17.1176 23.6623 17.3538L19.0161 28.3001C18.8586 28.6151 18.6223 28.8513 18.3073 28.8513ZM10.4323 27.2763H17.7561L21.7724 17.9051H16.0236L10.4323 27.2763Z" fill="#202124"/>
<path d="M22.9537 17.1174L18.3073 28.0637H27.5211L29.0961 17.1174H22.9537Z" fill="white"/>
<path d="M27.5211 28.8513H18.3073C18.0711 28.8513 17.8348 28.6938 17.6773 28.5363C17.5198 28.3788 17.5198 28.0638 17.5986 27.8276L22.2448 16.8813C22.4023 16.4876 22.6386 16.3301 22.9536 16.3301H29.0961C29.3323 16.3301 29.5686 16.4088 29.7261 16.5663C29.8836 16.7238 29.9623 16.9601 29.8836 17.1963L28.3086 28.1426C28.2298 28.5363 27.9148 28.8513 27.5211 28.8513ZM19.4886 27.2763H26.8123L28.2298 17.9051H23.5048L19.4886 27.2763Z" fill="#202124"/>
<path d="M29.0961 17.1174L27.5211 28.0637H36.2623L34.6873 17.1174H29.0961Z" fill="#E4002B"/>
<path d="M36.2623 28.8513H27.5211C27.2848 28.8513 27.0486 28.7726 26.8911 28.6151C26.7336 28.4576 26.6548 28.2213 26.7336 27.9851L28.3086 17.0388C28.3873 16.6451 28.7023 16.3301 29.0961 16.3301H34.6873C35.0811 16.3301 35.3961 16.6451 35.4748 17.0388L37.0498 27.9851C37.0498 28.2213 37.0498 28.4576 36.8923 28.6151C36.7348 28.6938 36.4986 28.8513 36.2623 28.8513ZM28.4661 27.2763H35.3961L34.0573 17.9051H29.8048L28.4661 27.2763Z" fill="#202124"/>
<path d="M40.8299 17.1174H34.6874L36.2624 28.0637H45.5549L40.8299 17.1174Z" fill="white"/>
<path d="M45.5549 28.8513H36.2624C35.8687 28.8513 35.5537 28.5363 35.4749 28.1426L33.8999 17.1963C33.8999 16.9601 33.8999 16.7238 34.0574 16.5663C34.2937 16.4088 34.4512 16.3301 34.6874 16.3301H40.8299C41.1449 16.3301 41.4599 16.4876 41.5387 16.8026L46.1849 27.7488C46.2637 27.9851 46.2637 28.3001 46.1062 28.4576C46.0274 28.6938 45.7912 28.8513 45.5549 28.8513ZM36.9712 27.2763H44.2949L40.3574 17.9051H35.6324L36.9712 27.2763Z" fill="#202124"/>
<path d="M54.6111 28.0637L48.3898 17.1174H46.4211H40.8298L45.5548 28.0637H54.6111Z" fill="#E4002B"/>
<path d="M54.6111 28.8513H45.5548C45.2398 28.8513 44.9248 28.6938 44.8461 28.3788L40.1211 17.4326C40.0423 17.1963 40.0423 16.8813 40.1998 16.7238C40.3573 16.4876 40.5936 16.3301 40.8298 16.3301H48.3898C48.7048 16.3301 48.9411 16.4876 49.0986 16.7238L55.3986 27.6701C55.5561 27.9063 55.5561 28.2213 55.3986 28.4576C55.2411 28.6938 54.9261 28.8513 54.6111 28.8513ZM46.0273 27.2763H53.2723L47.9173 17.9051H42.0111L46.0273 27.2763Z" fill="#202124"/>
<path d="M18.1499 33.025V28.0637H9.09367V33.025C9.09367 35.545 11.1412 37.5137 13.6612 37.5137C16.1024 37.435 18.1499 35.3875 18.1499 33.025Z" fill="#E4002B"/>
<path d="M13.6612 38.3011C10.6687 38.3011 8.30617 35.9386 8.30617 33.0249V28.0636C8.30617 27.5911 8.62117 27.2761 9.09367 27.2761H18.2287C18.7012 27.2761 19.0162 27.5911 19.0162 28.0636V33.0249C18.9374 35.8599 16.6537 38.1436 13.6612 38.3011ZM9.88117 28.8511V33.0249C9.88117 35.1511 11.5349 36.7261 13.6612 36.7261C15.7087 36.6474 17.4412 34.9936 17.4412 33.0249V28.8511H9.88117Z" fill="#202124"/>
<path d="M27.2849 28.0637H18.1499V33.025C18.1499 35.545 20.1974 37.5137 22.7174 37.5137C25.2374 37.5137 27.2849 35.545 27.2849 33.025V28.0637Z" fill="white"/>
<path d="M22.7174 38.3011C19.8037 38.3011 17.3624 35.9386 17.3624 33.0249V28.0636C17.3624 27.5911 17.6774 27.2761 18.1499 27.2761H27.2849C27.7574 27.2761 28.0724 27.5911 28.0724 28.0636V33.0249C28.0724 35.9386 25.7099 38.3011 22.7174 38.3011ZM18.9374 28.8511V33.0249C18.9374 35.1511 20.5912 36.7261 22.7174 36.7261C24.8437 36.7261 26.4974 35.0724 26.4974 33.0249V28.8511H18.9374Z" fill="#202124"/>
<path d="M36.4199 28.0637H27.2849V33.025C27.2849 35.545 29.3324 37.5137 31.8524 37.5137C34.3724 37.5137 36.4199 35.545 36.4199 33.025V28.0637Z" fill="#E4002B"/>
<path d="M31.8524 38.3011C28.9387 38.3011 26.4974 35.9386 26.4974 33.0249V28.0636C26.4974 27.5911 26.8124 27.2761 27.2849 27.2761H36.4199C36.8924 27.2761 37.2074 27.5911 37.2074 28.0636V33.0249C37.2074 35.9386 34.7662 38.3011 31.8524 38.3011ZM28.0724 28.8511V33.0249C28.0724 35.1511 29.7262 36.7261 31.8524 36.7261C33.9787 36.7261 35.6324 35.0724 35.6324 33.0249V28.8511H28.0724Z" fill="#202124"/>
<path d="M45.5549 28.0637H36.4198V33.025C36.4198 35.545 38.4673 37.5137 40.9873 37.5137C43.5073 37.5137 45.5549 35.545 45.5549 33.025V28.0637Z" fill="white"/>
<path d="M40.9873 38.3011C38.0736 38.3011 35.6323 35.9386 35.6323 33.0249V28.0636C35.6323 27.5911 35.9473 27.2761 36.4198 27.2761H45.5549C46.0274 27.2761 46.3424 27.5911 46.3424 28.0636V33.0249C46.3424 35.9386 43.9011 38.3011 40.9873 38.3011ZM37.2073 28.8511V33.0249C37.2073 35.1511 38.8611 36.7261 40.9873 36.7261C43.1136 36.7261 44.7674 35.0724 44.7674 33.0249V28.8511H37.2073Z" fill="#202124"/>
<path d="M54.6111 28.0637H45.5548V33.025C45.5548 35.545 47.6023 37.5137 50.1223 37.5137C52.6423 37.5137 54.6898 35.545 54.6898 33.025V28.0637H54.6111Z" fill="#E4002B"/>
<path d="M50.0436 38.3011C47.1298 38.3011 44.6886 35.9386 44.6886 33.0249V28.0636C44.6886 27.5911 45.0036 27.2761 45.4761 27.2761H54.6112C55.0837 27.2761 55.3987 27.5911 55.3987 28.0636V33.0249C55.3987 35.9386 53.0361 38.3011 50.0436 38.3011ZM46.3424 28.8511V33.0249C46.3424 35.1511 47.9962 36.7261 50.1224 36.7261C52.2487 36.7261 53.9023 35.0724 53.9023 33.0249V28.8511H46.3424Z" fill="#202124"/>
<path opacity="0.8" d="M49.9648 68.305C49.9648 70.0447 41.8556 71.455 31.8523 71.455C21.8491 71.455 13.7398 70.0447 13.7398 68.305C13.7398 66.5654 21.8491 65.155 31.8523 65.155C41.8556 65.155 49.9648 66.5654 49.9648 68.305Z" fill="#D2D3D3"/>
</g>
</g>
<defs>
<clipPath id="clip0_1_210">
<rect width="63" height="82" fill="white" transform="translate(0.352337 0.530029)"/>
</clipPath>
<clipPath id="clip1_1_210">
<rect width="63" height="82" fill="white" transform="translate(0.352337 0.530029)"/>
</clipPath>
</defs>
</svg>
