<svg width="66" height="79" viewBox="0 0 66 79" fill="none" xmlns="http://www.w3.org/2000/svg">
<g clip-path="url(#clip0_1_178)">
<g clip-path="url(#clip1_1_178)">
<path fill-rule="evenodd" clip-rule="evenodd" d="M58.0304 25.1646V47.4067H49.9054V61.4111H53.9679H62.9054V25.1646H58.0304Z" fill="white"/>
<path d="M62.9054 62.2347H49.9054C49.4179 62.2347 49.0929 61.9052 49.0929 61.4109V47.4066C49.0929 46.9123 49.4179 46.5828 49.9054 46.5828H57.2179V25.1644C57.2179 24.6701 57.5429 24.3406 58.0304 24.3406H62.9054C63.3929 24.3406 63.7179 24.6701 63.7179 25.1644V61.4109C63.7179 61.9052 63.3929 62.2347 62.9054 62.2347ZM50.7179 60.5871H62.0929V25.9882H58.8429V47.4066C58.8429 47.9008 58.5179 48.2303 58.0304 48.2303H50.7179V60.5871Z" fill="#202124"/>
<path d="M58.0304 44.1116H48.2804V47.4067H58.0304V44.1116Z" fill="#E4002B"/>
<path d="M58.0304 48.2305H48.2804C47.7929 48.2305 47.4679 47.9011 47.4679 47.4067V44.1116C47.4679 43.6174 47.7929 43.2878 48.2804 43.2878H58.0304C58.5179 43.2878 58.8429 43.6174 58.8429 44.1116V47.4067C58.8429 47.9011 58.5179 48.2305 58.0304 48.2305ZM49.0929 46.583H57.2179V44.9354H49.0929V46.583Z" fill="#202124"/>
<path fill-rule="evenodd" clip-rule="evenodd" d="M53.1554 23.1875H48.2804V26.6474C48.2804 28.1302 49.3367 29.2835 50.7179 29.2835C52.0992 29.2835 53.1554 28.1302 53.1554 26.6474V23.1875Z" fill="#E4002B"/>
<path d="M50.7179 30.1071C48.9304 30.1071 47.4679 28.6242 47.4679 26.6472V23.1873C47.4679 22.693 47.7929 22.3635 48.2804 22.3635H53.1554C53.6429 22.3635 53.9679 22.693 53.9679 23.1873V26.6472C53.9679 28.6242 52.5054 30.1071 50.7179 30.1071ZM49.0929 24.011V26.6472C49.0929 27.6358 49.8242 28.4595 50.7179 28.4595C51.6117 28.4595 52.3429 27.7181 52.3429 26.6472V24.011H49.0929Z" fill="#202124"/>
<path fill-rule="evenodd" clip-rule="evenodd" d="M58.0304 26.6474C58.0304 28.1302 56.9742 29.2835 55.5929 29.2835C54.2117 29.2835 53.1554 28.1302 53.1554 26.6474V23.1875H58.0304V26.6474Z" fill="white"/>
<path d="M55.5929 30.1071C53.8054 30.1071 52.3429 28.6242 52.3429 26.6472V23.1873C52.3429 22.693 52.6679 22.3635 53.1554 22.3635H58.0304C58.5179 22.3635 58.8429 22.693 58.8429 23.1873V26.6472C58.8429 28.6242 57.3804 30.1071 55.5929 30.1071ZM53.9679 24.011V26.6472C53.9679 27.6358 54.6992 28.4595 55.5929 28.4595C56.4867 28.4595 57.2179 27.7181 57.2179 26.6472V24.011H53.9679Z" fill="#202124"/>
<path fill-rule="evenodd" clip-rule="evenodd" d="M62.9054 26.6474C62.9054 28.1302 61.8492 29.2835 60.4679 29.2835C59.0867 29.2835 58.0304 28.1302 58.0304 26.6474V23.1875H62.9054V26.6474Z" fill="#E4002B"/>
<path d="M60.4679 30.1071C58.6804 30.1071 57.2179 28.6242 57.2179 26.6472V23.1873C57.2179 22.693 57.5429 22.3635 58.0304 22.3635H62.9054C63.3929 22.3635 63.7179 22.693 63.7179 23.1873V26.6472C63.7179 28.6242 62.2554 30.1071 60.4679 30.1071ZM58.8429 24.011V26.6472C58.8429 27.6358 59.5742 28.4595 60.4679 28.4595C61.3617 28.4595 62.0929 27.7181 62.0929 26.6472V24.011H58.8429Z" fill="#202124"/>
<path d="M58.0304 12.8079V23.1876H62.9054L62.0929 12.8079H58.0304Z" fill="#E4002B"/>
<path d="M62.9054 24.0111H58.0304C57.5429 24.0111 57.2179 23.6816 57.2179 23.1874V12.8077C57.2179 12.3134 57.5429 11.9839 58.0304 11.9839H62.0929C62.4992 11.9839 62.9054 12.3134 62.9054 12.7253L63.7179 23.105C63.7179 23.3521 63.6367 23.5992 63.4742 23.764C63.3117 23.9288 63.1492 24.0111 62.9054 24.0111ZM58.8429 22.3636H62.0117L61.3617 13.6315H58.8429V22.3636Z" fill="#202124"/>
<path d="M53.9679 12.8079L53.1554 23.1876H58.0304V12.8079H53.9679Z" fill="white"/>
<path d="M58.0304 24.0111H53.1554C52.9117 24.0111 52.7492 23.9288 52.5867 23.764C52.4242 23.5992 52.3429 23.3521 52.3429 23.1874L53.1554 12.8077C53.1554 12.3134 53.5617 11.9839 53.9679 11.9839H58.0304C58.5179 11.9839 58.8429 12.3134 58.8429 12.8077V23.1874C58.8429 23.6816 58.5179 24.0111 58.0304 24.0111ZM54.0492 22.3636H57.2179V13.6315H54.6992L54.0492 22.3636Z" fill="#202124"/>
<path d="M49.9054 12.8079L48.2804 23.1876H53.1554L53.9679 12.8079H49.9054Z" fill="#E4002B"/>
<path d="M53.1554 24.0111H48.2804C48.0367 24.0111 47.7929 23.9288 47.6304 23.6816C47.4679 23.5992 47.4679 23.3521 47.4679 23.105L49.0929 12.7253C49.1742 12.3134 49.4992 11.9839 49.9054 11.9839H53.9679C54.2117 11.9839 54.3742 12.0663 54.5367 12.231C54.6992 12.3958 54.7804 12.6429 54.7804 12.8901L53.9679 23.2697C53.9679 23.6816 53.5617 24.0111 53.1554 24.0111ZM49.2554 22.3636H52.4242L53.0742 13.6315H50.5554L49.2554 22.3636Z" fill="#202124"/>
<path d="M4.89293 55.8918H13.0179V59.5989C13.0179 60.9993 11.8804 62.2349 10.5804 62.2349H7.33043C5.94918 62.2349 4.89293 61.0817 4.89293 59.5989C4.89293 59.6812 4.89293 55.8918 4.89293 55.8918Z" fill="#202124"/>
<path d="M34.7929 55.8918H42.9179V59.5989C42.9179 60.9993 41.7804 62.2349 40.4804 62.2349H37.0679C35.6867 62.2349 34.6304 61.0817 34.6304 59.5989L34.7929 55.8918Z" fill="#202124"/>
<path fill-rule="evenodd" clip-rule="evenodd" d="M10.4992 35.0501C10.1742 35.7091 10.0117 36.2857 9.68669 36.9447H37.9617C37.6367 36.2857 37.4742 35.7091 37.1492 35.0501C36.4992 33.5673 35.8492 32.0021 35.2804 30.4369C34.6304 29.2836 33.9804 28.3774 32.9242 28.2126H14.8867C13.7492 28.295 13.0992 29.3659 12.5304 30.4369C11.7179 32.0845 11.1492 33.5673 10.4992 35.0501Z" fill="#D2D3D3"/>
<path d="M37.2304 50.043C38.6664 50.043 39.8304 48.6784 39.8304 46.995C39.8304 45.3116 38.6664 43.947 37.2304 43.947C35.7944 43.947 34.6304 45.3116 34.6304 46.995C34.6304 48.6784 35.7944 50.043 37.2304 50.043Z" fill="white"/>
<path d="M10.4992 50.043C11.9352 50.043 13.0992 48.6784 13.0992 46.995C13.0992 45.3116 11.9352 43.947 10.4992 43.947C9.06326 43.947 7.89923 45.3116 7.89923 46.995C7.89923 48.6784 9.06326 50.043 10.4992 50.043Z" fill="white"/>
<path fill-rule="evenodd" clip-rule="evenodd" d="M10.9867 35.2149C10.6617 35.874 10.4992 36.4506 10.1742 37.1096H37.6367C37.3117 36.4506 37.1492 35.874 36.8242 35.2149C36.1742 33.7321 35.6867 32.414 34.9555 30.8488C34.3054 29.6956 33.818 28.7894 32.5992 28.7894H15.1304C14.0742 28.8718 13.3429 29.9427 12.7742 30.8488C11.9617 32.414 11.5554 33.8968 10.9867 35.2149ZM9.6867 30.437C10.0929 29.366 10.6617 28.4599 11.2304 27.6361C12.2867 26.4004 13.3429 25.9885 14.8054 25.9885H32.843C34.3055 25.9885 35.3617 26.4004 36.418 27.8009C37.068 28.6246 37.5555 29.4484 37.9617 30.5194L40.1555 36.2034H44.2992C44.9492 36.2034 46.0867 39.9105 41.7805 39.9929L43.243 43.8647C43.243 46.9127 43.243 49.7959 43.243 51.5259C43.243 52.432 42.5117 53.3382 41.5367 53.3382H36.0117H35.3617H34.0617H15.2929H13.2617H11.5554H5.78671C5.05546 53.3382 4.40546 52.6792 4.40546 51.8554C4.40546 50.0431 4.40546 47.1598 4.40546 44.0294L5.86796 40.1576C1.56171 40.0752 2.78046 36.3682 3.43046 36.3682H7.57421L9.6867 30.437ZM34.0617 46.9951C34.0617 45.1827 35.5242 43.8647 37.2305 43.8647C39.018 43.8647 40.3992 45.2651 40.3992 46.9951C40.3992 48.6426 39.018 50.1254 37.2305 50.1254C35.5242 50.1254 34.0617 48.6426 34.0617 46.9951ZM13.6679 46.9951C13.6679 45.1827 12.2054 43.8647 10.4992 43.8647C8.7117 43.8647 7.33046 45.2651 7.33046 46.9951C7.33046 48.6426 8.7117 50.1254 10.4992 50.1254C12.2054 50.1254 13.6679 48.6426 13.6679 46.9951Z" fill="#E4002B"/>
<path d="M41.5367 54.1619H5.78669C4.56794 54.1619 3.59294 53.091 3.59294 51.8553V44.0294C3.59294 43.947 3.59294 43.8646 3.67419 43.6998L4.73044 40.8166C2.69919 40.4871 1.96794 39.0866 1.96794 37.851C1.96794 36.78 2.53669 35.5444 3.43044 35.5444H7.00544L8.95544 30.1898C9.44294 29.0365 10.0117 28.0479 10.5804 27.2241C10.5804 27.2241 10.5804 27.1417 10.6617 27.1417C11.7992 25.8237 13.0992 25.2471 14.8867 25.2471H32.8429C34.7117 25.2471 35.9304 25.9061 37.0679 27.3889C37.7992 28.2951 38.2867 29.2013 38.6929 30.2721L40.6429 35.462H44.2179C45.1117 35.462 45.6804 36.6153 45.6804 37.6862C45.6804 39.0042 44.9492 40.4047 42.8367 40.8166L43.8929 43.6998C43.8929 43.7822 43.9742 43.8646 43.9742 44.0294V51.5258C44.0554 52.9263 42.9179 54.1619 41.5367 54.1619ZM5.21794 44.1941V51.8553C5.21794 52.2672 5.54294 52.5143 5.78669 52.5143H41.5367C42.0242 52.5143 42.4304 52.0201 42.4304 51.5258V44.0294L41.0492 40.3224C40.9679 40.0752 40.9679 39.828 41.1304 39.581C41.2929 39.3338 41.5367 39.2514 41.7804 39.2514C42.5929 39.2514 43.6492 39.0866 44.0554 38.2628C44.2179 37.851 44.1367 37.3567 44.0554 37.1096H40.1554C39.8304 37.1096 39.5054 36.8624 39.4242 36.6153L37.2304 30.9312C36.9054 29.9427 36.4179 29.2013 35.8492 28.4599C34.8742 27.0594 33.9804 26.8123 32.8429 26.8123H14.8054C13.5054 26.8123 12.6929 27.1417 11.8804 28.1303C11.3929 28.8717 10.8242 29.6955 10.4179 30.6841L8.30544 36.6153C8.22419 36.9448 7.89919 37.192 7.57419 37.192H3.75544C3.67419 37.4391 3.51169 37.9334 3.75544 38.4276C4.08044 39.169 5.13669 39.3338 5.94919 39.3338C6.19294 39.3338 6.43669 39.4986 6.59919 39.6633C6.76169 39.9104 6.76169 40.1576 6.68044 40.4047L5.21794 44.1941ZM37.2304 50.9491C35.1179 50.9491 33.2492 49.1368 33.2492 46.995C33.2492 44.7708 35.0367 43.0408 37.2304 43.0408C39.4242 43.0408 41.2117 44.7708 41.2117 46.995C41.2117 49.1368 39.4242 50.9491 37.2304 50.9491ZM37.2304 44.6884C35.9304 44.6884 34.8742 45.6769 34.8742 46.995C34.8742 48.2307 36.0117 49.3016 37.2304 49.3016C38.5304 49.3016 39.5867 48.2307 39.5867 46.995C39.5867 45.6769 38.6117 44.6884 37.2304 44.6884ZM10.4992 50.9491C8.30544 50.9491 6.51794 49.1368 6.51794 46.995C6.51794 44.7708 8.30544 43.0408 10.4992 43.0408C12.6929 43.0408 14.4804 44.7708 14.4804 46.995C14.4804 49.1368 12.6117 50.9491 10.4992 50.9491ZM10.4992 44.6884C9.19919 44.6884 8.14294 45.6769 8.14294 46.995C8.14294 48.2307 9.19919 49.3016 10.4992 49.3016C11.7179 49.3016 12.8554 48.2307 12.8554 46.995C12.8554 45.6769 11.8804 44.6884 10.4992 44.6884ZM37.6367 37.9334H10.1742C9.93044 37.9334 9.60544 37.7686 9.44294 37.5214C9.28044 37.2743 9.28044 36.9448 9.44294 36.6977C9.60544 36.3682 9.68669 36.121 9.84919 35.7915C10.0117 35.462 10.0929 35.1325 10.2554 34.803C10.4179 34.3087 10.6617 33.8144 10.8242 33.3202C11.1492 32.414 11.5554 31.4255 12.0429 30.4369C12.6117 29.5307 13.5054 28.0479 15.0492 27.9655H32.5992C34.3054 27.9655 34.9554 29.2013 35.6054 30.3545L35.6867 30.4369C36.0929 31.4255 36.4992 32.2493 36.8242 33.073C37.0679 33.6497 37.3117 34.2263 37.5554 34.803C37.7179 35.1325 37.8804 35.462 37.9617 35.7915C38.0429 36.121 38.2054 36.3682 38.3679 36.6977C38.5304 36.9448 38.4492 37.2743 38.3679 37.5214C38.2867 37.7686 37.9617 37.9334 37.6367 37.9334ZM11.4742 36.2858H36.4992C36.4179 36.0386 36.3367 35.7915 36.1742 35.5444C35.9304 34.8854 35.6867 34.3087 35.4429 33.7321C35.1179 32.9083 34.7117 32.0845 34.3054 31.0959C33.6554 29.8603 33.3304 29.5307 32.6804 29.5307H15.1304C14.5617 29.6131 13.9929 30.4369 13.4242 31.1783C12.9367 32.0845 12.6117 32.9907 12.2867 33.8144C12.1242 34.3911 11.8804 34.8854 11.6367 35.3796C11.6367 35.7915 11.5554 36.0386 11.4742 36.2858Z" fill="#202124"/>
<path d="M29.0242 47.8187H18.4617C17.9742 47.8187 17.6492 47.4892 17.6492 46.9949C17.6492 46.5006 17.9742 46.1711 18.4617 46.1711H29.0242C29.5117 46.1711 29.8367 46.5006 29.8367 46.9949C29.8367 47.4892 29.5117 47.8187 29.0242 47.8187Z" fill="#202124"/>
<path opacity="0.8" d="M51.5304 67.1774C51.5304 68.9973 43.1638 70.4726 32.8429 70.4726C22.5222 70.4726 14.1554 68.9973 14.1554 67.1774C14.1554 65.3576 22.5222 63.8823 32.8429 63.8823C43.1638 63.8823 51.5304 65.3576 51.5304 67.1774Z" fill="#D2D3D3"/>
</g>
</g>
<defs>
<clipPath id="clip0_1_178">
<rect width="65" height="78" fill="white" transform="translate(0.342941 0.530029)"/>
</clipPath>
<clipPath id="clip1_1_178">
<rect width="65" height="78" fill="white" transform="translate(0.342941 0.530029)"/>
</clipPath>
</defs>
</svg>
